G04*
G04 #@! TF.GenerationSoftware,Altium Limited,Altium Designer,18.1.9 (240)*
G04*
G04 Layer_Color=2752767*
%FSLAX25Y25*%
%MOIN*%
G70*
G01*
G75*
%ADD10C,0.00394*%
%ADD11C,0.00197*%
%ADD12C,0.00200*%
%ADD13C,0.00267*%
%ADD14C,0.01000*%
D10*
X464567Y265748D02*
G03*
X464567Y265748I-1969J0D01*
G01*
X391894Y195760D02*
X395831Y202579D01*
X387632Y198221D02*
X391569Y205040D01*
X395831Y202579D01*
X387632Y198221D02*
X391894Y195760D01*
X407220Y204739D02*
Y209661D01*
X399346Y204739D02*
Y209661D01*
Y204739D02*
X407220D01*
X399346Y209661D02*
X407220D01*
X486614Y241732D02*
Y269291D01*
X459055Y241732D02*
Y269291D01*
Y241732D02*
X486614D01*
X459055Y269291D02*
X486614D01*
X424458Y185453D02*
Y197067D01*
X419142Y185453D02*
Y197067D01*
X424458D01*
X419142Y185453D02*
X424458D01*
X440135Y267755D02*
Y274645D01*
X428127Y267755D02*
Y274645D01*
X440135D01*
X428127Y267755D02*
X440135D01*
X387632Y216359D02*
X391894Y218820D01*
X391569Y209540D02*
X395831Y212001D01*
X391894Y218820D02*
X395831Y212001D01*
X387632Y216359D02*
X391569Y209540D01*
X498098Y177596D02*
X504988D01*
X498098Y189604D02*
X504988D01*
X498098Y177596D02*
Y189604D01*
X504988Y177596D02*
Y189604D01*
X526861Y243633D02*
Y251507D01*
X521939Y243633D02*
Y251507D01*
X526861D01*
X521939Y243633D02*
X526861D01*
X521939Y236380D02*
X526861D01*
X521939Y228505D02*
X526861D01*
Y236380D01*
X521939Y228505D02*
Y236380D01*
X390027Y201384D02*
X393437Y199416D01*
X390747Y198695D02*
X392716Y202105D01*
X401314Y207200D02*
X405251D01*
X403283Y205231D02*
Y209169D01*
X470866Y255512D02*
X474803D01*
X472835Y253543D02*
Y257480D01*
X419832Y191260D02*
X423769D01*
X421800Y189291D02*
Y193228D01*
X432163Y271200D02*
X436100D01*
X434131Y269232D02*
Y273168D01*
X390747Y215885D02*
X392716Y212475D01*
X390027Y213196D02*
X393437Y215164D01*
X501543Y181632D02*
Y185568D01*
X499575Y183600D02*
X503512D01*
X522432Y247570D02*
X526369D01*
X524400Y245602D02*
Y249539D01*
Y230474D02*
Y234411D01*
X522432Y232442D02*
X526369D01*
D11*
X391355Y192662D02*
X398245Y204595D01*
X385218Y196205D02*
X392108Y208138D01*
X398245Y204595D01*
X385218Y196205D02*
X391355Y192662D01*
X410173Y203657D02*
Y210743D01*
X396393Y203657D02*
Y210743D01*
Y203657D02*
X410173D01*
X396393Y210743D02*
X410173D01*
X493307Y235039D02*
Y275984D01*
X452362Y235039D02*
Y275984D01*
Y235039D02*
X493307D01*
X452362Y275984D02*
X493307D01*
X429477Y184370D02*
Y198150D01*
X414123Y184370D02*
Y198150D01*
X429477D01*
X414123Y184370D02*
X429477D01*
X441218Y263326D02*
Y279074D01*
X427045Y263326D02*
Y279074D01*
X441218D01*
X427045Y263326D02*
X441218D01*
X385218Y218375D02*
X391355Y221918D01*
X392108Y206442D02*
X398245Y209985D01*
X391355Y221918D02*
X398245Y209985D01*
X385218Y218375D02*
X392108Y206442D01*
X493669Y176513D02*
X509417D01*
X493669Y190687D02*
X509417D01*
X493669Y176513D02*
Y190687D01*
X509417Y176513D02*
Y190687D01*
X527943Y240680D02*
Y254460D01*
X520857Y240680D02*
Y254460D01*
X527943D01*
X520857Y240680D02*
X527943D01*
X520857Y239332D02*
X527943D01*
X520857Y225553D02*
X527943D01*
Y239332D01*
X520857Y225553D02*
Y239332D01*
D12*
X499658Y235721D02*
Y236721D01*
Y236221D02*
X500158D01*
X499158D02*
X499658D01*
X455858Y238371D02*
Y239371D01*
Y238871D02*
X456358D01*
X455358D02*
X455858D01*
X446258Y278986D02*
Y279986D01*
Y279486D02*
X446758D01*
X445758D02*
X446258D01*
X418017Y181658D02*
X419017D01*
X418517D02*
Y182158D01*
Y181158D02*
Y181658D01*
X430346Y285750D02*
X431346D01*
X430846Y285250D02*
Y285750D01*
Y286250D01*
X430346Y280659D02*
X431346D01*
X430846Y280159D02*
Y280659D01*
Y281159D01*
X498895Y167887D02*
X499895D01*
X499395D02*
Y168387D01*
Y167387D02*
Y167887D01*
X498895Y172858D02*
X499895D01*
X499395D02*
Y173358D01*
Y172358D02*
Y172858D01*
X499462Y193087D02*
X500462D01*
X499962D02*
Y193587D01*
Y192587D02*
Y193087D01*
X499462Y199658D02*
X500462D01*
X499962D02*
Y200158D01*
Y199158D02*
Y199658D01*
X524258Y214479D02*
Y215479D01*
Y214979D02*
X524758D01*
X523758D02*
X524258D01*
X500084Y271047D02*
X500584D01*
X501084D01*
X500584Y270548D02*
Y271548D01*
X459142Y279102D02*
X459642D01*
X458642D02*
X459142D01*
Y278602D02*
Y279602D01*
X404346Y200358D02*
Y200858D01*
Y201358D01*
X403846Y200858D02*
X404846D01*
X404346Y211758D02*
Y212258D01*
Y212758D01*
X403846Y212258D02*
X404846D01*
X404346Y206058D02*
Y206558D01*
Y207058D01*
X403846Y206558D02*
X404846D01*
X326958Y262621D02*
X327458D01*
X327958D01*
X327458Y262121D02*
Y263121D01*
X446542Y262379D02*
X447042D01*
X446042D02*
X446542D01*
Y261879D02*
Y262879D01*
X481942Y279102D02*
X482442D01*
X481442D02*
X481942D01*
Y278602D02*
Y279602D01*
X506008Y271047D02*
X506508D01*
X507008D01*
X506508Y270548D02*
Y271548D01*
X331758Y262621D02*
X332258D01*
X332758D01*
X332258Y262121D02*
Y263121D01*
X495457Y284669D02*
Y286269D01*
X497057D01*
Y284669D01*
X495457D01*
X502543D02*
Y286269D01*
X504143D01*
Y284669D01*
X502543D01*
X453600Y230800D02*
X452800Y232400D01*
X454400D01*
X453600Y230800D01*
Y221200D02*
X452800Y222800D01*
X454400D01*
X453600Y221200D01*
X446400Y269800D02*
X445600Y271400D01*
X447200D01*
X446400Y269800D01*
X524400Y202000D02*
X523600Y203600D01*
X525200D01*
X524400Y202000D01*
X425540Y186720D02*
X424740Y188320D01*
X426340D01*
X425540Y186720D01*
X506268Y161200D02*
X505468Y162800D01*
X507068D01*
X506268Y161200D01*
X382200Y203800D02*
X381400Y205400D01*
X383000D01*
X382200Y203800D01*
X351600Y169000D02*
X350800Y170600D01*
X352400D01*
X351600Y169000D01*
X466200Y243400D02*
X465400Y245000D01*
X467000D01*
X466200Y243400D01*
X513600Y184600D02*
X512800Y186200D01*
X514400D01*
X513600Y184600D01*
X430297Y265000D02*
X429497Y266600D01*
X431097D01*
X430297Y265000D01*
X375600Y169000D02*
X374800Y170600D01*
X376400D01*
X375600Y169000D01*
X463976Y246092D02*
X463176Y247692D01*
X464776D01*
X463976Y246092D01*
X507600Y229000D02*
X506800Y230600D01*
X508400D01*
X507600Y229000D01*
Y233800D02*
X506800Y235400D01*
X508400D01*
X507600Y233800D01*
X499800Y237249D02*
X499000Y238849D01*
X500600D01*
X499800Y237249D01*
X418747Y163600D02*
X417947Y165200D01*
X419547D01*
X418747Y163600D01*
X375600Y154000D02*
X374800Y155600D01*
X376400D01*
X375600Y154000D01*
X499800Y198400D02*
X499000Y200000D01*
X500600D01*
X499800Y198400D01*
X456000Y237809D02*
X455200Y239409D01*
X456800D01*
X456000Y237809D01*
X494600Y250000D02*
X493800Y251600D01*
X495400D01*
X494600Y250000D01*
X499321Y245404D02*
X498521Y247004D01*
X500121D01*
X499321Y245404D01*
X451200Y259633D02*
X450400Y261233D01*
X452000D01*
X451200Y259633D01*
X447000Y247000D02*
X446200Y248600D01*
X447800D01*
X447000Y247000D01*
X445400Y249800D02*
X444600Y251400D01*
X446200D01*
X445400Y249800D01*
X443800Y252600D02*
X443000Y254200D01*
X444600D01*
X443800Y252600D01*
X442200Y255400D02*
X441400Y257000D01*
X443000D01*
X442200Y255400D01*
X481800Y256600D02*
X481000Y258200D01*
X482600D01*
X481800Y256600D01*
X478570D02*
X477770Y258200D01*
X479370D01*
X478570Y256600D01*
Y260200D02*
X477770Y261800D01*
X479370D01*
X478570Y260200D01*
X319200Y202000D02*
X318400Y203600D01*
X320000D01*
X319200Y202000D01*
X414986Y195400D02*
X414186Y197000D01*
X415786D01*
X414986Y195400D01*
X524400Y249400D02*
X523600Y251000D01*
X525200D01*
X524400Y249400D01*
X330000Y262271D02*
X329200Y263871D01*
X330800D01*
X330000Y262271D01*
X457200Y271000D02*
X456400Y272600D01*
X458000D01*
X457200Y271000D01*
X469200Y262000D02*
X468400Y263600D01*
X470000D01*
X469200Y262000D01*
X495000Y270076D02*
X494200Y271676D01*
X495800D01*
X495000Y270076D01*
X506400Y278200D02*
X505600Y279800D01*
X507200D01*
X506400Y278200D01*
X475200Y276400D02*
X474400Y278000D01*
X476000D01*
X475200Y276400D01*
X437786Y265000D02*
X436986Y266600D01*
X438586D01*
X437786Y265000D01*
X324671Y159400D02*
X325071Y159800D01*
X325471D01*
X325071Y160200D01*
X325471Y160600D01*
X325071D01*
X324671Y161000D01*
X324271Y160600D01*
X323871D01*
X324271Y160200D01*
X323871Y159800D01*
X324271D01*
X324671Y159400D01*
X521800D02*
X522200Y159800D01*
X522600D01*
X522200Y160200D01*
X522600Y160600D01*
X522200D01*
X521800Y161000D01*
X521400Y160600D01*
X521000D01*
X521400Y160200D01*
X521000Y159800D01*
X521400D01*
X521800Y159400D01*
X324600Y277940D02*
X325000Y278340D01*
X325400D01*
X325000Y278740D01*
X325400Y279140D01*
X325000D01*
X324600Y279540D01*
X324200Y279140D01*
X323800D01*
X324200Y278740D01*
X323800Y278340D01*
X324200D01*
X324600Y277940D01*
X389663Y196000D02*
X388863Y197600D01*
X390463D01*
X389663Y196000D01*
X389736Y217000D02*
X388936Y218600D01*
X390536D01*
X389736Y217000D01*
X404583Y206400D02*
X403783Y208000D01*
X405383D01*
X404583Y206400D01*
X521871Y277940D02*
X522271Y278340D01*
X522671D01*
X522271Y278740D01*
X522671Y279140D01*
X522271D01*
X521871Y279540D01*
X521471Y279140D01*
X521071D01*
X521471Y278740D01*
X521071Y278340D01*
X521471D01*
X521871Y277940D01*
X362008Y196247D02*
X362408Y196647D01*
X362808D01*
X362408Y197047D01*
X362808Y197447D01*
X362408D01*
X362008Y197847D01*
X361608Y197447D01*
X361208D01*
X361608Y197047D01*
X361208Y196647D01*
X361608D01*
X362008Y196247D01*
X362205Y277940D02*
X362605Y278340D01*
X363005D01*
X362605Y278740D01*
X363005Y279140D01*
X362605D01*
X362205Y279540D01*
X361805Y279140D01*
X361405D01*
X361805Y278740D01*
X361405Y278340D01*
X361805D01*
X362205Y277940D01*
D13*
X397841Y281400D02*
G03*
X397841Y281400I-800J0D01*
G01*
Y271400D02*
G03*
X397841Y271400I-800J0D01*
G01*
X346863Y263071D02*
G03*
X346863Y263071I-800J0D01*
G01*
Y253071D02*
G03*
X346863Y253071I-800J0D01*
G01*
Y243071D02*
G03*
X346863Y243071I-800J0D01*
G01*
Y233071D02*
G03*
X346863Y233071I-800J0D01*
G01*
Y223071D02*
G03*
X346863Y223071I-800J0D01*
G01*
Y213071D02*
G03*
X346863Y213071I-800J0D01*
G01*
D14*
X324600Y289740D02*
G03*
X313600Y278740I0J-11000D01*
G01*
X313600Y160271D02*
G03*
X324600Y149271I11000J0D01*
G01*
X313671Y160200D02*
G03*
X324671Y149200I11000J0D01*
G01*
X521871Y149271D02*
G03*
X532871Y160271I0J11000D01*
G01*
X532871Y278740D02*
G03*
X521871Y289740I-11000J0D01*
G01*
X324600Y149271D02*
X521871D01*
X313600Y278740D02*
X313600Y160271D01*
X532871D02*
X532871Y278740D01*
X324600Y289740D02*
X521871Y289740D01*
M02*
