G04*
G04 #@! TF.GenerationSoftware,Altium Limited,Altium Designer,18.1.9 (240)*
G04*
G04 Layer_Physical_Order=1*
G04 Layer_Color=255*
%FSLAX25Y25*%
%MOIN*%
G70*
G01*
G75*
%ADD11C,0.01000*%
%ADD13C,0.00600*%
G04:AMPARAMS|DCode=15|XSize=51.18mil|YSize=33.47mil|CornerRadius=0mil|HoleSize=0mil|Usage=FLASHONLY|Rotation=150.000|XOffset=0mil|YOffset=0mil|HoleType=Round|Shape=Rectangle|*
%AMROTATEDRECTD15*
4,1,4,0.03053,0.00170,0.01380,-0.02729,-0.03053,-0.00170,-0.01380,0.02729,0.03053,0.00170,0.0*
%
%ADD15ROTATEDRECTD15*%

%ADD16R,0.03347X0.05118*%
%ADD17R,0.11811X0.01181*%
%ADD18R,0.03500X0.03500*%
%ADD19R,0.02362X0.04331*%
%ADD20R,0.03937X0.03937*%
%ADD21R,0.07874X0.05906*%
G04:AMPARAMS|DCode=22|XSize=51.18mil|YSize=33.47mil|CornerRadius=0mil|HoleSize=0mil|Usage=FLASHONLY|Rotation=30.000|XOffset=0mil|YOffset=0mil|HoleType=Round|Shape=Rectangle|*
%AMROTATEDRECTD22*
4,1,4,-0.01380,-0.02729,-0.03053,0.00170,0.01380,0.02729,0.03053,-0.00170,-0.01380,-0.02729,0.0*
%
%ADD22ROTATEDRECTD22*%

%ADD23R,0.03500X0.03500*%
%ADD24R,0.05118X0.03347*%
%ADD25R,0.02362X0.06693*%
%ADD26R,0.11811X0.10630*%
%ADD43C,0.01200*%
%ADD44C,0.02400*%
%ADD45R,0.05906X0.05906*%
%ADD46C,0.05906*%
%ADD47C,0.02400*%
%ADD48C,0.15748*%
G36*
X401679Y284341D02*
X401280Y283933D01*
X400387Y282917D01*
X400191Y282646D01*
X400045Y282410D01*
X399950Y282208D01*
X399906Y282040D01*
X399913Y281906D01*
X399970Y281806D01*
X397447Y284329D01*
X397547Y284272D01*
X397681Y284265D01*
X397849Y284309D01*
X398051Y284404D01*
X398287Y284550D01*
X398558Y284746D01*
X398863Y284993D01*
X399574Y285639D01*
X399982Y286038D01*
X401679Y284341D01*
D02*
G37*
G36*
X438603Y283858D02*
X438502Y283822D01*
X438411Y283762D01*
X438333Y283678D01*
X438268Y283570D01*
X438213Y283438D01*
X438171Y283282D01*
X438141Y283102D01*
X438138Y283061D01*
X438141Y283019D01*
X438171Y282837D01*
X438213Y282680D01*
X438268Y282546D01*
X438333Y282437D01*
X438411Y282352D01*
X438502Y282292D01*
X438603Y282256D01*
X438718Y282243D01*
X436317D01*
X436432Y282256D01*
X436533Y282292D01*
X436623Y282352D01*
X436701Y282437D01*
X436767Y282546D01*
X436822Y282680D01*
X436864Y282837D01*
X436894Y283019D01*
X436897Y283061D01*
X436894Y283102D01*
X436864Y283282D01*
X436822Y283438D01*
X436767Y283570D01*
X436701Y283678D01*
X436623Y283762D01*
X436533Y283822D01*
X436432Y283858D01*
X436317Y283870D01*
X438718D01*
X438603Y283858D01*
D02*
G37*
G36*
X429279Y283870D02*
X429319D01*
X429327Y284655D01*
X431727D01*
X431738Y284199D01*
X431763Y283870D01*
X432756D01*
X432560Y283846D01*
X432385Y283774D01*
X432231Y283654D01*
X432097Y283486D01*
X431984Y283270D01*
X431912Y283063D01*
X431984Y282855D01*
X432097Y282639D01*
X432231Y282471D01*
X432385Y282351D01*
X432560Y282279D01*
X432756Y282255D01*
X431763D01*
X431738Y281926D01*
X431727Y281470D01*
X429327D01*
X429312Y282255D01*
X429279D01*
X429288Y282279D01*
X429297Y282351D01*
X429304Y282471D01*
X429305Y282585D01*
X429279Y283870D01*
X429255Y283972D01*
X429183Y284064D01*
X429064Y284144D01*
X428895Y284214D01*
X428679Y284273D01*
X428415Y284322D01*
X428103Y284360D01*
X427336Y284402D01*
X426879Y284408D01*
Y286808D01*
X427336Y286813D01*
X428415Y286894D01*
X428679Y286942D01*
X428895Y287002D01*
X429064Y287071D01*
X429183Y287152D01*
X429255Y287244D01*
X429279Y287346D01*
Y283870D01*
D02*
G37*
G36*
X437306Y278791D02*
X437221Y278866D01*
X437118Y278904D01*
X436996Y278907D01*
X436854Y278875D01*
X436694Y278806D01*
X436515Y278703D01*
X436317Y278563D01*
X436100Y278388D01*
X435609Y277931D01*
X434931Y278950D01*
X435162Y279189D01*
X435528Y279622D01*
X435662Y279815D01*
X435764Y279992D01*
X435834Y280154D01*
X435872Y280301D01*
X435877Y280432D01*
X435850Y280547D01*
X435791Y280647D01*
X437306Y278791D01*
D02*
G37*
G36*
X506388Y277800D02*
X506241Y277798D01*
X505971Y277772D01*
X505848Y277749D01*
X505733Y277718D01*
X505627Y277680D01*
X505528Y277635D01*
X505438Y277583D01*
X505356Y277524D01*
X505281Y277457D01*
X504857Y277881D01*
X504924Y277956D01*
X504983Y278038D01*
X505035Y278128D01*
X505080Y278227D01*
X505118Y278333D01*
X505149Y278448D01*
X505172Y278571D01*
X505189Y278702D01*
X505198Y278841D01*
X505200Y278988D01*
X506388Y277800D01*
D02*
G37*
G36*
X432560Y278755D02*
X432385Y278683D01*
X432231Y278563D01*
X432097Y278395D01*
X431984Y278179D01*
X431892Y277915D01*
X431820Y277603D01*
X431768Y277243D01*
X431738Y276835D01*
X431727Y276379D01*
X429327D01*
X429279Y278779D01*
X432756D01*
X432560Y278755D01*
D02*
G37*
G36*
X476162Y277937D02*
X476371Y277765D01*
X476475Y277694D01*
X476578Y277635D01*
X476680Y277586D01*
X476782Y277549D01*
X476882Y277522D01*
X476982Y277505D01*
X477082Y277500D01*
Y276900D01*
X476982Y276895D01*
X476882Y276878D01*
X476782Y276851D01*
X476680Y276814D01*
X476578Y276765D01*
X476475Y276706D01*
X476371Y276635D01*
X476267Y276554D01*
X476162Y276463D01*
X476057Y276360D01*
Y278040D01*
X476162Y277937D01*
D02*
G37*
G36*
X458404Y271719D02*
X458418Y271648D01*
X458441Y271574D01*
X458473Y271498D01*
X458515Y271418D01*
X458567Y271336D01*
X458628Y271251D01*
X458699Y271164D01*
X458868Y270980D01*
X458020Y270132D01*
X457927Y270221D01*
X457749Y270372D01*
X457664Y270433D01*
X457582Y270485D01*
X457503Y270527D01*
X457426Y270559D01*
X457352Y270582D01*
X457281Y270596D01*
X457212Y270600D01*
X458400Y271788D01*
X458404Y271719D01*
D02*
G37*
G36*
X495908Y271671D02*
X495968Y271630D01*
X496037Y271594D01*
X496114Y271563D01*
X496200Y271536D01*
X496295Y271515D01*
X496398Y271498D01*
X496510Y271486D01*
X496759Y271476D01*
Y270276D01*
X496630Y270274D01*
X496398Y270255D01*
X496295Y270238D01*
X496200Y270216D01*
X496114Y270190D01*
X496037Y270159D01*
X495968Y270123D01*
X495908Y270082D01*
X495857Y270036D01*
Y271716D01*
X495908Y271671D01*
D02*
G37*
G36*
X494143Y270036D02*
X494092Y270082D01*
X494032Y270123D01*
X493963Y270159D01*
X493886Y270190D01*
X493800Y270216D01*
X493705Y270238D01*
X493602Y270255D01*
X493490Y270267D01*
X493241Y270276D01*
Y271476D01*
X493370Y271479D01*
X493602Y271498D01*
X493705Y271515D01*
X493800Y271536D01*
X493886Y271563D01*
X493963Y271594D01*
X494032Y271630D01*
X494092Y271671D01*
X494143Y271716D01*
Y270036D01*
D02*
G37*
G36*
X445543Y269760D02*
X445492Y269806D01*
X445432Y269846D01*
X445363Y269882D01*
X445286Y269914D01*
X445200Y269940D01*
X445105Y269962D01*
X445002Y269978D01*
X444890Y269990D01*
X444641Y270000D01*
Y271200D01*
X444770Y271202D01*
X445002Y271222D01*
X445105Y271238D01*
X445200Y271260D01*
X445286Y271286D01*
X445363Y271318D01*
X445432Y271354D01*
X445492Y271394D01*
X445543Y271440D01*
Y269760D01*
D02*
G37*
G36*
X435926Y269478D02*
X435767Y269316D01*
X435345Y268841D01*
X435293Y268765D01*
X435263Y268705D01*
X435254Y268663D01*
X435266Y268637D01*
X435300Y268629D01*
X432962D01*
X433054Y268642D01*
X433164Y268680D01*
X433190Y268693D01*
X433252Y268737D01*
X433326Y268821D01*
X433389Y268929D01*
X433440Y269061D01*
X433480Y269217D01*
X433508Y269397D01*
X433526Y269601D01*
X433531Y269829D01*
X434579D01*
X434653Y269902D01*
X435926Y269478D01*
D02*
G37*
G36*
X397011Y268447D02*
X396613Y268443D01*
X395893Y268387D01*
X395571Y268334D01*
X395274Y268266D01*
X395002Y268180D01*
X394756Y268079D01*
X394534Y267962D01*
X394339Y267828D01*
X394168Y267679D01*
X393320Y268527D01*
X393469Y268698D01*
X393603Y268894D01*
X393720Y269115D01*
X393822Y269361D01*
X393906Y269633D01*
X393975Y269930D01*
X394028Y270252D01*
X394064Y270600D01*
X394088Y271371D01*
X397011Y268447D01*
D02*
G37*
G36*
X470868Y263620D02*
X470779Y263527D01*
X470628Y263349D01*
X470567Y263264D01*
X470515Y263182D01*
X470473Y263103D01*
X470441Y263026D01*
X470418Y262952D01*
X470404Y262881D01*
X470400Y262812D01*
X469212Y264000D01*
X469281Y264004D01*
X469352Y264018D01*
X469426Y264041D01*
X469502Y264073D01*
X469582Y264115D01*
X469664Y264167D01*
X469749Y264228D01*
X469837Y264299D01*
X470020Y264468D01*
X470868Y263620D01*
D02*
G37*
G36*
X330908Y263865D02*
X330968Y263825D01*
X331037Y263789D01*
X331114Y263757D01*
X331200Y263731D01*
X331295Y263709D01*
X331398Y263692D01*
X331510Y263681D01*
X331759Y263671D01*
Y262471D01*
X331630Y262469D01*
X331398Y262449D01*
X331295Y262433D01*
X331200Y262411D01*
X331114Y262385D01*
X331037Y262353D01*
X330968Y262317D01*
X330908Y262277D01*
X330857Y262231D01*
Y263911D01*
X330908Y263865D01*
D02*
G37*
G36*
X329143Y262231D02*
X329092Y262277D01*
X329032Y262317D01*
X328963Y262353D01*
X328886Y262385D01*
X328800Y262411D01*
X328705Y262433D01*
X328602Y262449D01*
X328490Y262461D01*
X328241Y262471D01*
Y263671D01*
X328370Y263673D01*
X328602Y263692D01*
X328705Y263709D01*
X328800Y263731D01*
X328886Y263757D01*
X328963Y263789D01*
X329032Y263825D01*
X329092Y263865D01*
X329143Y263911D01*
Y262231D01*
D02*
G37*
G36*
X468343Y261960D02*
X468292Y262006D01*
X468232Y262046D01*
X468163Y262082D01*
X468086Y262114D01*
X468000Y262140D01*
X467905Y262162D01*
X467802Y262178D01*
X467690Y262190D01*
X467441Y262200D01*
Y263400D01*
X467570Y263402D01*
X467802Y263422D01*
X467905Y263438D01*
X468000Y263460D01*
X468086Y263486D01*
X468163Y263518D01*
X468232Y263554D01*
X468292Y263594D01*
X468343Y263640D01*
Y261960D01*
D02*
G37*
G36*
X343134Y261871D02*
X343122Y261985D01*
X343086Y262087D01*
X343025Y262177D01*
X342940Y262255D01*
X342831Y262321D01*
X342698Y262375D01*
X342540Y262417D01*
X342359Y262447D01*
X342153Y262465D01*
X341922Y262471D01*
Y263671D01*
X342153Y263677D01*
X342359Y263695D01*
X342540Y263725D01*
X342698Y263767D01*
X342831Y263821D01*
X342940Y263887D01*
X343025Y263965D01*
X343086Y264055D01*
X343122Y264157D01*
X343134Y264271D01*
Y261871D01*
D02*
G37*
G36*
X478558Y259800D02*
X478411Y259798D01*
X478141Y259772D01*
X478018Y259749D01*
X477903Y259718D01*
X477797Y259680D01*
X477698Y259635D01*
X477608Y259583D01*
X477526Y259524D01*
X477452Y259457D01*
X477027Y259881D01*
X477094Y259956D01*
X477153Y260038D01*
X477205Y260128D01*
X477250Y260227D01*
X477288Y260333D01*
X477319Y260448D01*
X477343Y260571D01*
X477359Y260702D01*
X477368Y260841D01*
X477370Y260988D01*
X478558Y259800D01*
D02*
G37*
G36*
X451188Y259233D02*
X451041Y259231D01*
X450771Y259206D01*
X450648Y259182D01*
X450533Y259151D01*
X450427Y259113D01*
X450328Y259068D01*
X450238Y259016D01*
X450156Y258957D01*
X450081Y258890D01*
X449657Y259314D01*
X449724Y259389D01*
X449783Y259471D01*
X449835Y259561D01*
X449880Y259660D01*
X449918Y259766D01*
X449949Y259881D01*
X449972Y260004D01*
X449989Y260135D01*
X449998Y260274D01*
X450000Y260421D01*
X451188Y259233D01*
D02*
G37*
G36*
X503400Y259200D02*
X502200Y256552D01*
X502191Y256771D01*
X502166Y256949D01*
X502124Y257087D01*
X502064Y257184D01*
X501988Y257239D01*
X501895Y257254D01*
X501784Y257228D01*
X501657Y257160D01*
X501513Y257052D01*
X501351Y256903D01*
Y258600D01*
X501513Y258773D01*
X501657Y258953D01*
X501784Y259141D01*
X501895Y259335D01*
X501988Y259536D01*
X502064Y259745D01*
X502124Y259960D01*
X502166Y260183D01*
X502191Y260412D01*
X502200Y260648D01*
X503400Y259200D01*
D02*
G37*
G36*
X478196Y256260D02*
X478053Y256305D01*
X477434Y256462D01*
X477330Y256478D01*
X477141Y256498D01*
X477056Y256500D01*
X476688Y257100D01*
X476797Y257106D01*
X476898Y257124D01*
X476991Y257154D01*
X477075Y257196D01*
X477151Y257250D01*
X477219Y257316D01*
X477278Y257394D01*
X477330Y257483D01*
X477373Y257585D01*
X477408Y257699D01*
X478196Y256260D01*
D02*
G37*
G36*
X481604Y256216D02*
X481466Y256235D01*
X481335Y256243D01*
X481211Y256242D01*
X481093Y256232D01*
X480982Y256212D01*
X480877Y256182D01*
X480780Y256142D01*
X480689Y256092D01*
X480606Y256033D01*
X480528Y255964D01*
X480172Y256457D01*
X480235Y256526D01*
X480294Y256605D01*
X480349Y256694D01*
X480399Y256791D01*
X480445Y256898D01*
X480487Y257014D01*
X480525Y257140D01*
X480587Y257419D01*
X480612Y257572D01*
X481604Y256216D01*
D02*
G37*
G36*
X442499Y255038D02*
X442385Y255003D01*
X442283Y254960D01*
X442194Y254908D01*
X442116Y254849D01*
X442050Y254781D01*
X441996Y254705D01*
X441954Y254620D01*
X441924Y254528D01*
X441906Y254427D01*
X441900Y254318D01*
X441300Y254686D01*
X441298Y254771D01*
X441278Y254960D01*
X441262Y255064D01*
X441182Y255416D01*
X441105Y255683D01*
X441060Y255826D01*
X442499Y255038D01*
D02*
G37*
G36*
X444206Y252271D02*
X444091Y252224D01*
X443988Y252170D01*
X443897Y252110D01*
X443818Y252042D01*
X443752Y251968D01*
X443697Y251887D01*
X443655Y251800D01*
X443624Y251706D01*
X443606Y251605D01*
X443600Y251497D01*
X443000Y251589D01*
X442997Y251705D01*
X442972Y251951D01*
X442949Y252081D01*
X442886Y252355D01*
X442798Y252648D01*
X442684Y252960D01*
X444206Y252271D01*
D02*
G37*
G36*
X343954Y251004D02*
X343670Y251283D01*
X343121Y251752D01*
X342856Y251943D01*
X342597Y252104D01*
X342345Y252236D01*
X342099Y252339D01*
X341860Y252412D01*
X341627Y252456D01*
X341400Y252471D01*
Y253671D01*
X341627Y253685D01*
X341860Y253730D01*
X342099Y253803D01*
X342345Y253906D01*
X342597Y254038D01*
X342856Y254199D01*
X343121Y254390D01*
X343392Y254610D01*
X343954Y255138D01*
Y251004D01*
D02*
G37*
G36*
X495810Y250726D02*
X495853Y250451D01*
X495884Y250327D01*
X495920Y250211D01*
X495962Y250104D01*
X496009Y250006D01*
X496063Y249916D01*
X496122Y249835D01*
X496187Y249763D01*
X495795Y249306D01*
X495719Y249374D01*
X495636Y249433D01*
X495545Y249484D01*
X495447Y249527D01*
X495342Y249561D01*
X495228Y249586D01*
X495108Y249603D01*
X494980Y249612D01*
X494844Y249612D01*
X494701Y249604D01*
X495797Y250877D01*
X495810Y250726D01*
D02*
G37*
G36*
X445455Y249401D02*
X445349Y249391D01*
X445255Y249369D01*
X445172Y249336D01*
X445100Y249291D01*
X445039Y249236D01*
X444989Y249169D01*
X444950Y249091D01*
X444922Y249001D01*
X444906Y248901D01*
X444900Y248789D01*
X444300Y248986D01*
X444299Y249175D01*
X444236Y250288D01*
X444221Y250376D01*
X445455Y249401D01*
D02*
G37*
G36*
X446667Y246647D02*
X446605Y246660D01*
X446543Y246665D01*
X446479Y246661D01*
X446415Y246648D01*
X446350Y246627D01*
X446284Y246596D01*
X446217Y246557D01*
X446150Y246510D01*
X446081Y246453D01*
X446012Y246388D01*
X445588Y246812D01*
X445653Y246881D01*
X445710Y246950D01*
X445757Y247017D01*
X445796Y247084D01*
X445827Y247150D01*
X445848Y247215D01*
X445861Y247279D01*
X445865Y247343D01*
X445860Y247405D01*
X445847Y247467D01*
X446667Y246647D01*
D02*
G37*
G36*
X498277Y247680D02*
X498359Y247621D01*
X498450Y247569D01*
X498548Y247524D01*
X498655Y247486D01*
X498769Y247455D01*
X498892Y247432D01*
X499023Y247415D01*
X499162Y247406D01*
X499309Y247404D01*
X498121Y246216D01*
X498119Y246363D01*
X498094Y246633D01*
X498070Y246756D01*
X498039Y246871D01*
X498002Y246977D01*
X497957Y247076D01*
X497904Y247166D01*
X497845Y247249D01*
X497779Y247323D01*
X498203Y247747D01*
X498277Y247680D01*
D02*
G37*
G36*
X464939Y247630D02*
X465148Y247457D01*
X465251Y247387D01*
X465354Y247327D01*
X465456Y247279D01*
X465558Y247241D01*
X465659Y247214D01*
X465759Y247198D01*
X465858Y247192D01*
Y246592D01*
X465759Y246587D01*
X465659Y246571D01*
X465558Y246544D01*
X465456Y246506D01*
X465354Y246457D01*
X465251Y246398D01*
X465148Y246328D01*
X465044Y246247D01*
X464939Y246155D01*
X464833Y246052D01*
Y247732D01*
X464939Y247630D01*
D02*
G37*
G36*
X467163Y244937D02*
X467372Y244765D01*
X467475Y244694D01*
X467578Y244635D01*
X467680Y244586D01*
X467781Y244549D01*
X467882Y244522D01*
X467982Y244505D01*
X468082Y244500D01*
Y243900D01*
X467982Y243895D01*
X467882Y243878D01*
X467781Y243851D01*
X467680Y243814D01*
X467578Y243765D01*
X467475Y243706D01*
X467372Y243635D01*
X467267Y243554D01*
X467163Y243463D01*
X467057Y243360D01*
Y245040D01*
X467163Y244937D01*
D02*
G37*
G36*
X525486Y241775D02*
X525384Y241739D01*
X525294Y241678D01*
X525216Y241593D01*
X525150Y241484D01*
X525096Y241351D01*
X525054Y241193D01*
X525024Y241011D01*
X525006Y240805D01*
X525000Y240575D01*
X523800D01*
X523794Y240805D01*
X523776Y241011D01*
X523746Y241193D01*
X523704Y241351D01*
X523650Y241484D01*
X523584Y241593D01*
X523506Y241678D01*
X523416Y241739D01*
X523314Y241775D01*
X523200Y241787D01*
X525600D01*
X525486Y241775D01*
D02*
G37*
G36*
X346034Y240118D02*
X345557Y240117D01*
X344352Y240036D01*
X344024Y239983D01*
X343734Y239918D01*
X343481Y239840D01*
X343265Y239749D01*
X343087Y239645D01*
X342945Y239529D01*
X342521Y239953D01*
X342637Y240095D01*
X342741Y240273D01*
X342832Y240489D01*
X342910Y240742D01*
X342975Y241032D01*
X343028Y241360D01*
X343095Y242126D01*
X343109Y242565D01*
X343110Y243041D01*
X346034Y240118D01*
D02*
G37*
G36*
X456602Y240239D02*
X456622Y240007D01*
X456638Y239904D01*
X456660Y239809D01*
X456686Y239723D01*
X456718Y239646D01*
X456754Y239578D01*
X456794Y239518D01*
X456840Y239466D01*
X455160D01*
X455206Y239518D01*
X455246Y239578D01*
X455282Y239646D01*
X455314Y239723D01*
X455340Y239809D01*
X455362Y239904D01*
X455378Y240007D01*
X455390Y240119D01*
X455400Y240369D01*
X456600D01*
X456602Y240239D01*
D02*
G37*
G36*
X525006Y239207D02*
X525024Y239001D01*
X525054Y238820D01*
X525096Y238662D01*
X525150Y238529D01*
X525216Y238420D01*
X525294Y238335D01*
X525384Y238274D01*
X525486Y238238D01*
X525600Y238226D01*
X523200D01*
X523314Y238238D01*
X523416Y238274D01*
X523506Y238335D01*
X523584Y238420D01*
X523650Y238529D01*
X523704Y238662D01*
X523746Y238820D01*
X523776Y239001D01*
X523794Y239207D01*
X523800Y239438D01*
X525000D01*
X525006Y239207D01*
D02*
G37*
G36*
X501468Y238868D02*
X501379Y238775D01*
X501228Y238598D01*
X501167Y238513D01*
X501115Y238431D01*
X501073Y238351D01*
X501041Y238275D01*
X501018Y238201D01*
X501004Y238129D01*
X501000Y238061D01*
X499812Y239249D01*
X499881Y239253D01*
X499952Y239266D01*
X500026Y239289D01*
X500103Y239322D01*
X500182Y239364D01*
X500264Y239416D01*
X500349Y239477D01*
X500436Y239547D01*
X500620Y239717D01*
X501468Y238868D01*
D02*
G37*
G36*
X456794Y237701D02*
X456754Y237641D01*
X456718Y237572D01*
X456686Y237495D01*
X456660Y237409D01*
X456638Y237315D01*
X456622Y237211D01*
X456610Y237100D01*
X456600Y236850D01*
X455400D01*
X455398Y236979D01*
X455378Y237211D01*
X455362Y237315D01*
X455340Y237409D01*
X455314Y237495D01*
X455282Y237572D01*
X455246Y237641D01*
X455206Y237701D01*
X455160Y237752D01*
X456840D01*
X456794Y237701D01*
D02*
G37*
G36*
X524266Y234907D02*
X524096Y234881D01*
X523927Y234839D01*
X523757Y234779D01*
X523587Y234703D01*
X523418Y234610D01*
X523248Y234499D01*
X523078Y234372D01*
X522908Y234228D01*
X522739Y234067D01*
X521042D01*
X521853Y234915D01*
X524436D01*
X524266Y234907D01*
D02*
G37*
G36*
X506743Y233760D02*
X506637Y233863D01*
X506428Y234035D01*
X506325Y234106D01*
X506222Y234165D01*
X506120Y234214D01*
X506018Y234251D01*
X505918Y234278D01*
X505818Y234295D01*
X505718Y234300D01*
Y234900D01*
X505818Y234905D01*
X505918Y234922D01*
X506018Y234949D01*
X506120Y234986D01*
X506222Y235035D01*
X506325Y235094D01*
X506428Y235165D01*
X506533Y235246D01*
X506637Y235337D01*
X506743Y235440D01*
Y233760D01*
D02*
G37*
G36*
X346034Y230118D02*
X345557Y230117D01*
X344352Y230036D01*
X344024Y229983D01*
X343734Y229918D01*
X343481Y229840D01*
X343265Y229749D01*
X343087Y229645D01*
X342945Y229529D01*
X342521Y229953D01*
X342637Y230095D01*
X342741Y230273D01*
X342832Y230489D01*
X342910Y230742D01*
X342975Y231032D01*
X343028Y231360D01*
X343095Y232126D01*
X343109Y232565D01*
X343110Y233041D01*
X346034Y230118D01*
D02*
G37*
G36*
X506743Y228960D02*
X506637Y229063D01*
X506428Y229235D01*
X506325Y229306D01*
X506222Y229365D01*
X506120Y229414D01*
X506018Y229451D01*
X505918Y229478D01*
X505818Y229495D01*
X505718Y229500D01*
Y230100D01*
X505818Y230105D01*
X505918Y230122D01*
X506018Y230149D01*
X506120Y230186D01*
X506222Y230235D01*
X506325Y230294D01*
X506428Y230365D01*
X506533Y230446D01*
X506637Y230537D01*
X506743Y230640D01*
Y228960D01*
D02*
G37*
G36*
X525486Y226635D02*
X525384Y226599D01*
X525294Y226539D01*
X525216Y226455D01*
X525150Y226347D01*
X525096Y226215D01*
X525054Y226059D01*
X525024Y225879D01*
X525006Y225675D01*
X525000Y225447D01*
X523800D01*
X523794Y225675D01*
X523776Y225879D01*
X523746Y226059D01*
X523704Y226215D01*
X523650Y226347D01*
X523584Y226455D01*
X523506Y226539D01*
X523416Y226599D01*
X523314Y226635D01*
X523200Y226647D01*
X525600D01*
X525486Y226635D01*
D02*
G37*
G36*
X525006Y224358D02*
X525024Y224152D01*
X525054Y223970D01*
X525096Y223812D01*
X525150Y223679D01*
X525216Y223570D01*
X525294Y223485D01*
X525384Y223425D01*
X525486Y223388D01*
X525600Y223376D01*
X523200D01*
X523314Y223388D01*
X523416Y223425D01*
X523506Y223485D01*
X523584Y223570D01*
X523650Y223679D01*
X523704Y223812D01*
X523746Y223970D01*
X523776Y224152D01*
X523794Y224358D01*
X523800Y224588D01*
X525000D01*
X525006Y224358D01*
D02*
G37*
G36*
X346034Y220118D02*
X345557Y220117D01*
X344352Y220036D01*
X344024Y219983D01*
X343734Y219918D01*
X343481Y219840D01*
X343265Y219749D01*
X343087Y219645D01*
X342945Y219529D01*
X342521Y219953D01*
X342637Y220095D01*
X342741Y220273D01*
X342832Y220489D01*
X342910Y220742D01*
X342975Y221032D01*
X343028Y221360D01*
X343095Y222126D01*
X343109Y222565D01*
X343110Y223041D01*
X346034Y220118D01*
D02*
G37*
G36*
X525486Y213412D02*
X525384Y213375D01*
X525294Y213315D01*
X525216Y213230D01*
X525150Y213121D01*
X525096Y212988D01*
X525054Y212830D01*
X525024Y212648D01*
X525006Y212442D01*
X525000Y212212D01*
X523800D01*
X523794Y212442D01*
X523776Y212648D01*
X523746Y212830D01*
X523704Y212988D01*
X523650Y213121D01*
X523584Y213230D01*
X523506Y213315D01*
X523416Y213375D01*
X523314Y213412D01*
X523200Y213424D01*
X525600D01*
X525486Y213412D01*
D02*
G37*
G36*
X346034Y210118D02*
X345557Y210117D01*
X344352Y210036D01*
X344024Y209983D01*
X343734Y209918D01*
X343481Y209840D01*
X343265Y209749D01*
X343087Y209645D01*
X342945Y209529D01*
X342521Y209953D01*
X342637Y210095D01*
X342741Y210273D01*
X342832Y210489D01*
X342910Y210742D01*
X342975Y211032D01*
X343028Y211360D01*
X343095Y212126D01*
X343109Y212565D01*
X343110Y213041D01*
X346034Y210118D01*
D02*
G37*
G36*
X405756Y207821D02*
X405845Y207785D01*
X405944Y207754D01*
X406048Y207731D01*
X406157Y207714D01*
X406273Y207703D01*
X406394Y207700D01*
Y206700D01*
X406273Y206697D01*
X406157Y206686D01*
X406048Y206669D01*
X405944Y206646D01*
X405845Y206615D01*
X405756Y206579D01*
Y206200D01*
X405746Y206295D01*
X405716Y206380D01*
X405665Y206455D01*
X405616Y206502D01*
X405585Y206482D01*
X405510Y206425D01*
X405440Y206360D01*
Y206602D01*
X405396Y206620D01*
X405266Y206655D01*
X405116Y206680D01*
X404946Y206695D01*
X404755Y206700D01*
Y207700D01*
X404946Y207705D01*
X405116Y207720D01*
X405266Y207745D01*
X405396Y207780D01*
X405440Y207798D01*
Y208040D01*
X405510Y207975D01*
X405585Y207918D01*
X405616Y207898D01*
X405665Y207945D01*
X405716Y208020D01*
X405746Y208105D01*
X405756Y208200D01*
Y207821D01*
D02*
G37*
G36*
X394889Y209286D02*
X394787Y209191D01*
X394696Y209079D01*
X394617Y208950D01*
X394550Y208805D01*
X394496Y208643D01*
X394453Y208465D01*
X394423Y208269D01*
X394405Y208057D01*
X394399Y207828D01*
X393466Y207290D01*
X394399Y206752D01*
X394405Y206523D01*
X394423Y206311D01*
X394453Y206115D01*
X394496Y205937D01*
X394550Y205775D01*
X394617Y205629D01*
X394696Y205501D01*
X394787Y205389D01*
X394889Y205294D01*
X395005Y205216D01*
X392605Y206602D01*
X392718Y206548D01*
X392818Y206525D01*
X392908Y206533D01*
X392985Y206572D01*
X393050Y206641D01*
X393104Y206740D01*
X393145Y206871D01*
X393175Y207031D01*
X393193Y207223D01*
X393195Y207290D01*
X393193Y207357D01*
X393175Y207549D01*
X393145Y207709D01*
X393104Y207840D01*
X393050Y207939D01*
X392985Y208008D01*
X392908Y208047D01*
X392818Y208055D01*
X392718Y208032D01*
X392605Y207979D01*
X395005Y209364D01*
X394889Y209286D01*
D02*
G37*
G36*
X397488Y204786D02*
X397536Y204739D01*
X397488Y204691D01*
Y204653D01*
X397479Y204651D01*
X397454Y204632D01*
X397411Y204596D01*
X396800Y204003D01*
X396639Y203842D01*
Y204260D01*
X395296Y205048D01*
X395406Y204996D01*
X395523Y204968D01*
X395646Y204963D01*
X395774Y204981D01*
X395909Y205022D01*
X396051Y205086D01*
X396198Y205174D01*
X396351Y205285D01*
X396510Y205418D01*
X396657Y205558D01*
X396800Y205709D01*
X396945Y205878D01*
X397072Y206048D01*
X397182Y206218D01*
X397276Y206387D01*
X397352Y206557D01*
X397411Y206727D01*
X397454Y206896D01*
X397479Y207066D01*
X397488Y207236D01*
Y204786D01*
D02*
G37*
G36*
X400808Y207068D02*
X400834Y206899D01*
X400877Y206730D01*
X400938Y206561D01*
X401015Y206391D01*
X401110Y206222D01*
X401222Y206051D01*
X401350Y205881D01*
X401496Y205710D01*
X401659Y205539D01*
Y203842D01*
X400810Y204653D01*
X400798Y207236D01*
X400808Y207068D01*
D02*
G37*
G36*
X390762Y203815D02*
X390771Y203850D01*
X390753Y203882D01*
X390709Y203909D01*
X390639Y203933D01*
X390542Y203954D01*
X390420Y203970D01*
X390097Y203993D01*
X389669Y204000D01*
X390362Y205200D01*
X390595Y205206D01*
X390811Y205224D01*
X391010Y205254D01*
X391192Y205295D01*
X391356Y205348D01*
X391503Y205414D01*
X391633Y205491D01*
X391745Y205580D01*
X391841Y205681D01*
X391919Y205794D01*
X390762Y203815D01*
D02*
G37*
G36*
X383868Y205420D02*
X383779Y205327D01*
X383682Y205213D01*
X383710Y205210D01*
X383959Y205200D01*
Y204000D01*
X383830Y203998D01*
X383598Y203978D01*
X383495Y203962D01*
X383400Y203940D01*
X383314Y203914D01*
X383237Y203882D01*
X383168Y203846D01*
X383108Y203806D01*
X383057Y203760D01*
Y204955D01*
X382212Y205800D01*
X382281Y205804D01*
X382352Y205818D01*
X382426Y205841D01*
X382503Y205873D01*
X382582Y205915D01*
X382664Y205967D01*
X382749Y206028D01*
X382837Y206099D01*
X383020Y206268D01*
X383868Y205420D01*
D02*
G37*
G36*
X525002Y204430D02*
X525022Y204198D01*
X525038Y204095D01*
X525060Y204000D01*
X525086Y203914D01*
X525118Y203837D01*
X525154Y203768D01*
X525194Y203708D01*
X525240Y203657D01*
X523560D01*
X523606Y203708D01*
X523646Y203768D01*
X523682Y203837D01*
X523714Y203914D01*
X523740Y204000D01*
X523762Y204095D01*
X523778Y204198D01*
X523790Y204310D01*
X523800Y204559D01*
X525000D01*
X525002Y204430D01*
D02*
G37*
G36*
X319802D02*
X319822Y204198D01*
X319838Y204095D01*
X319860Y204000D01*
X319886Y203914D01*
X319918Y203837D01*
X319954Y203768D01*
X319994Y203708D01*
X320040Y203657D01*
X318360D01*
X318406Y203708D01*
X318446Y203768D01*
X318482Y203837D01*
X318514Y203914D01*
X318540Y204000D01*
X318562Y204095D01*
X318578Y204198D01*
X318590Y204310D01*
X318600Y204559D01*
X319800D01*
X319802Y204430D01*
D02*
G37*
G36*
X498943Y198360D02*
X498892Y198406D01*
X498832Y198446D01*
X498763Y198482D01*
X498686Y198514D01*
X498600Y198540D01*
X498505Y198562D01*
X498402Y198578D01*
X498290Y198590D01*
X498041Y198600D01*
Y199800D01*
X498170Y199802D01*
X498402Y199822D01*
X498505Y199838D01*
X498600Y199860D01*
X498686Y199886D01*
X498763Y199918D01*
X498832Y199954D01*
X498892Y199994D01*
X498943Y200040D01*
Y198360D01*
D02*
G37*
G36*
X424683Y186680D02*
X424632Y186725D01*
X424572Y186766D01*
X424503Y186802D01*
X424426Y186833D01*
X424340Y186860D01*
X424246Y186881D01*
X424142Y186898D01*
X424030Y186910D01*
X423781Y186920D01*
Y188120D01*
X423910Y188122D01*
X424142Y188141D01*
X424246Y188158D01*
X424340Y188180D01*
X424426Y188206D01*
X424503Y188237D01*
X424572Y188273D01*
X424632Y188314D01*
X424683Y188360D01*
Y186680D01*
D02*
G37*
G36*
X514202Y187030D02*
X514222Y186798D01*
X514238Y186695D01*
X514260Y186600D01*
X514286Y186514D01*
X514318Y186437D01*
X514354Y186368D01*
X514394Y186308D01*
X514440Y186257D01*
X512760D01*
X512806Y186308D01*
X512846Y186368D01*
X512882Y186437D01*
X512914Y186514D01*
X512940Y186600D01*
X512962Y186695D01*
X512978Y186798D01*
X512990Y186910D01*
X513000Y187159D01*
X514200D01*
X514202Y187030D01*
D02*
G37*
G36*
X366364Y173620D02*
X366373Y173519D01*
X366388Y173428D01*
X366409Y173351D01*
X366436Y173284D01*
X366469Y173230D01*
X366508Y173188D01*
X366553Y173158D01*
X366604Y173141D01*
X366661Y173134D01*
X365461D01*
X365518Y173141D01*
X365569Y173158D01*
X365614Y173188D01*
X365653Y173230D01*
X365686Y173284D01*
X365713Y173351D01*
X365734Y173428D01*
X365749Y173519D01*
X365758Y173620D01*
X365761Y173734D01*
X366361D01*
X366364Y173620D01*
D02*
G37*
G36*
X361442D02*
X361451Y173519D01*
X361466Y173428D01*
X361487Y173351D01*
X361514Y173284D01*
X361547Y173230D01*
X361586Y173188D01*
X361631Y173158D01*
X361682Y173141D01*
X361739Y173134D01*
X360539D01*
X360596Y173141D01*
X360647Y173158D01*
X360692Y173188D01*
X360731Y173230D01*
X360764Y173284D01*
X360791Y173351D01*
X360812Y173428D01*
X360827Y173519D01*
X360836Y173620D01*
X360839Y173734D01*
X361439D01*
X361442Y173620D01*
D02*
G37*
G36*
X356521D02*
X356530Y173519D01*
X356545Y173428D01*
X356566Y173351D01*
X356593Y173284D01*
X356626Y173230D01*
X356665Y173188D01*
X356710Y173158D01*
X356761Y173141D01*
X356818Y173134D01*
X355618D01*
X355675Y173141D01*
X355726Y173158D01*
X355771Y173188D01*
X355810Y173230D01*
X355843Y173284D01*
X355870Y173351D01*
X355891Y173428D01*
X355906Y173519D01*
X355915Y173620D01*
X355918Y173734D01*
X356518D01*
X356521Y173620D01*
D02*
G37*
G36*
X361441Y172556D02*
X361500Y171654D01*
X361519Y171576D01*
X361540Y171520D01*
X361564Y171485D01*
X360715D01*
X360738Y171520D01*
X360760Y171576D01*
X360778Y171654D01*
X360794Y171752D01*
X360820Y172011D01*
X360838Y172556D01*
X360839Y172780D01*
X361439D01*
X361441Y172556D01*
D02*
G37*
G36*
X350140Y170416D02*
X350202Y170422D01*
X350305Y170438D01*
X350400Y170460D01*
X350486Y170486D01*
X350563Y170518D01*
X350632Y170554D01*
X350692Y170594D01*
X350743Y170640D01*
Y168960D01*
X350692Y169006D01*
X350632Y169046D01*
X350563Y169082D01*
X350486Y169114D01*
X350400Y169140D01*
X350305Y169162D01*
X350202Y169178D01*
X350140Y169185D01*
Y168600D01*
X350128Y168714D01*
X350091Y168816D01*
X350031Y168906D01*
X349946Y168984D01*
X349837Y169050D01*
X349703Y169104D01*
X349546Y169146D01*
X349364Y169176D01*
X349158Y169194D01*
X348928Y169200D01*
Y170400D01*
X349158Y170406D01*
X349364Y170424D01*
X349546Y170454D01*
X349703Y170496D01*
X349837Y170550D01*
X349946Y170616D01*
X350031Y170694D01*
X350091Y170784D01*
X350128Y170886D01*
X350140Y171000D01*
Y170416D01*
D02*
G37*
G36*
X376394Y168892D02*
X376354Y168832D01*
X376318Y168763D01*
X376286Y168686D01*
X376260Y168600D01*
X376238Y168505D01*
X376222Y168402D01*
X376210Y168290D01*
X376200Y168041D01*
X375000D01*
X374998Y168170D01*
X374978Y168402D01*
X374962Y168505D01*
X374940Y168600D01*
X374914Y168686D01*
X374882Y168763D01*
X374846Y168832D01*
X374806Y168892D01*
X374760Y168943D01*
X376440D01*
X376394Y168892D01*
D02*
G37*
G36*
X376686Y166465D02*
X376584Y166428D01*
X376494Y166367D01*
X376416Y166282D01*
X376350Y166173D01*
X376296Y166040D01*
X376254Y165882D01*
X376224Y165701D01*
X376206Y165495D01*
X376200Y165266D01*
X375000D01*
X374997Y165494D01*
X374957Y166033D01*
X374934Y166166D01*
X374904Y166274D01*
X374870Y166358D01*
X374830Y166418D01*
X374785Y166454D01*
X374734Y166466D01*
X376800Y166478D01*
X376686Y166465D01*
D02*
G37*
G36*
X376202Y156430D02*
X376222Y156198D01*
X376238Y156095D01*
X376260Y156000D01*
X376286Y155914D01*
X376318Y155837D01*
X376354Y155768D01*
X376394Y155708D01*
X376440Y155657D01*
X374760D01*
X374806Y155708D01*
X374846Y155768D01*
X374882Y155837D01*
X374914Y155914D01*
X374940Y156000D01*
X374962Y156095D01*
X374978Y156198D01*
X374990Y156310D01*
X375000Y156559D01*
X376200D01*
X376202Y156430D01*
D02*
G37*
D11*
X524400Y215150D02*
Y217900D01*
Y215150D02*
X527150D01*
X524400Y200600D02*
Y202800D01*
X522200D02*
X524400D01*
X526600D01*
X521650Y215150D02*
X524400D01*
X446400Y270600D02*
X448600D01*
X446400Y268400D02*
Y270600D01*
Y272800D01*
X437517Y285608D02*
Y288358D01*
Y285608D02*
X440268D01*
X437517Y280517D02*
X440268D01*
X453600Y231600D02*
Y233800D01*
Y219800D02*
Y222000D01*
X404583Y207200D02*
X407417D01*
D13*
X530645Y278740D02*
G03*
X530645Y278740I-8774J0D01*
G01*
X522593Y249131D02*
G03*
X526207Y249131I1807J1069D01*
G01*
X505720Y285469D02*
G03*
X505720Y285469I-2376J0D01*
G01*
X508500Y279000D02*
G03*
X504302Y279092I-2100J0D01*
G01*
X506492Y276902D02*
G03*
X508500Y279000I-92J2098D01*
G01*
X504600Y276000D02*
G03*
X505448Y276351I0J1200D01*
G01*
X504600Y276000D02*
G03*
X505448Y276351I0J1200D01*
G01*
X504300Y268476D02*
G03*
X503861Y269536I-1500J0D01*
G01*
X504300Y268476D02*
G03*
X503861Y269537I-1500J0D01*
G01*
X501460Y271937D02*
G03*
X500400Y272376I-1060J-1061D01*
G01*
X501461Y271937D02*
G03*
X500400Y272376I-1061J-1061D01*
G01*
X498633Y285469D02*
G03*
X498633Y285469I-2376J0D01*
G01*
X496401Y272441D02*
G03*
X493599Y272441I-1401J-1564D01*
G01*
X485405Y272376D02*
G03*
X484345Y271937I0J-1500D01*
G01*
X485405Y272376D02*
G03*
X484345Y271937I0J-1500D01*
G01*
X493599Y269312D02*
G03*
X496401Y269312I1401J1564D01*
G01*
X479129Y263100D02*
G03*
X480190Y263539I0J1500D01*
G01*
X479129Y263100D02*
G03*
X480189Y263539I0J1500D01*
G01*
X480670Y261000D02*
G03*
X478570Y263100I-2100J0D01*
G01*
X479652Y259200D02*
G03*
X480670Y261000I-1082J1800D01*
G01*
X497000Y251900D02*
G03*
X498060Y252339I0J1500D01*
G01*
X497000Y251900D02*
G03*
X498061Y252339I0J1500D01*
G01*
X496686Y251046D02*
G03*
X496389Y251900I-2086J-246D01*
G01*
X501300Y246908D02*
G03*
X499414Y248302I-1979J-704D01*
G01*
X497223Y246112D02*
G03*
X501300Y245501I2098J92D01*
G01*
X495800Y240606D02*
G03*
X495448Y241454I-1200J0D01*
G01*
X483900Y257400D02*
G03*
X480185Y258742I-2100J0D01*
G01*
X481573Y255312D02*
G03*
X483900Y257400I227J2088D01*
G01*
X480185Y258742D02*
G03*
X479652Y259200I-1615J-1342D01*
G01*
X492811Y251900D02*
G03*
X494662Y248701I1789J-1100D01*
G01*
X489162Y247741D02*
G03*
X488313Y248092I-848J-848D01*
G01*
X489162Y247741D02*
G03*
X488313Y248092I-848J-848D01*
G01*
X526900Y202800D02*
G03*
X525900Y204800I-2500J0D01*
G01*
X522900D02*
G03*
X526900Y202800I1500J-2000D01*
G01*
X503861Y239989D02*
G03*
X504300Y241049I-1061J1060D01*
G01*
X503861Y239988D02*
G03*
X504300Y241049I-1061J1061D01*
G01*
X509700Y234600D02*
G03*
X506182Y236149I-2100J0D01*
G01*
X506182Y233051D02*
G03*
X509700Y234600I1418J1549D01*
G01*
Y229800D02*
G03*
X506182Y231349I-2100J0D01*
G01*
X506182Y228251D02*
G03*
X509700Y229800I1418J1549D01*
G01*
X495800Y240606D02*
G03*
X495448Y241454I-1200J0D01*
G01*
X499684Y240146D02*
G03*
X501897Y237933I116J-2097D01*
G01*
X492000Y236400D02*
G03*
X492351Y235552I1200J0D01*
G01*
X492000Y236400D02*
G03*
X492351Y235552I1200J0D01*
G01*
X498951Y228952D02*
G03*
X499800Y228600I848J848D01*
G01*
X498951Y228952D02*
G03*
X499800Y228600I848J848D01*
G01*
X512539Y226837D02*
G03*
X512100Y225776I1061J-1061D01*
G01*
X512539Y226836D02*
G03*
X512100Y225776I1061J-1060D01*
G01*
X501900Y199200D02*
G03*
X498399Y200764I-2100J0D01*
G01*
Y197635D02*
G03*
X501900Y199200I1401J1564D01*
G01*
X476618Y278749D02*
G03*
X476618Y275651I-1418J-1549D01*
G01*
X459297Y271916D02*
G03*
X457084Y269703I-2097J-116D01*
G01*
X471000Y266100D02*
G03*
X469940Y265661I0J-1500D01*
G01*
X471000Y266100D02*
G03*
X469939Y265661I0J-1500D01*
G01*
X469084Y264897D02*
G03*
X467799Y264365I116J-2097D01*
G01*
X478570Y263100D02*
G03*
X476472Y261092I0J-2100D01*
G01*
X467799Y261235D02*
G03*
X471297Y262684I1401J1564D01*
G01*
X465139Y261739D02*
G03*
X466200Y261300I1061J1061D01*
G01*
X465140Y261739D02*
G03*
X466200Y261300I1060J1061D01*
G01*
X460406Y259200D02*
G03*
X459557Y258849I0J-1200D01*
G01*
X465395Y248441D02*
G03*
X464188Y244803I-1418J-1549D01*
G01*
X464188Y244803D02*
G03*
X467618Y242651I2011J-603D01*
G01*
X460406Y259200D02*
G03*
X459557Y258849I0J-1200D01*
G01*
X453300Y260433D02*
G03*
X449102Y260525I-2100J0D01*
G01*
X444400Y269100D02*
G03*
X448900Y270600I2000J1500D01*
G01*
D02*
G03*
X444400Y272100I-2500J0D01*
G01*
X451292Y258335D02*
G03*
X453300Y260433I-92J2098D01*
G01*
X448552Y259482D02*
G03*
X448200Y258633I848J-848D01*
G01*
X448552Y259482D02*
G03*
X448200Y258633I848J-848D01*
G01*
X444300Y256200D02*
G03*
X440171Y255659I-2100J0D01*
G01*
X444168Y255468D02*
G03*
X444300Y256200I-1968J733D01*
G01*
X445768Y252667D02*
G03*
X445900Y253400I-1968J733D01*
G01*
X447368Y249868D02*
G03*
X447500Y250600I-1968J733D01*
G01*
X448200Y249523D02*
G03*
X447368Y249868I-1200J-1723D01*
G01*
X453849Y244260D02*
G03*
X454200Y245109I-848J848D01*
G01*
X453849Y244260D02*
G03*
X454200Y245109I-848J848D01*
G01*
X445900Y253400D02*
G03*
X444168Y255468I-2100J0D01*
G01*
X447500Y250600D02*
G03*
X445768Y252667I-2100J0D01*
G01*
X458100Y238609D02*
G03*
X457564Y240010I-2100J0D01*
G01*
Y237208D02*
G03*
X458100Y238609I-1564J1401D01*
G01*
X454500Y233932D02*
G03*
X451800Y233335I-900J-2332D01*
G01*
Y220265D02*
G03*
X454500Y219668I1800J1735D01*
G01*
Y204103D02*
G03*
X454939Y203043I1500J0D01*
G01*
X454500Y204103D02*
G03*
X454939Y203042I1500J0D01*
G01*
X459843Y198139D02*
G03*
X460903Y197700I1060J1061D01*
G01*
X459842Y198139D02*
G03*
X460903Y197700I1061J1061D01*
G01*
X454435Y240010D02*
G03*
X454435Y237208I1564J-1401D01*
G01*
X451800Y229865D02*
G03*
X452100Y229600I1800J1735D01*
G01*
Y224000D02*
G03*
X451800Y223735I1500J-2000D01*
G01*
X526490Y286200D02*
X533400D01*
X527341Y285600D02*
X533400D01*
X523282Y287400D02*
X533400D01*
X525338Y286800D02*
X533400D01*
X529039Y283800D02*
X533400D01*
X529427Y283200D02*
X533400D01*
X528019Y285000D02*
X533400D01*
X528575Y284400D02*
X533400D01*
X530232Y281400D02*
X533400D01*
X530400Y280800D02*
X533400D01*
X529750Y282600D02*
X533400D01*
X530017Y282000D02*
X533400D01*
X530603Y279600D02*
X533400D01*
X530641Y279000D02*
X533400D01*
X507482Y280800D02*
X513342D01*
X530523Y280200D02*
X533400D01*
X530638Y278400D02*
X533400D01*
X530594Y277800D02*
X533400D01*
X530509Y277200D02*
X533400D01*
X530380Y276600D02*
X533400D01*
X530206Y276000D02*
X533400D01*
X529984Y275400D02*
X533400D01*
X529710Y274800D02*
X533400D01*
X529379Y274200D02*
X533400D01*
X528982Y273600D02*
X533400D01*
X528507Y273000D02*
X533400D01*
X527936Y272400D02*
X533400D01*
X527239Y271800D02*
X533400D01*
X526358Y271200D02*
X533400D01*
X525145Y270600D02*
X533400D01*
X522641Y270000D02*
X533400D01*
X505312Y286800D02*
X518404D01*
X505605Y286200D02*
X517252D01*
X504729Y287400D02*
X520460D01*
X501597Y271800D02*
X516503D01*
X503398Y270000D02*
X521101D01*
X503982Y269400D02*
X533400D01*
X502198Y271200D02*
X517384D01*
X502798Y270600D02*
X518597D01*
X505716Y285600D02*
X516400D01*
X505673Y285000D02*
X515723D01*
X505466Y284400D02*
X515166D01*
X505035Y283800D02*
X514703D01*
X505697Y276600D02*
X513362D01*
X504600Y276000D02*
X513536D01*
X504049Y283200D02*
X514315D01*
X496617Y272400D02*
X515806D01*
X504300Y263400D02*
X533400D01*
X504300Y262800D02*
X533400D01*
X504300Y264600D02*
X533400D01*
X504300Y264000D02*
X533400D01*
X504300Y261000D02*
X533400D01*
X504300Y260400D02*
X533400D01*
X504300Y262200D02*
X533400D01*
X504300Y261600D02*
X533400D01*
X504300Y267600D02*
X533400D01*
X504300Y267000D02*
X533400D01*
X504265Y268800D02*
X533400D01*
X504300Y268200D02*
X533400D01*
X504300Y265800D02*
X533400D01*
X504300Y265200D02*
X533400D01*
X504300Y266400D02*
X533400D01*
X527859Y253200D02*
X533400D01*
X527859Y252600D02*
X533400D01*
X504312Y259200D02*
X533400D01*
X527859Y253800D02*
X533400D01*
X527859Y250800D02*
X533400D01*
X527859Y250200D02*
X533400D01*
X527859Y252000D02*
X533400D01*
X527859Y251400D02*
X533400D01*
X527859Y249600D02*
X533400D01*
X527859Y249131D02*
Y254277D01*
X520941D02*
X527859D01*
X520941Y249131D02*
Y254277D01*
X526207Y249131D02*
X527859D01*
X526123Y249000D02*
X533400D01*
X520941Y249131D02*
X522593D01*
X525482Y248400D02*
X533400D01*
X527859Y244800D02*
X533400D01*
X527859Y244200D02*
X533400D01*
X527859Y246000D02*
X533400D01*
X527859Y245400D02*
X533400D01*
X527859Y242400D02*
X533400D01*
X527859Y241200D02*
X533400D01*
X527859Y243600D02*
X533400D01*
X527859Y243000D02*
X533400D01*
X527859Y240863D02*
Y246009D01*
X520941D02*
X527859D01*
X520941Y240863D02*
Y246009D01*
X527859Y241800D02*
X533400D01*
X525932Y240863D02*
X527859D01*
X520941D02*
X522868D01*
X504300Y258000D02*
X533400D01*
X504300Y257400D02*
X533400D01*
X504300Y259800D02*
X533400D01*
X504300Y258600D02*
X533400D01*
X504300Y255600D02*
X533400D01*
X504300Y255000D02*
X533400D01*
X504300Y256800D02*
X533400D01*
X504300Y256200D02*
X533400D01*
X504300Y253200D02*
X520941D01*
X504300Y252600D02*
X520941D01*
X504300Y254400D02*
X533400D01*
X504300Y253800D02*
X520941D01*
X504300Y250800D02*
X520941D01*
X504300Y250200D02*
X520941D01*
X504300Y252000D02*
X520941D01*
X504300Y251400D02*
X520941D01*
X504300Y248400D02*
X523318D01*
X504300Y247800D02*
X533400D01*
X504300Y249600D02*
X520941D01*
X504300Y249000D02*
X522677D01*
X504300Y246000D02*
X520941D01*
X504300Y245400D02*
X520941D01*
X504300Y247200D02*
X533400D01*
X504300Y246600D02*
X533400D01*
X504300Y243600D02*
X520941D01*
X504300Y243000D02*
X520941D01*
X504300Y244800D02*
X520941D01*
X504300Y244200D02*
X520941D01*
X504300Y241800D02*
X520941D01*
X504300Y241200D02*
X520941D01*
X504300Y242400D02*
X520941D01*
X508123Y280200D02*
X513219D01*
X508413Y279600D02*
X513139D01*
X508500Y279000D02*
X513101D01*
X508413Y278400D02*
X513103D01*
X508123Y277800D02*
X513147D01*
X507482Y277200D02*
X513233D01*
X498518Y286200D02*
X501082D01*
X498630Y285600D02*
X500971D01*
X497642Y287400D02*
X501958D01*
X498226Y286800D02*
X501374D01*
X498586Y285000D02*
X501014D01*
X498379Y284400D02*
X501221D01*
X497948Y283800D02*
X501652D01*
X496962Y283200D02*
X502638D01*
X505448Y276351D02*
X505838Y276741D01*
X504300Y259274D02*
Y268476D01*
X501461Y271936D02*
X503860Y269537D01*
X496865Y272376D02*
X500400D01*
X496856Y269376D02*
X499779D01*
X501300Y267855D01*
Y260780D02*
Y267855D01*
X495315Y268800D02*
X500355D01*
X477195Y278400D02*
X504103D01*
X477195D02*
X504103D01*
X477195Y276000D02*
X504600D01*
X484851Y268200D02*
X500955D01*
X484250Y267600D02*
X501300D01*
X483650Y267000D02*
X501300D01*
X483050Y266400D02*
X501300D01*
X485405Y272376D02*
X493144D01*
X486027Y269376D02*
X493135D01*
X485451Y268800D02*
X494685D01*
X478508Y266100D02*
X484344Y271936D01*
X482450Y265800D02*
X501300D01*
X481850Y265200D02*
X501300D01*
X481250Y264600D02*
X501300D01*
X480651Y264000D02*
X501300D01*
X480583Y261600D02*
X501300D01*
X480670Y261000D02*
X501300D01*
X480029Y263400D02*
X501300D01*
X479652Y262800D02*
X501300D01*
X480190Y263540D02*
X486027Y269376D01*
X480294Y262200D02*
X501300D01*
X478570Y263100D02*
X479129D01*
X500721Y255000D02*
X501300D01*
X500121Y254400D02*
X501300D01*
X499521Y253800D02*
X501300D01*
X498061Y252340D02*
X501300Y255579D01*
X498921Y253200D02*
X501300D01*
X498321Y252600D02*
X501300D01*
X497539Y252000D02*
X501300D01*
X497623Y249600D02*
X501300D01*
X496379Y254900D02*
X500641Y259162D01*
X496728Y250800D02*
X501300D01*
X497023Y250200D02*
X501300D01*
X496389Y251900D02*
X497000D01*
X496613Y251400D02*
X501300D01*
Y246908D02*
Y255579D01*
X504300Y241049D02*
Y259069D01*
X498223Y249000D02*
X501300D01*
X498849Y248400D02*
X501300D01*
X500687Y247800D02*
X501300D01*
X500883Y244800D02*
X501300D01*
X495103Y241800D02*
X501300D01*
Y241670D02*
Y245501D01*
X496903Y250320D02*
X498759Y248464D01*
X495246Y248583D02*
X497062Y246766D01*
X499948Y244200D02*
X501300D01*
X495643Y241200D02*
X500830D01*
X482882Y259200D02*
X500664D01*
X483523Y258600D02*
X500079D01*
X480583Y260400D02*
X501267D01*
X480294Y259800D02*
X501099D01*
X483813Y258000D02*
X499479D01*
X483900Y257400D02*
X498879D01*
X483813Y256800D02*
X498279D01*
X483523Y256200D02*
X497679D01*
X479652Y259200D02*
X480718D01*
X482882Y255600D02*
X497079D01*
X480837Y255000D02*
X496479D01*
X480737Y254900D02*
X496379D01*
X480737D02*
X481050Y255213D01*
X491503Y245400D02*
X497381D01*
X492103Y244800D02*
X497760D01*
X490303Y246600D02*
X497162D01*
X490903Y246000D02*
X497231D01*
X493903Y243000D02*
X501300D01*
X494503Y242400D02*
X501300D01*
X492703Y244200D02*
X498694D01*
X493303Y243600D02*
X501300D01*
X489099Y247800D02*
X496029D01*
X489703Y247200D02*
X496629D01*
X489162Y247741D02*
X495448Y241454D01*
X487816Y245692D02*
X488109Y245400D01*
X527859Y237600D02*
X533400D01*
X527859Y237000D02*
X533400D01*
X527859Y238800D02*
X533400D01*
X527859Y238200D02*
X533400D01*
X527859Y235200D02*
X533400D01*
X527859Y234600D02*
X533400D01*
X527859Y236400D02*
X533400D01*
X527859Y235800D02*
X533400D01*
X527859Y229800D02*
X533400D01*
X527859Y229200D02*
X533400D01*
X527859Y234003D02*
Y239150D01*
Y230400D02*
X533400D01*
X527859Y227400D02*
X533400D01*
X527859Y226800D02*
X533400D01*
X527859Y228600D02*
X533400D01*
X527859Y228000D02*
X533400D01*
X527859Y226200D02*
X533400D01*
X527050Y222600D02*
X533400D01*
X527050Y222000D02*
X533400D01*
X527050Y221400D02*
X533400D01*
X527050Y219600D02*
X533400D01*
X527450Y216600D02*
X533400D01*
X527050Y220800D02*
X533400D01*
X527050Y220200D02*
X533400D01*
X527859Y225735D02*
Y230882D01*
X533400Y189600D02*
Y289800D01*
X527050Y219000D02*
Y224300D01*
Y219000D02*
X533400D01*
X527450Y217200D02*
X533400D01*
X527450Y216000D02*
X533400D01*
X527450Y217800D02*
X533400D01*
X527450Y212100D02*
Y218200D01*
X525919Y240600D02*
X533400D01*
X525919Y239400D02*
X533400D01*
X525900Y240000D02*
X533400D01*
X524487Y234000D02*
X533400D01*
X523369Y233400D02*
X533400D01*
X522745Y232800D02*
X533400D01*
X522145Y232200D02*
X533400D01*
X521545Y231600D02*
X533400D01*
X525900Y239538D02*
Y240475D01*
X525932Y239150D02*
X527859D01*
X503872Y240000D02*
X522900D01*
Y239538D02*
Y240475D01*
X524500Y234003D02*
X527859D01*
X525933Y225735D02*
X527859D01*
X520945Y231000D02*
X533400D01*
X520941Y230882D02*
X527859D01*
X525923Y224400D02*
X533400D01*
X525932Y224300D02*
X527050D01*
X525922Y225600D02*
X533400D01*
X525900Y225000D02*
X533400D01*
X527050Y223800D02*
X533400D01*
X527050Y223200D02*
X533400D01*
X515100Y218400D02*
X533400D01*
X521350Y218200D02*
X527450D01*
X522900Y224689D02*
Y225347D01*
X525900Y224689D02*
Y225347D01*
X515100Y225155D02*
X523304Y233359D01*
X515100Y225000D02*
X522900D01*
X521750Y219000D02*
X527050D01*
X521750D02*
X527050D01*
X527450Y214200D02*
X533400D01*
X527450Y213600D02*
X533400D01*
X527450Y215400D02*
X533400D01*
X527450Y214800D02*
X533400D01*
X527450Y213000D02*
X533400D01*
X527450Y212400D02*
X533400D01*
X525900Y211800D02*
X533400D01*
X525900Y208800D02*
X533400D01*
X525900Y211200D02*
X533400D01*
X525900Y210600D02*
X533400D01*
X525900Y212100D02*
X527450D01*
X525900Y208200D02*
X533400D01*
X525900Y207600D02*
X533400D01*
X525900Y210000D02*
X533400D01*
X525900Y209400D02*
X533400D01*
X525900Y205800D02*
X533400D01*
X525900Y205200D02*
X533400D01*
X525900Y207000D02*
X533400D01*
X525900Y206400D02*
X533400D01*
X526593Y204000D02*
X533400D01*
X526827Y203400D02*
X533400D01*
X526135Y204600D02*
X533400D01*
X526593Y201600D02*
X533400D01*
X525900Y204800D02*
Y212100D01*
X526900Y202800D02*
X533400D01*
X526827Y202200D02*
X533400D01*
X526135Y201000D02*
X533400D01*
X525100Y200400D02*
X533400D01*
X515100Y199200D02*
X533400D01*
X515100Y198600D02*
X533400D01*
X515100Y200400D02*
X523700D01*
X515100Y199800D02*
X533400D01*
X515100Y211200D02*
X522900D01*
Y204800D02*
Y212100D01*
X515100Y210600D02*
X522900D01*
X515100Y207600D02*
X522900D01*
X515100Y205800D02*
X522900D01*
X515100Y205200D02*
X522900D01*
X515100Y207000D02*
X522900D01*
X515100Y206400D02*
X522900D01*
X515100Y192600D02*
X533400D01*
X515100Y192000D02*
X533400D01*
X515100Y193800D02*
X533400D01*
X515100Y193200D02*
X533400D01*
X515100Y190200D02*
X533400D01*
X515100Y189600D02*
X533400D01*
X515100Y191400D02*
X533400D01*
X515100Y190800D02*
X533400D01*
X515100Y196800D02*
X533400D01*
X515100Y196200D02*
X533400D01*
X515100Y198000D02*
X533400D01*
X515100Y197400D02*
X533400D01*
X515100Y195000D02*
X533400D01*
X515100Y194400D02*
X533400D01*
X515100Y195600D02*
X533400D01*
X504231Y240600D02*
X522881D01*
X520941Y239150D02*
X522868D01*
X503273Y239400D02*
X522881D01*
X502673Y238800D02*
X520941D01*
X509323Y235800D02*
X520941D01*
X520378Y234701D02*
X520941Y235289D01*
X502098Y238200D02*
X520941D01*
X508682Y236400D02*
X520941D01*
Y235289D02*
Y239150D01*
X502173Y238301D02*
X503860Y239987D01*
X509613Y235200D02*
X520856D01*
X509700Y234600D02*
X520302D01*
X509613Y234000D02*
X519702D01*
X509323Y233400D02*
X519102D01*
X512540Y226838D02*
X520335Y234633D01*
X508682Y232800D02*
X518502D01*
X508682Y231600D02*
X517302D01*
X520345Y230400D02*
X520941D01*
Y225735D02*
Y230882D01*
X519745Y229800D02*
X520941D01*
X519145Y229200D02*
X520941D01*
X509323Y231000D02*
X516702D01*
X509613Y230400D02*
X516102D01*
X509700Y229800D02*
X515502D01*
X509613Y229200D02*
X514902D01*
X495800Y240600D02*
X500230D01*
X500058Y240428D02*
X501300Y241670D01*
X495800Y240000D02*
X499024D01*
X495800Y239400D02*
X498193D01*
X501852Y237600D02*
X520941D01*
X501619Y237000D02*
X520941D01*
X496697Y236400D02*
X498499D01*
X501101D02*
X506518D01*
X495800Y237297D02*
Y240606D01*
X488812Y243000D02*
X492000Y239812D01*
Y236400D02*
Y239812D01*
X495800Y237600D02*
X497749D01*
X496097Y237000D02*
X497981D01*
X495800Y238800D02*
X497839D01*
X495800Y238200D02*
X497706D01*
X497897Y233400D02*
X505605D01*
X498497Y232800D02*
X506518D01*
X497297Y235800D02*
X505605D01*
X497297D02*
X505605D01*
X500297Y231000D02*
X505605D01*
X500297D02*
X505605D01*
X499097Y232200D02*
X517902D01*
X499697Y231600D02*
X506518D01*
X495800Y237297D02*
X497297Y235800D01*
X497897Y233400D02*
X505605D01*
X497897D02*
X500297Y231000D01*
X492351Y235552D02*
X498951Y228952D01*
X520941Y225735D02*
X522867D01*
X521750Y224300D02*
X522868D01*
X515545Y225600D02*
X522878D01*
X515100Y224400D02*
X522877D01*
X515100Y220800D02*
X521750D01*
X515100Y220200D02*
X521750D01*
X515100Y223800D02*
X521750D01*
X515100Y222000D02*
X521750D01*
X518545Y228600D02*
X520941D01*
X517945Y228000D02*
X520941D01*
X517345Y227400D02*
X520941D01*
X516745Y226800D02*
X520941D01*
X516145Y226200D02*
X520941D01*
X515100Y223200D02*
X521750D01*
X515100Y222600D02*
X521750D01*
X515100Y221400D02*
X521750D01*
Y219000D02*
Y224300D01*
X521350Y212100D02*
X522900D01*
X515100Y219600D02*
X521750D01*
X515100Y219000D02*
X521750D01*
X515100Y204000D02*
X522207D01*
X515100Y203400D02*
X521973D01*
X515100Y208200D02*
X522900D01*
X515100Y204600D02*
X522665D01*
X521350Y212100D02*
Y218200D01*
X515100Y189600D02*
Y225155D01*
Y217800D02*
X521350D01*
X515100Y217200D02*
X521350D01*
X515100Y216000D02*
X521350D01*
X515100Y215400D02*
X521350D01*
X515100Y216600D02*
X521350D01*
X515100Y213600D02*
X521350D01*
X515100Y213000D02*
X521350D01*
X515100Y214800D02*
X521350D01*
X515100Y214200D02*
X521350D01*
X515100Y210000D02*
X522900D01*
X515100Y209400D02*
X522900D01*
X515100Y212400D02*
X521350D01*
X515100Y211800D02*
X522900D01*
X499800Y228600D02*
X505605D01*
X509323D02*
X514302D01*
X499800D02*
X505605D01*
X508682Y228000D02*
X513702D01*
X515100Y202200D02*
X521973D01*
X515100Y201600D02*
X522207D01*
X515100Y208800D02*
X522900D01*
X515100Y202800D02*
X521900D01*
X515100Y201000D02*
X522665D01*
X501813Y199800D02*
X512100D01*
X500882Y201000D02*
X512100D01*
X501523Y200400D02*
X512100D01*
X501900Y199200D02*
X512100D01*
Y189600D02*
Y225776D01*
X501813Y198600D02*
X512100D01*
X501523Y198000D02*
X512100D01*
X500882Y197400D02*
X512100D01*
X476282Y279000D02*
X504283D01*
X477195Y276000D02*
X504600D01*
X440567Y288600D02*
X533400D01*
X440567Y288000D02*
X533400D01*
X476282Y275400D02*
X513758D01*
X459212Y272400D02*
X493377D01*
X458282Y273600D02*
X514760D01*
X458923Y273000D02*
X515235D01*
X459921Y271200D02*
X483608D01*
X459364Y271800D02*
X484208D01*
X461121Y270000D02*
X482408D01*
X461721Y269400D02*
X481808D01*
X460521Y270600D02*
X483008D01*
X448593Y269400D02*
X457479D01*
X463521Y267600D02*
X480008D01*
X464121Y267000D02*
X479408D01*
X462321Y268800D02*
X481208D01*
X462921Y268200D02*
X480608D01*
X471000Y266100D02*
X478508D01*
X464721Y266400D02*
X478808D01*
X459580Y271542D02*
X466821Y264300D01*
X457452Y269427D02*
X465139Y261740D01*
X448135Y268800D02*
X458079D01*
X447100Y268200D02*
X458679D01*
X469458Y265180D02*
X469939Y265660D01*
X465321Y265800D02*
X470100D01*
X465921Y265200D02*
X469479D01*
X437786Y289200D02*
X533400D01*
X440567Y282600D02*
X513991D01*
X437786Y290400D02*
X533400Y289800D01*
X437786D02*
X533400D01*
X440567Y280800D02*
X505318D01*
X440567Y280200D02*
X504677D01*
X440567Y282000D02*
X513725D01*
X440567Y281400D02*
X513510D01*
X440567Y286200D02*
X493995D01*
X440567Y285600D02*
X493884D01*
X440567Y287400D02*
X494871D01*
X440567Y286800D02*
X494288D01*
X440567Y283800D02*
X494565D01*
X440567Y283200D02*
X495551D01*
X440567Y285000D02*
X493927D01*
X440567Y284400D02*
X494135D01*
X440567Y279600D02*
X504388D01*
X440567Y279000D02*
X474118D01*
X440567Y278400D02*
X473477D01*
X439952Y276600D02*
X473187D01*
X439952Y274800D02*
X514031D01*
X439952Y274200D02*
X514363D01*
X439952Y276000D02*
X473477D01*
X439952Y275400D02*
X474118D01*
X440567Y277800D02*
X473187D01*
X439952Y277200D02*
X473100D01*
X439952Y267600D02*
X459279D01*
X439952Y267000D02*
X459879D01*
X439952Y265800D02*
X461079D01*
X439952Y265200D02*
X461679D01*
X439952Y266400D02*
X460479D01*
X471621Y263100D02*
X478570D01*
X471366Y262800D02*
X477488D01*
X471212Y262200D02*
X476847D01*
X470923Y261600D02*
X476558D01*
X475073Y259200D02*
X476311Y260438D01*
X470282Y261000D02*
X476453D01*
X460406Y259200D02*
X475073D01*
X466821Y264300D02*
X467344D01*
X466521Y264600D02*
X468118D01*
X466200Y261300D02*
X467335D01*
X460406Y259200D02*
X475073D01*
X462021Y251900D02*
X492811D01*
X461521Y251400D02*
X492588D01*
X460921Y250800D02*
X492500D01*
X460321Y250200D02*
X492588D01*
X468195Y243000D02*
X488812D01*
X467282Y242400D02*
X489412D01*
X459721Y249600D02*
X492877D01*
X465458Y248400D02*
X495429D01*
X467702Y245692D02*
X487816D01*
X468195Y245400D02*
X488109D01*
X465972Y248092D02*
X488313D01*
X468195Y245400D02*
X488109D01*
X468195Y243000D02*
X488812D01*
X439952Y264000D02*
X462879D01*
X452335Y262200D02*
X464679D01*
X437786Y263400D02*
X463479D01*
X437786Y262800D02*
X464079D01*
X453222Y261000D02*
X468118D01*
X453300Y260400D02*
X476273D01*
X452946Y261600D02*
X465300D01*
X453202Y259800D02*
X475673D01*
X452900Y259200D02*
X460406D01*
X439952Y264600D02*
X462279D01*
X450600Y249891D02*
X459557Y258849D01*
X452225Y258600D02*
X459309D01*
X450600Y258000D02*
X458709D01*
X450600Y257400D02*
X458109D01*
X450600Y256800D02*
X457509D01*
X459121Y249000D02*
X493518D01*
X457500Y244800D02*
X463798D01*
X457500Y244200D02*
X464100D01*
X457500Y243600D02*
X464187D01*
X457500Y241800D02*
X490012D01*
X457500Y241200D02*
X490612D01*
X457500Y243000D02*
X464477D01*
X457500Y242400D02*
X465118D01*
X458521Y248400D02*
X462514D01*
X457921Y247800D02*
X462083D01*
X457500Y247379D02*
X462021Y251900D01*
X457500Y247200D02*
X461899D01*
X457500Y246000D02*
X462075D01*
X457500Y245400D02*
X462499D01*
X457500Y246600D02*
X461897D01*
X448593Y271800D02*
X455100D01*
X448827Y271200D02*
X455188D01*
X447100Y273000D02*
X455477D01*
X448135Y272400D02*
X455188D01*
X448900Y270600D02*
X455477D01*
X448827Y270000D02*
X456118D01*
X440567Y282558D02*
Y283567D01*
Y277467D02*
Y282558D01*
Y283567D02*
Y288658D01*
Y282558D02*
Y283567D01*
X448552Y259482D02*
X448941Y259871D01*
X450600Y256200D02*
X456909D01*
X450600Y249891D02*
Y258136D01*
X443923Y257400D02*
X448200D01*
X450600Y255600D02*
X456309D01*
X444212Y256800D02*
X448200D01*
Y249523D02*
Y258633D01*
X443282Y258000D02*
X448200D01*
X444300Y256200D02*
X448200D01*
X444212Y255600D02*
X448200D01*
X439952Y277467D02*
X440567D01*
X439952Y273600D02*
X456118D01*
X439952Y273000D02*
X445700D01*
X437786Y272400D02*
X444665D01*
X439952Y268800D02*
X444665D01*
X439952Y268200D02*
X445700D01*
X437786Y272100D02*
X444400D01*
X439952Y269100D02*
X444400D01*
X437786Y288658D02*
Y290400D01*
Y288658D02*
X440567D01*
X437786Y272859D02*
X439952D01*
Y277467D01*
X437786Y272100D02*
Y272859D01*
Y261000D02*
X449178D01*
X437786Y260400D02*
X449082D01*
X437786Y262200D02*
X450065D01*
X437786Y261600D02*
X449454D01*
X437786Y258600D02*
X448200D01*
X437786Y258000D02*
X441118D01*
X437786Y259800D02*
X448870D01*
X437786Y259200D02*
X448342D01*
X437786Y263410D02*
X439952D01*
Y269100D01*
X437786Y257400D02*
X440477D01*
X437786Y249492D02*
Y263410D01*
Y256200D02*
X440100D01*
X437786Y255600D02*
X440176D01*
X437786Y256800D02*
X440188D01*
X450600Y253800D02*
X454509D01*
X450600Y253200D02*
X453909D01*
X450600Y255000D02*
X455709D01*
X450600Y254400D02*
X455109D01*
X450600Y251400D02*
X452109D01*
X450600Y250800D02*
X451509D01*
X450600Y252600D02*
X453309D01*
X450600Y252000D02*
X452709D01*
X445890Y253200D02*
X448200D01*
X446040Y252600D02*
X448200D01*
X445861Y253800D02*
X448200D01*
X447490Y250800D02*
X448200D01*
X450600Y250200D02*
X450909D01*
X446965Y252000D02*
X448200D01*
X447342Y251400D02*
X448200D01*
X454200Y246703D02*
X454500Y247003D01*
X454160Y244800D02*
X454500D01*
X453788Y244200D02*
X454500D01*
X453188Y243600D02*
X454500D01*
X452588Y243000D02*
X454500D01*
X451988Y242400D02*
X454500D01*
X451800Y241800D02*
X454500D01*
X451800Y241200D02*
X454500D01*
X447462Y250200D02*
X448200D01*
X454200Y245109D02*
Y246703D01*
X451800Y242212D02*
X453849Y244260D01*
X445160Y255000D02*
X448200D01*
X445647Y254400D02*
X448200D01*
X437786D02*
X440400D01*
X437786Y253800D02*
X440400D01*
X437786Y253200D02*
X440400D01*
X437786Y252600D02*
X440400D01*
X437786Y255000D02*
X440335D01*
X440293Y255188D02*
X440360Y254890D01*
X437786Y252000D02*
X440400D01*
X437786Y251400D02*
X440400D01*
X437786Y249600D02*
X440400D01*
X437896Y249000D02*
X440400D01*
X437786Y250800D02*
X440400D01*
X437786Y250200D02*
X440400D01*
X438273Y247200D02*
X440400D01*
X438398Y246600D02*
X440400D01*
X438022Y248400D02*
X440400D01*
X438147Y247800D02*
X440400D01*
X438576Y244800D02*
X440400D01*
X438668Y242400D02*
X440400D01*
X438480Y246000D02*
X440400D01*
X438528Y245400D02*
X440400D01*
X438624Y244200D02*
X440400D01*
X438671Y243600D02*
X440400D01*
X437817Y249380D02*
X438442Y246392D01*
X438458Y246277D02*
X438700Y243234D01*
X438697Y243000D02*
X440400D01*
X438639Y241800D02*
X440400D01*
X438611Y241200D02*
X440400D01*
X458091Y238800D02*
X492000D01*
X458060Y238200D02*
X492000D01*
X457945Y239400D02*
X492000D01*
X457500Y235800D02*
X492161D01*
X457500Y234000D02*
X493903D01*
X457500Y233400D02*
X494503D01*
X457500Y235200D02*
X492703D01*
X457500Y234600D02*
X493303D01*
X457574Y240000D02*
X491812D01*
X457500Y240600D02*
X491212D01*
X457500Y240466D02*
Y247379D01*
X457842Y237600D02*
X492000D01*
X457524Y237000D02*
X492000D01*
X457500Y236400D02*
X492000D01*
X457500Y228000D02*
X506518D01*
X457500Y227400D02*
X513102D01*
X457500Y229200D02*
X498703D01*
X457500Y228600D02*
X499800D01*
X457500Y217200D02*
X512100D01*
X457500Y215400D02*
X512100D01*
X457500Y226800D02*
X512503D01*
X457500Y226200D02*
X512161D01*
X457500Y232200D02*
X495703D01*
X457500Y231600D02*
X496303D01*
X457500Y232800D02*
X495103D01*
X457500Y204724D02*
Y236744D01*
Y230400D02*
X497503D01*
X457500Y229800D02*
X498103D01*
X457500Y231000D02*
X496903D01*
X457500Y222600D02*
X512100D01*
X457500Y222000D02*
X512100D01*
X457500Y223800D02*
X512100D01*
X457500Y223200D02*
X512100D01*
X457500Y220200D02*
X512100D01*
X457500Y219600D02*
X512100D01*
X457500Y221400D02*
X512100D01*
X457500Y220800D02*
X512100D01*
X451800Y235800D02*
X454500D01*
Y233932D02*
Y236753D01*
X451800Y235200D02*
X454500D01*
X451800Y234600D02*
X454500D01*
X457500Y225000D02*
X512100D01*
X457500Y224400D02*
X512100D01*
X457500Y225600D02*
X512100D01*
X457500Y219000D02*
X512100D01*
X457500Y218400D02*
X512100D01*
X451800Y219000D02*
X454500D01*
X457500Y216000D02*
X512100D01*
X457500Y214800D02*
X512100D01*
X457500Y217800D02*
X512100D01*
X457500Y216600D02*
X512100D01*
X451800Y217200D02*
X454500D01*
X451800Y216600D02*
X454500D01*
X451800Y218400D02*
X454500D01*
X451800Y217800D02*
X454500D01*
X451800Y215400D02*
X454500D01*
X451800Y214800D02*
X454500D01*
X451800Y216000D02*
X454500D01*
X457500Y208200D02*
X512100D01*
X457500Y207600D02*
X512100D01*
X457500Y209400D02*
X512100D01*
X457500Y208800D02*
X512100D01*
X457500Y205800D02*
X512100D01*
X457500Y205200D02*
X512100D01*
X457500Y207000D02*
X512100D01*
X457500Y206400D02*
X512100D01*
X457500Y213000D02*
X512100D01*
X457500Y212400D02*
X512100D01*
X457500Y214200D02*
X512100D01*
X457500Y213600D02*
X512100D01*
X457500Y210600D02*
X512100D01*
X457500Y210000D02*
X512100D01*
X457500Y211800D02*
X512100D01*
X457500Y211200D02*
X512100D01*
X458824Y203400D02*
X512100D01*
X459424Y202800D02*
X512100D01*
X457624Y204600D02*
X512100D01*
X458224Y204000D02*
X512100D01*
X461224Y201000D02*
X498718D01*
X461524Y200700D02*
X497944D01*
X460024Y202200D02*
X512100D01*
X460624Y201600D02*
X512100D01*
X457500Y204724D02*
X461524Y200700D01*
X454940Y203042D02*
X459842Y198140D01*
X460903Y197700D02*
X497935D01*
X451800Y201600D02*
X456382D01*
X451800Y201000D02*
X456982D01*
X451800Y202800D02*
X455182D01*
X451800Y202200D02*
X455782D01*
X451800Y199200D02*
X458782D01*
X451800Y198600D02*
X459382D01*
X451800Y200400D02*
X457582D01*
X451800Y199800D02*
X458182D01*
X451800Y210000D02*
X454500D01*
X451800Y209400D02*
X454500D01*
X451800Y214200D02*
X454500D01*
X451800Y210600D02*
X454500D01*
X451800Y204000D02*
X454503D01*
X451800Y203400D02*
X454675D01*
X451800Y205200D02*
X454500D01*
X451800Y204600D02*
X454500D01*
X451800Y192600D02*
X512100D01*
X451800Y192000D02*
X512100D01*
X451800Y193800D02*
X512100D01*
X451800Y193200D02*
X512100D01*
X451800Y190200D02*
X512100D01*
X451800Y189600D02*
X512100D01*
X451800Y191400D02*
X512100D01*
X451800Y190800D02*
X512100D01*
X451800Y196800D02*
X512100D01*
X451800Y196200D02*
X512100D01*
X451800Y198000D02*
X460003D01*
X451800Y197400D02*
X498718D01*
X451800Y195000D02*
X512100D01*
X451800Y194400D02*
X512100D01*
X451800Y195600D02*
X512100D01*
X454500Y240475D02*
Y247003D01*
X451800Y240600D02*
X454500D01*
X451800Y240000D02*
X454426D01*
X451800Y237600D02*
X454158D01*
X451800Y237000D02*
X454475D01*
X451800Y239400D02*
X454055D01*
X451800Y238200D02*
X453940D01*
X438582Y240600D02*
X440400D01*
X438557Y240069D02*
X438702Y243118D01*
X438543Y240000D02*
X440400D01*
X438447Y239400D02*
X440400D01*
X438341Y238800D02*
X440400D01*
X451800D02*
X453909D01*
X438235Y238200D02*
X440400D01*
X438129Y237600D02*
X440400D01*
X451800Y236400D02*
X454500D01*
X451800Y234000D02*
X452900D01*
X454500Y204103D02*
Y219668D01*
X452100Y224000D02*
Y229600D01*
X451800Y219600D02*
X452900D01*
X451800Y233335D02*
Y242212D01*
X440400Y189600D02*
Y254585D01*
X438023Y237000D02*
X440400D01*
X438014Y236947D02*
X438544Y239953D01*
X451800Y189600D02*
Y220265D01*
Y223735D02*
Y229865D01*
X437852Y236400D02*
X440400D01*
X437786Y235800D02*
X440400D01*
X437786Y235200D02*
X440400D01*
X437786Y234600D02*
X440400D01*
X437786Y232800D02*
X440400D01*
X437786Y232200D02*
X440400D01*
X437786Y234000D02*
X440400D01*
X437786Y233400D02*
X440400D01*
X437786Y231000D02*
X440400D01*
X437786Y230400D02*
X440400D01*
X437786Y236188D02*
X437987Y236834D01*
X437786Y231600D02*
X440400D01*
X437786Y228600D02*
X440400D01*
X437786Y228000D02*
X440400D01*
X437786Y229800D02*
X440400D01*
X437786Y229200D02*
X440400D01*
X437786Y226200D02*
X440400D01*
X437786Y225600D02*
X440400D01*
X437786Y227400D02*
X440400D01*
X437786Y226800D02*
X440400D01*
X437786Y223800D02*
X440400D01*
X437786Y223200D02*
X440400D01*
X437786Y225000D02*
X440400D01*
X437786Y224400D02*
X440400D01*
X437786Y222000D02*
X440400D01*
X437786Y221400D02*
X440400D01*
X437786Y222600D02*
X440400D01*
X437786Y190273D02*
Y236188D01*
Y220200D02*
X440400D01*
X437786Y219600D02*
X440400D01*
X437786Y220800D02*
X440400D01*
X437786Y216600D02*
X440400D01*
X437786Y216000D02*
X440400D01*
X437786Y219000D02*
X440400D01*
X437786Y217200D02*
X440400D01*
X451800Y212400D02*
X454500D01*
X451800Y211800D02*
X454500D01*
X451800Y213600D02*
X454500D01*
X451800Y213000D02*
X454500D01*
X437786Y215400D02*
X440400D01*
X437786Y214800D02*
X440400D01*
X437786Y218400D02*
X440400D01*
X437786Y217800D02*
X440400D01*
X437786Y213000D02*
X440400D01*
X437786Y212400D02*
X440400D01*
X437786Y214200D02*
X440400D01*
X437786Y213600D02*
X440400D01*
X451800Y211200D02*
X454500D01*
X451800Y208800D02*
X454500D01*
X437786Y210000D02*
X440400D01*
X451800Y208200D02*
X454500D01*
X451800Y206400D02*
X454500D01*
X451800Y205800D02*
X454500D01*
X451800Y207600D02*
X454500D01*
X451800Y207000D02*
X454500D01*
X437786Y209400D02*
X440400D01*
X437786Y208800D02*
X440400D01*
X437786Y211200D02*
X440400D01*
X437786Y210600D02*
X440400D01*
X437786Y207600D02*
X440400D01*
X438313Y189600D02*
X440400D01*
X437786Y208200D02*
X440400D01*
X437786Y201600D02*
X440400D01*
X437786Y201000D02*
X440400D01*
X437786Y202800D02*
X440400D01*
X437786Y202200D02*
X440400D01*
X437786Y199200D02*
X440400D01*
X437786Y198600D02*
X440400D01*
X437786Y200400D02*
X440400D01*
X437786Y199800D02*
X440400D01*
X437786Y206400D02*
X440400D01*
X437786Y205800D02*
X440400D01*
X437786Y211800D02*
X440400D01*
X437786Y207000D02*
X440400D01*
X437786Y204000D02*
X440400D01*
X437786Y203400D02*
X440400D01*
X437786Y205200D02*
X440400D01*
X437786Y204600D02*
X440400D01*
X437786Y196800D02*
X440400D01*
X437786Y196200D02*
X440400D01*
X437786Y198000D02*
X440400D01*
X437786Y197400D02*
X440400D01*
X437786Y194400D02*
X440400D01*
X437786Y193800D02*
X440400D01*
X437786Y195600D02*
X440400D01*
X437786Y195000D02*
X440400D01*
X437786Y192000D02*
X440400D01*
X437786Y191400D02*
X440400D01*
X437786Y193200D02*
X440400D01*
X437786Y192600D02*
X440400D01*
X437786Y190800D02*
X440400D01*
X437713Y190200D02*
X438313Y189600D01*
X437713Y190200D02*
X440400D01*
X450600Y185812D02*
Y242709D01*
X449400Y186309D02*
Y243206D01*
X448200Y186806D02*
Y243703D01*
X447000Y187303D02*
Y244200D01*
X445800Y187800D02*
Y246600D01*
X444600Y188503D02*
Y249900D01*
X443300Y188900D02*
Y252500D01*
X450600Y242709D02*
X453000Y245109D01*
X449400Y243206D02*
X451800Y245606D01*
X448200Y243703D02*
X450600Y246103D01*
X447000Y244200D02*
X449400Y246600D01*
X445800D02*
X447000Y247800D01*
X444600Y249900D02*
X445500Y250800D01*
X443300Y252500D02*
X444600Y253800D01*
X334800Y193200D02*
Y201808D01*
X333600Y192600D02*
Y210608D01*
X332400Y192103D02*
Y219408D01*
X331200Y191606D02*
Y219905D01*
X334800Y201808D02*
X346063Y213071D01*
X334800Y193200D02*
X343200Y184800D01*
X333600Y192600D02*
X342600Y183600D01*
X333600Y210608D02*
X346063Y223071D01*
X332400Y192103D02*
X342103Y182400D01*
X332400Y219408D02*
X346063Y233071D01*
X331200Y191606D02*
X341606Y181200D01*
X331200Y219905D02*
X331406Y220111D01*
X494600Y236800D02*
Y240606D01*
X488313Y246892D02*
X494600Y240606D01*
X463976Y246892D02*
X488313D01*
X493200Y236400D02*
Y240309D01*
X489309Y244200D02*
X493200Y240309D01*
X499800Y229800D02*
X507600D01*
X466200Y244200D02*
X489309D01*
X493200Y236400D02*
X499800Y229800D01*
X496800Y234600D02*
X507600D01*
X494600Y236800D02*
X496800Y234600D01*
X481493Y257353D02*
X481800D01*
X460406Y258000D02*
X475570D01*
X450600Y248194D02*
X460406Y258000D01*
X450600Y246103D02*
Y248194D01*
X460903Y256800D02*
X477970D01*
X451800Y247697D02*
X460903Y256800D01*
X451800Y245606D02*
Y247697D01*
X461100Y255300D02*
X479440D01*
X453000Y247200D02*
X461100Y255300D01*
X453000Y245109D02*
Y247200D01*
X494400Y250600D02*
X494926D01*
X494400D02*
X494600Y250800D01*
X494926Y250600D02*
X499321Y246204D01*
X475570Y258000D02*
X478570Y261000D01*
X477970Y256800D02*
X478570Y257400D01*
X479440Y255300D02*
X481493Y257353D01*
X449400Y246600D02*
Y258633D01*
X451200Y260433D01*
X438000Y183600D02*
X443300Y188900D01*
X441600Y255600D02*
X442200Y256200D01*
X441600Y188897D02*
Y255600D01*
X437503Y184800D02*
X441600Y188897D01*
X441188Y176400D02*
X450600Y185812D01*
X440691Y177600D02*
X449400Y186309D01*
X440194Y178800D02*
X448200Y186806D01*
X439697Y180000D02*
X447000Y187303D01*
X373982Y176400D02*
X441188D01*
X368400Y177600D02*
X440691D01*
X364200Y178800D02*
X440194D01*
X359400Y180000D02*
X439697D01*
X331406Y228414D02*
X346063Y243071D01*
X331406Y220111D02*
Y228414D01*
X343200Y184800D02*
X437503D01*
X439200Y181200D02*
X445800Y187800D01*
X341606Y181200D02*
X439200D01*
X438497Y182400D02*
X444600Y188503D01*
X342600Y183600D02*
X438000D01*
X342103Y182400D02*
X438497D01*
X370982Y173400D02*
X373982Y176400D01*
X370982Y169800D02*
Y173400D01*
X366061Y175261D02*
X368400Y177600D01*
X366061Y169800D02*
Y175261D01*
X361139Y175739D02*
X364200Y178800D01*
X361139Y171061D02*
Y175739D01*
X356218Y176818D02*
X359400Y180000D01*
X356218Y169800D02*
Y176818D01*
X504600Y277200D02*
X506400Y279000D01*
X475200Y277200D02*
X504600D01*
D15*
X393799Y203980D02*
D03*
X389665Y196820D02*
D03*
D16*
X407417Y207200D02*
D03*
X399149D02*
D03*
D17*
X503400Y162000D02*
D03*
D18*
X437517Y285608D02*
D03*
X431017D02*
D03*
X437517Y280517D02*
D03*
X431017D02*
D03*
D19*
X430391Y275924D02*
D03*
X437871D02*
D03*
Y266476D02*
D03*
X434131D02*
D03*
X430391D02*
D03*
D20*
X400000Y164173D02*
D03*
Y195669D02*
D03*
X431496D02*
D03*
Y164173D02*
D03*
D21*
X415748Y196653D02*
D03*
Y163189D02*
D03*
D22*
X389665Y217760D02*
D03*
X393799Y210600D02*
D03*
D23*
X524400Y221650D02*
D03*
Y215150D02*
D03*
D24*
Y251704D02*
D03*
Y243436D02*
D03*
Y236576D02*
D03*
Y228309D02*
D03*
D25*
X351297Y169800D02*
D03*
X375903D02*
D03*
X370982D02*
D03*
X366061D02*
D03*
X361139D02*
D03*
X356218D02*
D03*
D26*
X385155Y157989D02*
D03*
X342045D02*
D03*
D43*
X453600Y222000D02*
Y231600D01*
X436547Y279717D02*
X437517D01*
X393179Y204600D02*
X393799Y205220D01*
X434131Y268531D02*
Y277301D01*
X436200Y270600D02*
X446400D01*
X434131Y268531D02*
X436200Y270600D01*
X434131Y266476D02*
Y268531D01*
X437517Y280517D02*
Y285608D01*
X434131Y277301D02*
X436547Y279717D01*
X437517D02*
Y280517D01*
X524400Y202800D02*
Y215150D01*
X399149Y207200D02*
X407400Y198949D01*
Y191503D02*
Y198949D01*
Y191503D02*
X411383Y187520D01*
X425540D01*
X395929Y203980D02*
X399149Y207200D01*
X393799Y203980D02*
X395929D01*
X393799Y205220D02*
Y210600D01*
X382200Y204600D02*
X393179D01*
X382200D02*
X385155Y207555D01*
Y259514D01*
X397041Y271400D01*
X336000Y169800D02*
X351297D01*
X322200Y183600D02*
X336000Y169800D01*
X322200Y183600D02*
Y244800D01*
X330471Y253071D01*
X346063D01*
X513600Y185400D02*
Y225776D01*
X524400Y236576D01*
X456000Y204103D02*
Y238609D01*
X375600Y169497D02*
X375903Y169800D01*
X499800Y238049D02*
X502800Y241049D01*
Y259200D01*
X460903Y199200D02*
X499800D01*
X456000Y204103D02*
X460903Y199200D01*
X502800Y259200D02*
Y268476D01*
X497000Y253400D02*
X502800Y259200D01*
X461400Y253400D02*
X497000D01*
X456000Y248000D02*
X461400Y253400D01*
X456000Y238609D02*
Y248000D01*
X375600Y154800D02*
Y169497D01*
X495000Y270876D02*
X500400D01*
X502800Y268476D01*
X479129Y264600D02*
X485405Y270876D01*
X471000Y264600D02*
X479129D01*
X469200Y262800D02*
X471000Y264600D01*
X319200Y202800D02*
Y258000D01*
X361139Y169800D02*
Y171061D01*
X524400Y221650D02*
Y228309D01*
Y236576D02*
Y243436D01*
X330000Y263071D02*
X346063D01*
X324271D02*
X330000D01*
X319200Y258000D02*
X324271Y263071D01*
X457200Y271800D02*
X466200Y262800D01*
X469200D01*
X485405Y270876D02*
X495000D01*
D44*
X401249Y285608D02*
X431017D01*
X397041Y281400D02*
X401249Y285608D01*
X430527Y275924D02*
Y285118D01*
X431017Y285608D01*
D45*
X397041Y281400D02*
D03*
X346063Y263071D02*
D03*
D46*
X397041Y271400D02*
D03*
X346063Y253071D02*
D03*
Y243071D02*
D03*
Y233071D02*
D03*
Y223071D02*
D03*
Y213071D02*
D03*
D47*
X453600Y231600D02*
D03*
Y222000D02*
D03*
X446400Y270600D02*
D03*
X524400Y202800D02*
D03*
X425540Y187520D02*
D03*
X506268Y162000D02*
D03*
X382200Y204600D02*
D03*
X351600Y169800D02*
D03*
X466200Y244200D02*
D03*
X513600Y185400D02*
D03*
X430297Y265800D02*
D03*
X375600Y169800D02*
D03*
X463976Y246892D02*
D03*
X507600Y229800D02*
D03*
Y234600D02*
D03*
X499800Y238049D02*
D03*
X418747Y164400D02*
D03*
X375600Y154800D02*
D03*
X499800Y199200D02*
D03*
X456000Y238609D02*
D03*
X494600Y250800D02*
D03*
X499321Y246204D02*
D03*
X451200Y260433D02*
D03*
X447000Y247800D02*
D03*
X445400Y250600D02*
D03*
X443800Y253400D02*
D03*
X442200Y256200D02*
D03*
X481800Y257400D02*
D03*
X478570D02*
D03*
Y261000D02*
D03*
X319200Y202800D02*
D03*
X414986Y196200D02*
D03*
X524400Y250200D02*
D03*
X330000Y263071D02*
D03*
X457200Y271800D02*
D03*
X469200Y262800D02*
D03*
X495000Y270876D02*
D03*
X506400Y279000D02*
D03*
X475200Y277200D02*
D03*
X437786Y265800D02*
D03*
X389663Y196800D02*
D03*
X389736Y217800D02*
D03*
X404583Y207200D02*
D03*
D48*
X324671Y160200D02*
D03*
X521800D02*
D03*
X324600Y278740D02*
D03*
X521871D02*
D03*
X362008Y197047D02*
D03*
X362205Y278740D02*
D03*
M02*
