G04*
G04 #@! TF.GenerationSoftware,Altium Limited,Altium Designer,18.1.9 (240)*
G04*
G04 Layer_Color=16711935*
%FSLAX25Y25*%
%MOIN*%
G70*
G01*
G75*
%ADD76C,0.00394*%
D76*
X464567Y265748D02*
G03*
X464567Y265748I-1969J0D01*
G01*
X391894Y195760D02*
X395831Y202579D01*
X387632Y198221D02*
X391569Y205040D01*
X395831Y202579D01*
X387632Y198221D02*
X391894Y195760D01*
X407220Y204739D02*
Y209661D01*
X399346Y204739D02*
Y209661D01*
Y204739D02*
X407220D01*
X399346Y209661D02*
X407220D01*
X486614Y241732D02*
Y269291D01*
X459055Y241732D02*
Y269291D01*
Y241732D02*
X486614D01*
X459055Y269291D02*
X486614D01*
X424458Y185453D02*
Y197067D01*
X419142Y185453D02*
Y197067D01*
X424458D01*
X419142Y185453D02*
X424458D01*
X440135Y267755D02*
Y274645D01*
X428127Y267755D02*
Y274645D01*
X440135D01*
X428127Y267755D02*
X440135D01*
X387632Y216359D02*
X391894Y218820D01*
X391569Y209540D02*
X395831Y212001D01*
X391894Y218820D02*
X395831Y212001D01*
X387632Y216359D02*
X391569Y209540D01*
X498098Y177596D02*
X504988D01*
X498098Y189604D02*
X504988D01*
X498098Y177596D02*
Y189604D01*
X504988Y177596D02*
Y189604D01*
X526861Y243633D02*
Y251507D01*
X521939Y243633D02*
Y251507D01*
X526861D01*
X521939Y243633D02*
X526861D01*
X521939Y236380D02*
X526861D01*
X521939Y228505D02*
X526861D01*
Y236380D01*
X521939Y228505D02*
Y236380D01*
M02*
