G04*
G04 #@! TF.GenerationSoftware,Altium Limited,Altium Designer,18.1.9 (240)*
G04*
G04 Layer_Color=16711935*
%FSLAX25Y25*%
%MOIN*%
G70*
G01*
G75*
%ADD30R,0.04300X0.04300*%
%ADD35R,0.04300X0.04300*%
%ADD39R,0.00800X0.00800*%
%ADD40R,0.06706X0.06706*%
%ADD41C,0.06706*%
%ADD42C,0.16548*%
%ADD61R,0.11430X0.12611*%
%ADD62R,0.07493X0.03162*%
%ADD63O,0.07493X0.01981*%
%ADD64O,0.01981X0.07493*%
%ADD65R,0.01981X0.05918*%
%ADD66R,0.07887X0.09461*%
%ADD67R,0.03950X0.03950*%
%ADD68R,0.04737X0.03950*%
%ADD69R,0.05131X0.03162*%
%ADD70R,0.04737X0.06312*%
%ADD71R,0.05524X0.05918*%
%ADD72R,0.03556X0.06706*%
D30*
X425188Y181800D02*
D03*
X418688D02*
D03*
X506067Y168028D02*
D03*
X499567D02*
D03*
X506067Y173000D02*
D03*
X499567D02*
D03*
X506634Y193228D02*
D03*
X500134D02*
D03*
X506634Y199800D02*
D03*
X500134D02*
D03*
X404517Y201000D02*
D03*
X411017D02*
D03*
X404517Y212400D02*
D03*
X411017D02*
D03*
X404517Y206700D02*
D03*
X411017D02*
D03*
D35*
X499800Y229550D02*
D03*
Y236050D02*
D03*
X456000Y232200D02*
D03*
Y238700D02*
D03*
X446400Y272815D02*
D03*
Y279315D02*
D03*
X500726Y270876D02*
D03*
Y264376D02*
D03*
X459000Y279273D02*
D03*
Y285773D02*
D03*
X327600Y262450D02*
D03*
Y255950D02*
D03*
X446400Y262550D02*
D03*
Y269050D02*
D03*
X481800Y279273D02*
D03*
Y285773D02*
D03*
X506650Y270876D02*
D03*
Y264376D02*
D03*
X332400Y262450D02*
D03*
Y255950D02*
D03*
D39*
X496257Y285469D02*
D03*
X503343D02*
D03*
D40*
X397041Y281400D02*
D03*
X346063Y263071D02*
D03*
D41*
X397041Y271400D02*
D03*
X346063Y253071D02*
D03*
Y243071D02*
D03*
Y233071D02*
D03*
Y223071D02*
D03*
Y213071D02*
D03*
D42*
X324671Y160200D02*
D03*
X521800D02*
D03*
X324600Y278740D02*
D03*
X521871D02*
D03*
X362008Y197047D02*
D03*
X362205Y278740D02*
D03*
D61*
X521211Y258494D02*
D03*
Y215384D02*
D03*
D62*
X509400Y244321D02*
D03*
Y239400D02*
D03*
Y234479D02*
D03*
Y229557D02*
D03*
Y224636D02*
D03*
Y249242D02*
D03*
D63*
X456890Y266339D02*
D03*
Y264370D02*
D03*
Y262402D02*
D03*
Y260433D02*
D03*
Y258465D02*
D03*
Y256496D02*
D03*
Y254528D02*
D03*
Y252559D02*
D03*
Y250590D02*
D03*
Y248622D02*
D03*
Y246654D02*
D03*
Y244685D02*
D03*
X488779D02*
D03*
Y246654D02*
D03*
Y248622D02*
D03*
Y250590D02*
D03*
Y252559D02*
D03*
Y254528D02*
D03*
Y256496D02*
D03*
Y258465D02*
D03*
Y260433D02*
D03*
Y262402D02*
D03*
Y264370D02*
D03*
Y266339D02*
D03*
D64*
X462008Y239567D02*
D03*
X463976D02*
D03*
X465945D02*
D03*
X467913D02*
D03*
X469882D02*
D03*
X471850D02*
D03*
X473819D02*
D03*
X475787D02*
D03*
X477756D02*
D03*
X479724D02*
D03*
X481693D02*
D03*
X483661D02*
D03*
Y271457D02*
D03*
X481693D02*
D03*
X479724D02*
D03*
X477756D02*
D03*
X475787D02*
D03*
X473819D02*
D03*
X471850D02*
D03*
X469882D02*
D03*
X467913D02*
D03*
X465945D02*
D03*
X463976D02*
D03*
X462008D02*
D03*
D65*
X472244Y229909D02*
D03*
X474213D02*
D03*
X476181D02*
D03*
X478150D02*
D03*
X480118D02*
D03*
X482087D02*
D03*
X484055D02*
D03*
X470276D02*
D03*
D66*
X463779Y220079D02*
D03*
X490551Y220079D02*
D03*
D67*
X417469Y201600D02*
D03*
X426131D02*
D03*
D68*
X425540Y195000D02*
D03*
Y187520D02*
D03*
X418060Y191260D02*
D03*
D69*
X496819Y187340D02*
D03*
Y179860D02*
D03*
X506268D02*
D03*
Y183600D02*
D03*
Y187340D02*
D03*
D70*
X464888Y282780D02*
D03*
X475912D02*
D03*
D71*
X507674Y288225D02*
D03*
X491926D02*
D03*
D72*
X506493Y279564D02*
D03*
X493107D02*
D03*
M02*
