G04*
G04 #@! TF.GenerationSoftware,Altium Limited,Altium Designer,18.1.9 (240)*
G04*
G04 Layer_Color=32768*
%FSLAX25Y25*%
%MOIN*%
G70*
G01*
G75*
%ADD76C,0.00394*%
%ADD77C,0.00197*%
%ADD78C,0.00200*%
D76*
X390027Y201384D02*
X393437Y199416D01*
X390747Y198695D02*
X392716Y202105D01*
X401314Y207200D02*
X405251D01*
X403283Y205231D02*
Y209169D01*
X470866Y255512D02*
X474803D01*
X472835Y253543D02*
Y257480D01*
X419832Y191260D02*
X423769D01*
X421800Y189291D02*
Y193228D01*
X432163Y271200D02*
X436100D01*
X434131Y269232D02*
Y273168D01*
X390747Y215885D02*
X392716Y212475D01*
X390027Y213196D02*
X393437Y215164D01*
X501543Y181632D02*
Y185568D01*
X499575Y183600D02*
X503512D01*
X522432Y247570D02*
X526369D01*
X524400Y245602D02*
Y249539D01*
Y230474D02*
Y234411D01*
X522432Y232442D02*
X526369D01*
D77*
X391355Y192662D02*
X398245Y204595D01*
X385218Y196205D02*
X392108Y208138D01*
X398245Y204595D01*
X385218Y196205D02*
X391355Y192662D01*
X410173Y203657D02*
Y210743D01*
X396393Y203657D02*
Y210743D01*
Y203657D02*
X410173D01*
X396393Y210743D02*
X410173D01*
X493307Y235039D02*
Y275984D01*
X452362Y235039D02*
Y275984D01*
Y235039D02*
X493307D01*
X452362Y275984D02*
X493307D01*
X429477Y184370D02*
Y198150D01*
X414123Y184370D02*
Y198150D01*
X429477D01*
X414123Y184370D02*
X429477D01*
X441218Y263326D02*
Y279074D01*
X427045Y263326D02*
Y279074D01*
X441218D01*
X427045Y263326D02*
X441218D01*
X385218Y218375D02*
X391355Y221918D01*
X392108Y206442D02*
X398245Y209985D01*
X391355Y221918D02*
X398245Y209985D01*
X385218Y218375D02*
X392108Y206442D01*
X493669Y176513D02*
X509417D01*
X493669Y190687D02*
X509417D01*
X493669Y176513D02*
Y190687D01*
X509417Y176513D02*
Y190687D01*
X527943Y240680D02*
Y254460D01*
X520857Y240680D02*
Y254460D01*
X527943D01*
X520857Y240680D02*
X527943D01*
X520857Y239332D02*
X527943D01*
X520857Y225553D02*
X527943D01*
Y239332D01*
X520857Y225553D02*
Y239332D01*
D78*
X499658Y235721D02*
Y236721D01*
Y236221D02*
X500158D01*
X499158D02*
X499658D01*
X455858Y238371D02*
Y239371D01*
Y238871D02*
X456358D01*
X455358D02*
X455858D01*
X446258Y278986D02*
Y279986D01*
Y279486D02*
X446758D01*
X445758D02*
X446258D01*
X418017Y181658D02*
X419017D01*
X418517D02*
Y182158D01*
Y181158D02*
Y181658D01*
X430346Y285750D02*
X431346D01*
X430846Y285250D02*
Y285750D01*
Y286250D01*
X430346Y280659D02*
X431346D01*
X430846Y280159D02*
Y280659D01*
Y281159D01*
X498895Y167887D02*
X499895D01*
X499395D02*
Y168387D01*
Y167387D02*
Y167887D01*
X498895Y172858D02*
X499895D01*
X499395D02*
Y173358D01*
Y172358D02*
Y172858D01*
X499462Y193087D02*
X500462D01*
X499962D02*
Y193587D01*
Y192587D02*
Y193087D01*
X499462Y199658D02*
X500462D01*
X499962D02*
Y200158D01*
Y199158D02*
Y199658D01*
X524258Y214479D02*
Y215479D01*
Y214979D02*
X524758D01*
X523758D02*
X524258D01*
X500084Y271047D02*
X500584D01*
X501084D01*
X500584Y270548D02*
Y271548D01*
X459142Y279102D02*
X459642D01*
X458642D02*
X459142D01*
Y278602D02*
Y279602D01*
X404346Y200358D02*
Y200858D01*
Y201358D01*
X403846Y200858D02*
X404846D01*
X404346Y211758D02*
Y212258D01*
Y212758D01*
X403846Y212258D02*
X404846D01*
X404346Y206058D02*
Y206558D01*
Y207058D01*
X403846Y206558D02*
X404846D01*
X326958Y262621D02*
X327458D01*
X327958D01*
X327458Y262121D02*
Y263121D01*
X446542Y262379D02*
X447042D01*
X446042D02*
X446542D01*
Y261879D02*
Y262879D01*
X481942Y279102D02*
X482442D01*
X481442D02*
X481942D01*
Y278602D02*
Y279602D01*
X506008Y271047D02*
X506508D01*
X507008D01*
X506508Y270548D02*
Y271548D01*
X331758Y262621D02*
X332258D01*
X332758D01*
X332258Y262121D02*
Y263121D01*
M02*
