G04*
G04 #@! TF.GenerationSoftware,Altium Limited,Altium Designer,18.1.9 (240)*
G04*
G04 Layer_Color=255*
%FSLAX25Y25*%
%MOIN*%
G70*
G01*
G75*
%ADD18R,0.03500X0.03500*%
%ADD23R,0.03500X0.03500*%
%ADD45R,0.05906X0.05906*%
%ADD46C,0.05906*%
%ADD49R,0.10630X0.11811*%
%ADD50R,0.06693X0.02362*%
%ADD51O,0.06693X0.01181*%
%ADD52O,0.01181X0.06693*%
%ADD53R,0.01181X0.05118*%
%ADD54R,0.07087X0.08661*%
%ADD55R,0.03150X0.03150*%
%ADD56R,0.03937X0.03150*%
%ADD57R,0.04331X0.02362*%
%ADD58R,0.03937X0.05512*%
%ADD59R,0.04724X0.05118*%
%ADD60R,0.02756X0.05906*%
D18*
X425188Y181800D02*
D03*
X418688D02*
D03*
X506067Y168028D02*
D03*
X499567D02*
D03*
X506067Y173000D02*
D03*
X499567D02*
D03*
X506634Y193228D02*
D03*
X500134D02*
D03*
X506634Y199800D02*
D03*
X500134D02*
D03*
X404517Y201000D02*
D03*
X411017D02*
D03*
X404517Y212400D02*
D03*
X411017D02*
D03*
X404517Y206700D02*
D03*
X411017D02*
D03*
D23*
X499800Y229550D02*
D03*
Y236050D02*
D03*
X456000Y232200D02*
D03*
Y238700D02*
D03*
X446400Y272815D02*
D03*
Y279315D02*
D03*
X500726Y270876D02*
D03*
Y264376D02*
D03*
X459000Y279273D02*
D03*
Y285773D02*
D03*
X327600Y262450D02*
D03*
Y255950D02*
D03*
X446400Y262550D02*
D03*
Y269050D02*
D03*
X481800Y279273D02*
D03*
Y285773D02*
D03*
X506650Y270876D02*
D03*
Y264376D02*
D03*
X332400Y262450D02*
D03*
Y255950D02*
D03*
D45*
X397041Y281400D02*
D03*
X346063Y263071D02*
D03*
D46*
X397041Y271400D02*
D03*
X346063Y253071D02*
D03*
Y243071D02*
D03*
Y233071D02*
D03*
Y223071D02*
D03*
Y213071D02*
D03*
D49*
X521211Y258494D02*
D03*
Y215384D02*
D03*
D50*
X509400Y244321D02*
D03*
Y239400D02*
D03*
Y234479D02*
D03*
Y229557D02*
D03*
Y224636D02*
D03*
Y249242D02*
D03*
D51*
X456890Y266339D02*
D03*
Y264370D02*
D03*
Y262402D02*
D03*
Y260433D02*
D03*
Y258465D02*
D03*
Y256496D02*
D03*
Y254528D02*
D03*
Y252559D02*
D03*
Y250590D02*
D03*
Y248622D02*
D03*
Y246654D02*
D03*
Y244685D02*
D03*
X488779D02*
D03*
Y246654D02*
D03*
Y248622D02*
D03*
Y250590D02*
D03*
Y252559D02*
D03*
Y254528D02*
D03*
Y256496D02*
D03*
Y258465D02*
D03*
Y260433D02*
D03*
Y262402D02*
D03*
Y264370D02*
D03*
Y266339D02*
D03*
D52*
X462008Y239567D02*
D03*
X463976D02*
D03*
X465945D02*
D03*
X467913D02*
D03*
X469882D02*
D03*
X471850D02*
D03*
X473819D02*
D03*
X475787D02*
D03*
X477756D02*
D03*
X479724D02*
D03*
X481693D02*
D03*
X483661D02*
D03*
Y271457D02*
D03*
X481693D02*
D03*
X479724D02*
D03*
X477756D02*
D03*
X475787D02*
D03*
X473819D02*
D03*
X471850D02*
D03*
X469882D02*
D03*
X467913D02*
D03*
X465945D02*
D03*
X463976D02*
D03*
X462008D02*
D03*
D53*
X472244Y229909D02*
D03*
X474213D02*
D03*
X476181D02*
D03*
X478150D02*
D03*
X480118D02*
D03*
X482087D02*
D03*
X484055D02*
D03*
X470276D02*
D03*
D54*
X463779Y220079D02*
D03*
X490551Y220079D02*
D03*
D55*
X417469Y201600D02*
D03*
X426131D02*
D03*
D56*
X425540Y195000D02*
D03*
Y187520D02*
D03*
X418060Y191260D02*
D03*
D57*
X496819Y187340D02*
D03*
Y179860D02*
D03*
X506268D02*
D03*
Y183600D02*
D03*
Y187340D02*
D03*
D58*
X464888Y282780D02*
D03*
X475912D02*
D03*
D59*
X507674Y288225D02*
D03*
X491926D02*
D03*
D60*
X506493Y279564D02*
D03*
X493107D02*
D03*
M02*
