G04*
G04 #@! TF.GenerationSoftware,Altium Limited,Altium Designer,18.1.9 (240)*
G04*
G04 Layer_Physical_Order=2*
G04 Layer_Color=16711680*
%FSLAX25Y25*%
%MOIN*%
G70*
G01*
G75*
%ADD11C,0.01000*%
%ADD13C,0.00600*%
%ADD18R,0.03500X0.03500*%
%ADD23R,0.03500X0.03500*%
%ADD43C,0.01200*%
%ADD45R,0.05906X0.05906*%
%ADD46C,0.05906*%
%ADD47C,0.02400*%
%ADD48C,0.15748*%
%ADD49R,0.10630X0.11811*%
%ADD50R,0.06693X0.02362*%
%ADD51O,0.06693X0.01181*%
%ADD52O,0.01181X0.06693*%
%ADD53R,0.01181X0.05118*%
%ADD54R,0.07087X0.08661*%
%ADD55R,0.03150X0.03150*%
%ADD56R,0.03937X0.03150*%
%ADD57R,0.04331X0.02362*%
%ADD58R,0.03937X0.05512*%
%ADD59R,0.04724X0.05118*%
%ADD60R,0.02756X0.05906*%
G36*
X462932Y280036D02*
X462927Y280100D01*
X462915Y280149D01*
X462893Y280183D01*
X462864Y280200D01*
X462826Y280202D01*
X462779Y280188D01*
X462724Y280158D01*
X462660Y280113D01*
X462588Y280051D01*
X462507Y279975D01*
Y280823D01*
X462590Y280909D01*
X462664Y280996D01*
X462729Y281081D01*
X462785Y281167D01*
X462833Y281252D01*
X462872Y281336D01*
X462903Y281421D01*
X462925Y281505D01*
X462939Y281588D01*
X462944Y281672D01*
X462932Y280036D01*
D02*
G37*
G36*
X477861Y281588D02*
X477875Y281505D01*
X477897Y281421D01*
X477928Y281336D01*
X477967Y281252D01*
X478015Y281167D01*
X478071Y281081D01*
X478136Y280996D01*
X478210Y280909D01*
X478293Y280823D01*
Y279975D01*
X478277Y279986D01*
X478256Y279996D01*
X478229Y280006D01*
X478195Y280014D01*
X478156Y280020D01*
X478059Y280030D01*
X477938Y280035D01*
X477868Y280036D01*
X477856Y281672D01*
X477861Y281588D01*
D02*
G37*
G36*
X466838D02*
X466851Y281505D01*
X466873Y281421D01*
X466904Y281336D01*
X466943Y281252D01*
X466991Y281167D01*
X467048Y281081D01*
X467113Y280996D01*
X467187Y280909D01*
X467269Y280823D01*
Y279975D01*
X467254Y279986D01*
X467232Y279996D01*
X467205Y280006D01*
X467172Y280014D01*
X467132Y280020D01*
X467035Y280030D01*
X466914Y280035D01*
X466845Y280036D01*
X466833Y281672D01*
X466838Y281588D01*
D02*
G37*
G36*
X475201Y280043D02*
X475117Y280029D01*
X475033Y280007D01*
X474949Y279976D01*
X474864Y279937D01*
X474779Y279889D01*
X474694Y279832D01*
X474608Y279767D01*
X474522Y279694D01*
X474436Y279611D01*
X473587D01*
X473657Y279682D01*
X473941Y280001D01*
X473952Y280021D01*
X473955Y280036D01*
X475284Y280048D01*
X475201Y280043D01*
D02*
G37*
G36*
X480074Y278673D02*
X480068Y278730D01*
X480050Y278781D01*
X480019Y278826D01*
X479976Y278865D01*
X479921Y278898D01*
X479854Y278925D01*
X479774Y278946D01*
X479682Y278961D01*
X479578Y278970D01*
X479462Y278973D01*
Y279573D01*
X479578Y279576D01*
X479682Y279585D01*
X479774Y279600D01*
X479854Y279621D01*
X479921Y279648D01*
X479976Y279681D01*
X480019Y279720D01*
X480050Y279765D01*
X480068Y279816D01*
X480074Y279873D01*
Y278673D01*
D02*
G37*
G36*
X460744Y279816D02*
X460762Y279765D01*
X460792Y279720D01*
X460834Y279681D01*
X460888Y279648D01*
X460954Y279621D01*
X461032Y279600D01*
X461122Y279585D01*
X461224Y279576D01*
X461338Y279573D01*
Y278973D01*
X461224Y278970D01*
X461122Y278961D01*
X461032Y278946D01*
X460954Y278925D01*
X460888Y278898D01*
X460834Y278865D01*
X460792Y278826D01*
X460762Y278781D01*
X460744Y278730D01*
X460738Y278673D01*
Y279873D01*
X460744Y279816D01*
D02*
G37*
G36*
X448138Y280401D02*
X448174Y280299D01*
X448235Y280209D01*
X448320Y280131D01*
X448429Y280065D01*
X448562Y280011D01*
X448720Y279969D01*
X448902Y279939D01*
X449108Y279921D01*
X449338Y279915D01*
Y278715D01*
X449108Y278709D01*
X448902Y278691D01*
X448720Y278661D01*
X448562Y278619D01*
X448429Y278565D01*
X448320Y278499D01*
X448235Y278421D01*
X448174Y278331D01*
X448138Y278229D01*
X448126Y278115D01*
Y280515D01*
X448138Y280401D01*
D02*
G37*
G36*
X507137Y278038D02*
X506965Y277829D01*
X506894Y277725D01*
X506835Y277622D01*
X506786Y277520D01*
X506749Y277418D01*
X506722Y277318D01*
X506705Y277218D01*
X506700Y277118D01*
X506100D01*
X506095Y277218D01*
X506078Y277318D01*
X506051Y277418D01*
X506014Y277520D01*
X505965Y277622D01*
X505906Y277725D01*
X505835Y277829D01*
X505754Y277933D01*
X505663Y278038D01*
X505560Y278143D01*
X507240D01*
X507137Y278038D01*
D02*
G37*
G36*
X506943Y276629D02*
X506892Y276611D01*
X506847Y276580D01*
X506808Y276537D01*
X506775Y276482D01*
X506748Y276415D01*
X506727Y276335D01*
X506712Y276243D01*
X506703Y276139D01*
X506700Y276023D01*
X506100D01*
X506097Y276139D01*
X506088Y276243D01*
X506073Y276335D01*
X506052Y276415D01*
X506025Y276482D01*
X505992Y276537D01*
X505953Y276580D01*
X505908Y276611D01*
X505857Y276629D01*
X505800Y276635D01*
X507000D01*
X506943Y276629D01*
D02*
G37*
G36*
X475188Y276000D02*
X475041Y275998D01*
X474771Y275972D01*
X474648Y275949D01*
X474533Y275918D01*
X474427Y275880D01*
X474328Y275835D01*
X474238Y275783D01*
X474156Y275724D01*
X474081Y275657D01*
X473657Y276081D01*
X473724Y276156D01*
X473783Y276238D01*
X473835Y276328D01*
X473880Y276427D01*
X473918Y276533D01*
X473949Y276648D01*
X473972Y276771D01*
X473989Y276902D01*
X473998Y277041D01*
X474000Y277188D01*
X475188Y276000D01*
D02*
G37*
G36*
X474121Y275209D02*
X474141Y275018D01*
X474158Y274927D01*
X474180Y274839D01*
X474207Y274753D01*
X474239Y274671D01*
X474276Y274590D01*
X474317Y274513D01*
X474364Y274438D01*
X473274D01*
X473320Y274513D01*
X473362Y274590D01*
X473399Y274671D01*
X473431Y274753D01*
X473458Y274839D01*
X473480Y274927D01*
X473497Y275018D01*
X473509Y275112D01*
X473516Y275209D01*
X473519Y275308D01*
X474119D01*
X474121Y275209D01*
D02*
G37*
G36*
X472153D02*
X472172Y275018D01*
X472190Y274927D01*
X472212Y274839D01*
X472239Y274753D01*
X472270Y274671D01*
X472307Y274590D01*
X472349Y274513D01*
X472395Y274438D01*
X471305D01*
X471352Y274513D01*
X471394Y274590D01*
X471430Y274671D01*
X471462Y274753D01*
X471489Y274839D01*
X471511Y274927D01*
X471528Y275018D01*
X471541Y275112D01*
X471548Y275209D01*
X471550Y275308D01*
X472150D01*
X472153Y275209D01*
D02*
G37*
G36*
X470184D02*
X470204Y275018D01*
X470221Y274927D01*
X470243Y274839D01*
X470270Y274753D01*
X470302Y274671D01*
X470339Y274590D01*
X470380Y274513D01*
X470427Y274438D01*
X469337D01*
X469383Y274513D01*
X469425Y274590D01*
X469462Y274671D01*
X469494Y274753D01*
X469521Y274839D01*
X469543Y274927D01*
X469560Y275018D01*
X469572Y275112D01*
X469579Y275209D01*
X469582Y275308D01*
X470182D01*
X470184Y275209D01*
D02*
G37*
G36*
X506703Y273098D02*
X506712Y272994D01*
X506727Y272902D01*
X506748Y272822D01*
X506775Y272755D01*
X506808Y272700D01*
X506847Y272657D01*
X506892Y272627D01*
X506943Y272608D01*
X507000Y272602D01*
X505800D01*
X505857Y272608D01*
X505908Y272627D01*
X505953Y272657D01*
X505992Y272700D01*
X506025Y272755D01*
X506052Y272822D01*
X506073Y272902D01*
X506088Y272994D01*
X506097Y273098D01*
X506100Y273214D01*
X506700D01*
X506703Y273098D01*
D02*
G37*
G36*
X456473Y273379D02*
X456651Y273228D01*
X456736Y273167D01*
X456818Y273115D01*
X456897Y273073D01*
X456974Y273041D01*
X457048Y273018D01*
X457119Y273004D01*
X457188Y273000D01*
X456000Y271812D01*
X455996Y271881D01*
X455982Y271952D01*
X455959Y272026D01*
X455927Y272102D01*
X455885Y272182D01*
X455833Y272264D01*
X455772Y272349D01*
X455701Y272436D01*
X455532Y272620D01*
X456380Y273468D01*
X456473Y273379D01*
D02*
G37*
G36*
X458298Y272302D02*
X458346Y272251D01*
X458403Y272205D01*
X458471Y272166D01*
X458549Y272132D01*
X458637Y272105D01*
X458736Y272084D01*
X458844Y272069D01*
X458963Y272060D01*
X459092Y272057D01*
X458662Y270857D01*
X458529Y270856D01*
X458014Y270818D01*
X457941Y270804D01*
X457878Y270788D01*
X457824Y270770D01*
X457781Y270750D01*
X458261Y272360D01*
X458298Y272302D01*
D02*
G37*
G36*
X495908Y271671D02*
X495968Y271630D01*
X496037Y271594D01*
X496114Y271563D01*
X496200Y271536D01*
X496295Y271515D01*
X496398Y271498D01*
X496510Y271486D01*
X496759Y271476D01*
Y270276D01*
X496630Y270274D01*
X496398Y270255D01*
X496295Y270238D01*
X496200Y270216D01*
X496114Y270190D01*
X496037Y270159D01*
X495968Y270123D01*
X495908Y270082D01*
X495857Y270036D01*
Y271716D01*
X495908Y271671D01*
D02*
G37*
G36*
X498988Y269676D02*
X498976Y269790D01*
X498940Y269892D01*
X498880Y269982D01*
X498796Y270060D01*
X498688Y270126D01*
X498556Y270180D01*
X498400Y270222D01*
X498220Y270252D01*
X498016Y270270D01*
X497788Y270276D01*
Y271476D01*
X498016Y271482D01*
X498220Y271500D01*
X498400Y271530D01*
X498556Y271572D01*
X498688Y271626D01*
X498796Y271692D01*
X498880Y271770D01*
X498940Y271860D01*
X498976Y271962D01*
X498988Y272076D01*
Y269676D01*
D02*
G37*
G36*
X461430Y270257D02*
Y269170D01*
X461421Y269325D01*
X461396Y269445D01*
X461352Y269531D01*
X461292Y269583D01*
X461215Y269600D01*
X461120Y269583D01*
X461008Y269531D01*
X460879Y269445D01*
X460733Y269325D01*
X460569Y269170D01*
Y270840D01*
X460448Y270851D01*
X460218Y270857D01*
Y272057D01*
X460448Y272063D01*
X460654Y272081D01*
X460836Y272111D01*
X460994Y272153D01*
X461127Y272207D01*
X461236Y272273D01*
X461321Y272351D01*
X461381Y272441D01*
X461418Y272543D01*
X461430Y272657D01*
Y270257D01*
D02*
G37*
G36*
X506253Y269145D02*
X506169Y269132D01*
X506085Y269110D01*
X506001Y269079D01*
X505916Y269039D01*
X505831Y268991D01*
X505746Y268935D01*
X505660Y268870D01*
X505574Y268796D01*
X505488Y268714D01*
X504639D01*
X504691Y268767D01*
X504814Y268913D01*
X504844Y268956D01*
X504868Y268998D01*
X504887Y269037D01*
X504901Y269073D01*
X504909Y269107D01*
X504912Y269138D01*
X506336Y269150D01*
X506253Y269145D01*
D02*
G37*
G36*
X459022Y267614D02*
X458901Y267467D01*
X458815Y267338D01*
X458764Y267226D01*
X458746Y267132D01*
X458764Y267054D01*
X458815Y266994D01*
X458901Y266951D01*
X459022Y266925D01*
X459177Y266916D01*
X455783D01*
X455950Y266925D01*
X456118Y266951D01*
X456287Y266994D01*
X456456Y267054D01*
X456625Y267132D01*
X456795Y267226D01*
X456965Y267338D01*
X457136Y267467D01*
X457308Y267614D01*
X457480Y267777D01*
X459177D01*
X459022Y267614D01*
D02*
G37*
G36*
X430900Y267430D02*
X430919Y267198D01*
X430936Y267095D01*
X430957Y267000D01*
X430984Y266914D01*
X431015Y266837D01*
X431051Y266768D01*
X431092Y266708D01*
X431137Y266657D01*
X429457D01*
X429503Y266708D01*
X429544Y266768D01*
X429580Y266837D01*
X429611Y266914D01*
X429637Y267000D01*
X429659Y267095D01*
X429676Y267198D01*
X429688Y267310D01*
X429697Y267559D01*
X430897D01*
X430900Y267430D01*
D02*
G37*
G36*
X502888Y266114D02*
X502768Y265990D01*
X502579Y265768D01*
X502510Y265670D01*
X502458Y265581D01*
X502423Y265500D01*
X502404Y265429D01*
X502403Y265366D01*
X502419Y265311D01*
X502452Y265266D01*
X501615Y266102D01*
X501661Y266070D01*
X501715Y266054D01*
X501778Y266055D01*
X501850Y266073D01*
X501930Y266108D01*
X502020Y266160D01*
X502117Y266229D01*
X502224Y266316D01*
X502464Y266539D01*
X502888Y266114D01*
D02*
G37*
G36*
X438748Y266537D02*
X438957Y266365D01*
X439061Y266294D01*
X439163Y266235D01*
X439266Y266186D01*
X439367Y266149D01*
X439468Y266122D01*
X439568Y266105D01*
X439668Y266100D01*
Y265500D01*
X439568Y265495D01*
X439468Y265478D01*
X439367Y265451D01*
X439266Y265414D01*
X439163Y265365D01*
X439061Y265306D01*
X438957Y265235D01*
X438853Y265154D01*
X438748Y265063D01*
X438643Y264960D01*
Y266640D01*
X438748Y266537D01*
D02*
G37*
G36*
X469929Y263760D02*
X469989Y263733D01*
X470057Y263709D01*
X470134Y263689D01*
X470220Y263671D01*
X470420Y263646D01*
X470532Y263638D01*
X470785Y263632D01*
X471062Y262432D01*
X470933Y262429D01*
X470704Y262406D01*
X470604Y262385D01*
X470513Y262359D01*
X470432Y262327D01*
X470361Y262289D01*
X470298Y262246D01*
X470246Y262196D01*
X470203Y262141D01*
X469879Y263790D01*
X469929Y263760D01*
D02*
G37*
G36*
X485798Y261857D02*
X485723Y261903D01*
X485646Y261945D01*
X485566Y261982D01*
X485483Y262013D01*
X485397Y262040D01*
X485309Y262062D01*
X485218Y262080D01*
X485124Y262092D01*
X485028Y262099D01*
X484928Y262102D01*
Y262702D01*
X485028Y262704D01*
X485218Y262724D01*
X485309Y262741D01*
X485397Y262763D01*
X485483Y262790D01*
X485566Y262822D01*
X485646Y262858D01*
X485723Y262900D01*
X485798Y262947D01*
Y261857D01*
D02*
G37*
G36*
X453908D02*
X453833Y261903D01*
X453756Y261945D01*
X453676Y261982D01*
X453593Y262013D01*
X453507Y262040D01*
X453419Y262062D01*
X453328Y262080D01*
X453234Y262092D01*
X453138Y262099D01*
X453039Y262102D01*
Y262702D01*
X453138Y262704D01*
X453328Y262724D01*
X453419Y262741D01*
X453507Y262763D01*
X453593Y262790D01*
X453676Y262822D01*
X453756Y262858D01*
X453833Y262900D01*
X453908Y262947D01*
Y261857D01*
D02*
G37*
G36*
X480113Y262119D02*
X480046Y262044D01*
X479987Y261962D01*
X479935Y261872D01*
X479890Y261773D01*
X479852Y261667D01*
X479821Y261552D01*
X479798Y261429D01*
X479781Y261298D01*
X479772Y261159D01*
X479770Y261012D01*
X478582Y262200D01*
X478729Y262202D01*
X478999Y262228D01*
X479122Y262251D01*
X479237Y262282D01*
X479343Y262320D01*
X479442Y262365D01*
X479532Y262417D01*
X479614Y262476D01*
X479689Y262543D01*
X480113Y262119D01*
D02*
G37*
G36*
X446791Y260820D02*
X446772Y260807D01*
X446755Y260786D01*
X446740Y260756D01*
X446728Y260718D01*
X446718Y260671D01*
X446710Y260616D01*
X446704Y260553D01*
X446700Y260400D01*
X446100D01*
X446099Y260481D01*
X446082Y260671D01*
X446072Y260718D01*
X446060Y260756D01*
X446045Y260786D01*
X446028Y260807D01*
X446009Y260820D01*
X445988Y260824D01*
X446812D01*
X446791Y260820D01*
D02*
G37*
G36*
X485798Y259888D02*
X485723Y259935D01*
X485646Y259976D01*
X485566Y260013D01*
X485483Y260045D01*
X485397Y260072D01*
X485309Y260094D01*
X485218Y260111D01*
X485124Y260123D01*
X485028Y260131D01*
X484928Y260133D01*
Y260733D01*
X485028Y260736D01*
X485218Y260755D01*
X485309Y260772D01*
X485397Y260794D01*
X485483Y260821D01*
X485566Y260853D01*
X485646Y260890D01*
X485723Y260931D01*
X485798Y260978D01*
Y259888D01*
D02*
G37*
G36*
X452163Y261171D02*
X452372Y260998D01*
X452475Y260928D01*
X452578Y260868D01*
X452680Y260820D01*
X452781Y260782D01*
X452882Y260755D01*
X452982Y260738D01*
X453068Y260734D01*
X453138Y260736D01*
X453328Y260755D01*
X453419Y260772D01*
X453507Y260794D01*
X453593Y260821D01*
X453676Y260853D01*
X453756Y260890D01*
X453833Y260931D01*
X453908Y260978D01*
Y259888D01*
X453833Y259935D01*
X453756Y259976D01*
X453676Y260013D01*
X453593Y260045D01*
X453507Y260072D01*
X453419Y260094D01*
X453328Y260111D01*
X453234Y260123D01*
X453138Y260131D01*
X453068Y260132D01*
X452982Y260128D01*
X452882Y260111D01*
X452781Y260085D01*
X452680Y260047D01*
X452578Y259998D01*
X452475Y259939D01*
X452372Y259869D01*
X452267Y259788D01*
X452163Y259696D01*
X452057Y259593D01*
Y261273D01*
X452163Y261171D01*
D02*
G37*
G36*
X483077Y258252D02*
X483031Y258206D01*
X482902Y258058D01*
X482883Y258030D01*
X482870Y258007D01*
X482862Y257987D01*
X482860Y257971D01*
X482862Y257958D01*
X482358Y258462D01*
X482371Y258459D01*
X482387Y258462D01*
X482407Y258470D01*
X482430Y258483D01*
X482458Y258502D01*
X482489Y258526D01*
X482563Y258591D01*
X482652Y258677D01*
X483077Y258252D01*
D02*
G37*
G36*
X485798Y257920D02*
X485723Y257966D01*
X485646Y258008D01*
X485566Y258045D01*
X485483Y258076D01*
X485397Y258103D01*
X485309Y258125D01*
X485218Y258142D01*
X485124Y258155D01*
X485028Y258162D01*
X484928Y258165D01*
Y258765D01*
X485028Y258767D01*
X485218Y258787D01*
X485309Y258804D01*
X485397Y258826D01*
X485483Y258853D01*
X485566Y258885D01*
X485646Y258921D01*
X485723Y258963D01*
X485798Y259010D01*
Y257920D01*
D02*
G37*
G36*
X453908D02*
X453870Y257941D01*
X453823Y257960D01*
X453767Y257978D01*
X453703Y257992D01*
X453631Y258005D01*
X453460Y258023D01*
X453254Y258032D01*
X453138Y258033D01*
X452978Y258633D01*
X453088Y258636D01*
X453285Y258655D01*
X453371Y258673D01*
X453449Y258695D01*
X453519Y258723D01*
X453581Y258755D01*
X453634Y258792D01*
X453680Y258834D01*
X453717Y258882D01*
X453908Y257920D01*
D02*
G37*
G36*
X480113Y258519D02*
X480046Y258444D01*
X479987Y258362D01*
X479935Y258272D01*
X479890Y258173D01*
X479852Y258067D01*
X479821Y257952D01*
X479798Y257829D01*
X479781Y257698D01*
X479772Y257559D01*
X479770Y257412D01*
X478582Y258600D01*
X478729Y258602D01*
X478999Y258628D01*
X479122Y258651D01*
X479237Y258682D01*
X479343Y258720D01*
X479442Y258765D01*
X479532Y258817D01*
X479614Y258876D01*
X479689Y258943D01*
X480113Y258519D01*
D02*
G37*
G36*
X453908Y255951D02*
X453833Y255998D01*
X453756Y256039D01*
X453676Y256076D01*
X453593Y256108D01*
X453507Y256135D01*
X453419Y256157D01*
X453328Y256174D01*
X453234Y256186D01*
X453138Y256194D01*
X453039Y256196D01*
Y256796D01*
X453138Y256799D01*
X453328Y256818D01*
X453419Y256835D01*
X453507Y256857D01*
X453593Y256884D01*
X453676Y256916D01*
X453756Y256953D01*
X453833Y256995D01*
X453908Y257041D01*
Y255951D01*
D02*
G37*
G36*
X442962Y257144D02*
X443344Y256951D01*
X443461Y256903D01*
X443678Y256835D01*
X443778Y256813D01*
X443872Y256800D01*
X443961Y256796D01*
X444120Y256196D01*
X444015Y256190D01*
X443914Y256172D01*
X443816Y256142D01*
X443722Y256100D01*
X443632Y256046D01*
X443546Y255980D01*
X443463Y255903D01*
X443384Y255813D01*
X443309Y255711D01*
X443238Y255597D01*
X442823Y257225D01*
X442962Y257144D01*
D02*
G37*
G36*
X445463Y254239D02*
X445400Y254170D01*
X445341Y254092D01*
X445284Y254005D01*
X445230Y253909D01*
X445180Y253804D01*
X445132Y253690D01*
X445046Y253435D01*
X445008Y253293D01*
X444972Y253143D01*
X444108Y254560D01*
X444236Y254530D01*
X444358Y254511D01*
X444473Y254503D01*
X444583Y254505D01*
X444687Y254518D01*
X444784Y254541D01*
X444876Y254575D01*
X444962Y254619D01*
X445042Y254674D01*
X445115Y254740D01*
X445463Y254239D01*
D02*
G37*
G36*
X453908Y253983D02*
X453833Y254029D01*
X453756Y254071D01*
X453676Y254107D01*
X453593Y254139D01*
X453507Y254166D01*
X453419Y254188D01*
X453328Y254205D01*
X453234Y254218D01*
X453138Y254225D01*
X453039Y254228D01*
Y254828D01*
X453138Y254830D01*
X453328Y254850D01*
X453419Y254867D01*
X453507Y254889D01*
X453593Y254916D01*
X453676Y254948D01*
X453756Y254984D01*
X453833Y255026D01*
X453908Y255072D01*
Y253983D01*
D02*
G37*
G36*
X332943Y254218D02*
X332892Y254200D01*
X332847Y254169D01*
X332808Y254126D01*
X332775Y254071D01*
X332748Y254004D01*
X332727Y253924D01*
X332712Y253832D01*
X332703Y253728D01*
X332700Y253612D01*
X332100D01*
X332097Y253728D01*
X332088Y253832D01*
X332073Y253924D01*
X332052Y254004D01*
X332025Y254071D01*
X331992Y254126D01*
X331953Y254169D01*
X331908Y254200D01*
X331857Y254218D01*
X331800Y254224D01*
X333000D01*
X332943Y254218D01*
D02*
G37*
G36*
X328143D02*
X328092Y254200D01*
X328047Y254169D01*
X328008Y254126D01*
X327975Y254071D01*
X327948Y254004D01*
X327927Y253924D01*
X327912Y253832D01*
X327903Y253728D01*
X327900Y253612D01*
X327300D01*
X327297Y253728D01*
X327288Y253832D01*
X327273Y253924D01*
X327252Y254004D01*
X327225Y254071D01*
X327192Y254126D01*
X327153Y254169D01*
X327108Y254200D01*
X327057Y254218D01*
X327000Y254224D01*
X328200D01*
X328143Y254218D01*
D02*
G37*
G36*
X453908Y252014D02*
X453833Y252061D01*
X453756Y252102D01*
X453676Y252139D01*
X453593Y252171D01*
X453507Y252198D01*
X453419Y252220D01*
X453328Y252237D01*
X453234Y252249D01*
X453138Y252257D01*
X453039Y252259D01*
Y252859D01*
X453138Y252861D01*
X453328Y252881D01*
X453419Y252898D01*
X453507Y252920D01*
X453593Y252947D01*
X453676Y252979D01*
X453756Y253016D01*
X453833Y253058D01*
X453908Y253104D01*
Y252014D01*
D02*
G37*
G36*
X446904Y251780D02*
X446837Y251705D01*
X446777Y251621D01*
X446726Y251531D01*
X446683Y251432D01*
X446648Y251327D01*
X446622Y251213D01*
X446603Y251092D01*
X446593Y250963D01*
X446591Y250827D01*
X446597Y250683D01*
X445341Y251799D01*
X445491Y251809D01*
X445765Y251849D01*
X445889Y251877D01*
X446005Y251912D01*
X446112Y251953D01*
X446210Y252000D01*
X446300Y252054D01*
X446381Y252113D01*
X446454Y252178D01*
X446904Y251780D01*
D02*
G37*
G36*
X491836Y251089D02*
X491913Y251047D01*
X491993Y251011D01*
X492076Y250979D01*
X492162Y250952D01*
X492250Y250930D01*
X492341Y250913D01*
X492435Y250900D01*
X492532Y250893D01*
X492631Y250890D01*
Y250290D01*
X492532Y250288D01*
X492341Y250269D01*
X492250Y250251D01*
X492162Y250229D01*
X492076Y250202D01*
X491993Y250170D01*
X491913Y250134D01*
X491836Y250092D01*
X491761Y250046D01*
Y251135D01*
X491836Y251089D01*
D02*
G37*
G36*
X453908Y250046D02*
X453833Y250092D01*
X453756Y250134D01*
X453676Y250170D01*
X453593Y250202D01*
X453507Y250229D01*
X453419Y250251D01*
X453328Y250269D01*
X453234Y250281D01*
X453138Y250288D01*
X453039Y250290D01*
Y250890D01*
X453138Y250893D01*
X453328Y250913D01*
X453419Y250930D01*
X453507Y250952D01*
X453593Y250979D01*
X453676Y251011D01*
X453756Y251047D01*
X453833Y251089D01*
X453908Y251135D01*
Y250046D01*
D02*
G37*
G36*
X493903Y249823D02*
X493774Y249912D01*
X493528Y250062D01*
X493411Y250122D01*
X493189Y250216D01*
X493084Y250249D01*
X492983Y250272D01*
X492886Y250286D01*
X492794Y250290D01*
X492683Y250890D01*
X492787Y250896D01*
X492888Y250914D01*
X492987Y250943D01*
X493083Y250985D01*
X493177Y251037D01*
X493269Y251102D01*
X493358Y251178D01*
X493444Y251266D01*
X493528Y251366D01*
X493610Y251478D01*
X493903Y249823D01*
D02*
G37*
G36*
X525194Y249292D02*
X525154Y249232D01*
X525118Y249163D01*
X525086Y249086D01*
X525060Y249000D01*
X525038Y248905D01*
X525022Y248802D01*
X525010Y248690D01*
X525000Y248441D01*
X523800D01*
X523798Y248570D01*
X523778Y248802D01*
X523762Y248905D01*
X523740Y249000D01*
X523714Y249086D01*
X523682Y249163D01*
X523646Y249232D01*
X523606Y249292D01*
X523560Y249343D01*
X525240D01*
X525194Y249292D01*
D02*
G37*
G36*
X491836Y249120D02*
X491913Y249079D01*
X491993Y249042D01*
X492076Y249010D01*
X492162Y248983D01*
X492250Y248961D01*
X492341Y248944D01*
X492435Y248932D01*
X492532Y248924D01*
X492631Y248922D01*
Y248322D01*
X492532Y248320D01*
X492341Y248300D01*
X492250Y248283D01*
X492162Y248261D01*
X492076Y248234D01*
X491993Y248202D01*
X491913Y248165D01*
X491836Y248124D01*
X491761Y248077D01*
Y249167D01*
X491836Y249120D01*
D02*
G37*
G36*
X453908Y248077D02*
X453833Y248124D01*
X453756Y248165D01*
X453676Y248202D01*
X453593Y248234D01*
X453507Y248261D01*
X453419Y248283D01*
X453328Y248300D01*
X453234Y248312D01*
X453138Y248320D01*
X453039Y248322D01*
Y248922D01*
X453138Y248924D01*
X453328Y248944D01*
X453419Y248961D01*
X453507Y248983D01*
X453593Y249010D01*
X453676Y249042D01*
X453756Y249079D01*
X453833Y249120D01*
X453908Y249167D01*
Y248077D01*
D02*
G37*
G36*
X448543Y248919D02*
X448476Y248844D01*
X448417Y248762D01*
X448365Y248672D01*
X448320Y248573D01*
X448282Y248467D01*
X448251Y248352D01*
X448228Y248229D01*
X448211Y248098D01*
X448202Y247959D01*
X448200Y247812D01*
X447012Y249000D01*
X447159Y249002D01*
X447429Y249028D01*
X447552Y249051D01*
X447667Y249082D01*
X447773Y249120D01*
X447872Y249165D01*
X447962Y249217D01*
X448044Y249276D01*
X448119Y249343D01*
X448543Y248919D01*
D02*
G37*
G36*
X453908Y246109D02*
X453833Y246155D01*
X453756Y246197D01*
X453676Y246234D01*
X453593Y246265D01*
X453507Y246292D01*
X453419Y246314D01*
X453328Y246332D01*
X453234Y246344D01*
X453138Y246351D01*
X453039Y246354D01*
Y246954D01*
X453138Y246956D01*
X453328Y246976D01*
X453419Y246993D01*
X453507Y247015D01*
X453593Y247042D01*
X453676Y247074D01*
X453756Y247110D01*
X453833Y247152D01*
X453908Y247199D01*
Y246109D01*
D02*
G37*
G36*
X463964Y245692D02*
X463817Y245690D01*
X463547Y245665D01*
X463424Y245641D01*
X463310Y245610D01*
X463203Y245573D01*
X463105Y245528D01*
X463014Y245475D01*
X462932Y245416D01*
X462858Y245350D01*
X462434Y245774D01*
X462500Y245848D01*
X462559Y245930D01*
X462612Y246021D01*
X462657Y246119D01*
X462695Y246226D01*
X462725Y246340D01*
X462749Y246463D01*
X462765Y246594D01*
X462774Y246733D01*
X462776Y246880D01*
X463964Y245692D01*
D02*
G37*
G36*
X500523Y246045D02*
X500549Y245775D01*
X500572Y245652D01*
X500603Y245537D01*
X500641Y245431D01*
X500686Y245332D01*
X500738Y245242D01*
X500798Y245160D01*
X500864Y245086D01*
X500440Y244661D01*
X500366Y244728D01*
X500283Y244787D01*
X500193Y244839D01*
X500095Y244884D01*
X499988Y244922D01*
X499873Y244953D01*
X499751Y244977D01*
X499620Y244993D01*
X499480Y245002D01*
X499333Y245004D01*
X500521Y246192D01*
X500523Y246045D01*
D02*
G37*
G36*
X459946Y245183D02*
X460023Y245142D01*
X460104Y245105D01*
X460186Y245073D01*
X460272Y245046D01*
X460360Y245024D01*
X460452Y245007D01*
X460545Y244995D01*
X460642Y244988D01*
X460741Y244985D01*
Y244385D01*
X460642Y244383D01*
X460452Y244363D01*
X460360Y244346D01*
X460272Y244324D01*
X460186Y244297D01*
X460104Y244265D01*
X460023Y244228D01*
X459946Y244187D01*
X459871Y244140D01*
Y245230D01*
X459946Y245183D01*
D02*
G37*
G36*
X506077Y243721D02*
X506071Y243778D01*
X506053Y243829D01*
X506023Y243874D01*
X505980Y243913D01*
X505925Y243946D01*
X505857Y243973D01*
X505778Y243994D01*
X505686Y244009D01*
X505582Y244018D01*
X505466Y244021D01*
Y244621D01*
X505582Y244624D01*
X505686Y244633D01*
X505778Y244648D01*
X505857Y244669D01*
X505925Y244696D01*
X505980Y244729D01*
X506023Y244768D01*
X506053Y244813D01*
X506071Y244864D01*
X506077Y244921D01*
Y243721D01*
D02*
G37*
G36*
X465762Y243418D02*
X466245D01*
X466247Y243319D01*
X466248Y243313D01*
X466839Y243184D01*
X466726Y243108D01*
X466625Y243028D01*
X466536Y242946D01*
X466459Y242860D01*
X466393Y242772D01*
X466380Y242748D01*
X466402Y242701D01*
X466443Y242623D01*
X466490Y242549D01*
X466287D01*
X466269Y242487D01*
X466251Y242385D01*
X466245Y242281D01*
X465645Y242416D01*
X465640Y242507D01*
X465635Y242549D01*
X465400D01*
X465447Y242623D01*
X465488Y242701D01*
X465525Y242781D01*
X465555Y242859D01*
X465533Y242919D01*
X465484Y243034D01*
X465358Y243278D01*
X465282Y243407D01*
X465197Y243541D01*
X465762Y243418D01*
D02*
G37*
G36*
X343954Y241004D02*
X343617Y241340D01*
X342707Y242135D01*
X342438Y242329D01*
X342187Y242488D01*
X341953Y242612D01*
X341736Y242700D01*
X341536Y242753D01*
X341354Y242771D01*
Y243371D01*
X341536Y243389D01*
X341736Y243442D01*
X341953Y243530D01*
X342187Y243654D01*
X342438Y243813D01*
X342707Y244007D01*
X343296Y244502D01*
X343617Y244802D01*
X343954Y245138D01*
Y241004D01*
D02*
G37*
G36*
X506077Y238612D02*
X506071Y238696D01*
X506052Y238786D01*
X506019Y238880D01*
X505974Y238979D01*
X505915Y239083D01*
X505844Y239191D01*
X505760Y239304D01*
X505552Y239545D01*
X505429Y239672D01*
X505641Y240309D01*
X505724Y240230D01*
X505798Y240169D01*
X505864Y240125D01*
X505921Y240099D01*
X505969Y240090D01*
X506008Y240099D01*
X506038Y240125D01*
X506060Y240169D01*
X506073Y240230D01*
X506077Y240309D01*
Y238612D01*
D02*
G37*
G36*
X457750Y240387D02*
X457786Y240340D01*
X457846Y240300D01*
X457930Y240265D01*
X458038Y240235D01*
X458170Y240210D01*
X458326Y240191D01*
X458710Y240170D01*
X458938Y240167D01*
Y238967D01*
X458708Y238961D01*
X458503Y238943D01*
X458321Y238913D01*
X458164Y238871D01*
X458031Y238817D01*
X457922Y238751D01*
X457836Y238673D01*
X457776Y238583D01*
X457739Y238481D01*
X457726Y238367D01*
X457729Y238931D01*
X457187Y238787D01*
X456078Y239807D01*
X457443Y240167D01*
X457732Y239347D01*
X457738Y240438D01*
X457750Y240387D01*
D02*
G37*
G36*
X500402Y239679D02*
X500422Y239447D01*
X500438Y239344D01*
X500460Y239249D01*
X500486Y239163D01*
X500518Y239086D01*
X500554Y239017D01*
X500594Y238957D01*
X500640Y238906D01*
X498960D01*
X499006Y238957D01*
X499046Y239017D01*
X499082Y239086D01*
X499114Y239163D01*
X499140Y239249D01*
X499162Y239344D01*
X499178Y239447D01*
X499190Y239559D01*
X499200Y239808D01*
X500400D01*
X500402Y239679D01*
D02*
G37*
G36*
X461430Y238367D02*
X461418Y238481D01*
X461381Y238583D01*
X461321Y238673D01*
X461236Y238751D01*
X461127Y238817D01*
X460994Y238871D01*
X460836Y238913D01*
X460654Y238943D01*
X460448Y238961D01*
X460218Y238967D01*
Y240167D01*
X460448Y240173D01*
X460654Y240191D01*
X460836Y240221D01*
X460994Y240263D01*
X461127Y240317D01*
X461236Y240383D01*
X461321Y240461D01*
X461381Y240551D01*
X461418Y240653D01*
X461430Y240767D01*
Y238367D01*
D02*
G37*
G36*
X470380Y236511D02*
X470339Y236433D01*
X470302Y236353D01*
X470270Y236270D01*
X470243Y236185D01*
X470221Y236096D01*
X470204Y236005D01*
X470192Y235911D01*
X470184Y235815D01*
X470182Y235716D01*
X469582D01*
X469579Y235815D01*
X469560Y236005D01*
X469543Y236096D01*
X469521Y236185D01*
X469494Y236270D01*
X469462Y236353D01*
X469425Y236433D01*
X469383Y236511D01*
X469337Y236585D01*
X470427D01*
X470380Y236511D01*
D02*
G37*
G36*
X468374Y236528D02*
X468340Y236503D01*
X468310Y236462D01*
X468285Y236405D01*
X468263Y236331D01*
X468245Y236241D01*
X468231Y236134D01*
X468215Y235872D01*
X468213Y235716D01*
X467613D01*
X467611Y235872D01*
X467582Y236241D01*
X467564Y236331D01*
X467542Y236405D01*
X467517Y236462D01*
X467487Y236503D01*
X467453Y236528D01*
X467416Y236536D01*
X468411D01*
X468374Y236528D01*
D02*
G37*
G36*
X472387Y236564D02*
X472379Y236526D01*
X472372Y236472D01*
X472362Y236316D01*
X472350Y235642D01*
X471350D01*
X471305Y236585D01*
X472395D01*
X472387Y236564D01*
D02*
G37*
G36*
X476324Y236562D02*
X476316Y236521D01*
X476309Y236461D01*
X476295Y236169D01*
X476287Y235518D01*
X475287D01*
X475242Y236585D01*
X476332D01*
X476324Y236562D01*
D02*
G37*
G36*
X474355D02*
X474348Y236521D01*
X474341Y236461D01*
X474326Y236169D01*
X474319Y235518D01*
X473319D01*
X473274Y236585D01*
X474364D01*
X474355Y236562D01*
D02*
G37*
G36*
X498062Y234312D02*
X498050Y234338D01*
X498014Y234361D01*
X497954Y234382D01*
X497870Y234400D01*
X497762Y234415D01*
X497474Y234436D01*
X496862Y234449D01*
Y235649D01*
X497090Y235655D01*
X497294Y235673D01*
X497474Y235703D01*
X497630Y235745D01*
X497762Y235799D01*
X497870Y235865D01*
X497954Y235943D01*
X498014Y236033D01*
X498050Y236135D01*
X498062Y236249D01*
Y234312D01*
D02*
G37*
G36*
X476682Y233266D02*
X476731Y232497D01*
X476745Y232467D01*
X476760Y232456D01*
X475602D01*
X475618Y232467D01*
X475631Y232497D01*
X475643Y232546D01*
X475653Y232616D01*
X475668Y232817D01*
X475681Y233456D01*
X476681D01*
X476682Y233266D01*
D02*
G37*
G36*
X474713D02*
X474763Y232497D01*
X474776Y232467D01*
X474791Y232456D01*
X473634D01*
X473649Y232467D01*
X473662Y232497D01*
X473674Y232546D01*
X473684Y232616D01*
X473700Y232817D01*
X473713Y233456D01*
X474713D01*
X474713Y233266D01*
D02*
G37*
G36*
X470776D02*
X470826Y232497D01*
X470839Y232467D01*
X470854Y232456D01*
X469697D01*
X469712Y232467D01*
X469725Y232497D01*
X469737Y232546D01*
X469747Y232616D01*
X469763Y232817D01*
X469776Y233456D01*
X470776D01*
X470776Y233266D01*
D02*
G37*
G36*
X343954Y231004D02*
X343617Y231340D01*
X342707Y232135D01*
X342438Y232329D01*
X342187Y232488D01*
X341953Y232612D01*
X341736Y232700D01*
X341536Y232753D01*
X341354Y232771D01*
Y233371D01*
X341536Y233388D01*
X341736Y233441D01*
X341953Y233530D01*
X342187Y233654D01*
X342438Y233813D01*
X342707Y234007D01*
X343296Y234502D01*
X343617Y234802D01*
X343954Y235138D01*
Y231004D01*
D02*
G37*
G36*
X512746Y225697D02*
X512782Y225600D01*
X512843Y225515D01*
X512926Y225441D01*
X513034Y225378D01*
X513166Y225327D01*
X513322Y225287D01*
X513503Y225259D01*
X513706Y225242D01*
X513935Y225236D01*
Y224036D01*
X513706Y224030D01*
X513503Y224013D01*
X513322Y223985D01*
X513166Y223945D01*
X513034Y223894D01*
X512926Y223831D01*
X512843Y223757D01*
X512782Y223672D01*
X512746Y223575D01*
X512735Y223467D01*
Y225805D01*
X512746Y225697D01*
D02*
G37*
G36*
X454394Y221092D02*
X454354Y221032D01*
X454318Y220963D01*
X454286Y220886D01*
X454260Y220800D01*
X454238Y220705D01*
X454222Y220602D01*
X454210Y220490D01*
X454200Y220241D01*
X453000D01*
X452998Y220370D01*
X452978Y220602D01*
X452962Y220705D01*
X452940Y220800D01*
X452914Y220886D01*
X452882Y220963D01*
X452846Y221032D01*
X452806Y221092D01*
X452760Y221143D01*
X454440D01*
X454394Y221092D01*
D02*
G37*
G36*
X390939Y217693D02*
X390952Y217599D01*
X390973Y217506D01*
X391003Y217413D01*
X391042Y217321D01*
X391090Y217230D01*
X391146Y217140D01*
X391212Y217050D01*
X391286Y216961D01*
X391370Y216873D01*
X390663Y216166D01*
X390575Y216249D01*
X390486Y216324D01*
X390396Y216389D01*
X390306Y216446D01*
X390215Y216494D01*
X390123Y216533D01*
X390030Y216563D01*
X389937Y216584D01*
X389843Y216597D01*
X389748Y216600D01*
X390936Y217788D01*
X390939Y217693D01*
D02*
G37*
G36*
X402791Y211400D02*
X402781Y211495D01*
X402750Y211580D01*
X402700Y211655D01*
X402629Y211720D01*
X402538Y211775D01*
X402426Y211820D01*
X402295Y211855D01*
X402143Y211880D01*
X401971Y211895D01*
X401779Y211900D01*
Y212900D01*
X401971Y212905D01*
X402143Y212920D01*
X402295Y212945D01*
X402426Y212980D01*
X402538Y213025D01*
X402629Y213080D01*
X402700Y213145D01*
X402750Y213220D01*
X402781Y213305D01*
X402791Y213400D01*
Y211400D01*
D02*
G37*
G36*
X412749Y211743D02*
X412768Y211692D01*
X412799Y211647D01*
X412842Y211608D01*
X412897Y211575D01*
X412965Y211548D01*
X413044Y211527D01*
X413135Y211512D01*
X413239Y211503D01*
X413355Y211500D01*
Y210900D01*
X413241Y210898D01*
X413049Y210879D01*
X412971Y210862D01*
X412905Y210841D01*
X412851Y210814D01*
X412809Y210783D01*
X412779Y210748D01*
X412761Y210707D01*
X412755Y210662D01*
X412743Y211800D01*
X412749Y211743D01*
D02*
G37*
G36*
X413179Y208438D02*
X413059Y208314D01*
X412870Y208092D01*
X412801Y207994D01*
X412749Y207905D01*
X412714Y207824D01*
X412696Y207752D01*
X412694Y207689D01*
X412710Y207635D01*
X412743Y207590D01*
X411906Y208426D01*
X411952Y208393D01*
X412006Y208378D01*
X412069Y208379D01*
X412141Y208397D01*
X412221Y208432D01*
X412311Y208484D01*
X412409Y208553D01*
X412515Y208639D01*
X412755Y208862D01*
X413179Y208438D01*
D02*
G37*
G36*
X382994Y203692D02*
X382954Y203632D01*
X382918Y203563D01*
X382886Y203486D01*
X382860Y203400D01*
X382838Y203305D01*
X382822Y203202D01*
X382810Y203090D01*
X382800Y202841D01*
X381600D01*
X381598Y202970D01*
X381578Y203202D01*
X381562Y203305D01*
X381540Y203400D01*
X381514Y203486D01*
X381482Y203563D01*
X381446Y203632D01*
X381406Y203692D01*
X381360Y203743D01*
X383040D01*
X382994Y203692D01*
D02*
G37*
G36*
X413179Y202738D02*
X413059Y202614D01*
X412870Y202392D01*
X412801Y202294D01*
X412749Y202205D01*
X412714Y202124D01*
X412696Y202052D01*
X412694Y201989D01*
X412710Y201935D01*
X412743Y201889D01*
X411906Y202726D01*
X411952Y202693D01*
X412006Y202677D01*
X412069Y202679D01*
X412141Y202697D01*
X412221Y202732D01*
X412311Y202784D01*
X412409Y202853D01*
X412515Y202939D01*
X412755Y203162D01*
X413179Y202738D01*
D02*
G37*
G36*
X524388Y201600D02*
X524319Y201596D01*
X524248Y201582D01*
X524174Y201559D01*
X524097Y201527D01*
X524018Y201485D01*
X523936Y201433D01*
X523851Y201372D01*
X523764Y201301D01*
X523580Y201132D01*
X522732Y201980D01*
X522821Y202073D01*
X522972Y202251D01*
X523033Y202336D01*
X523085Y202418D01*
X523127Y202498D01*
X523159Y202574D01*
X523182Y202648D01*
X523196Y202719D01*
X523200Y202788D01*
X524388Y201600D01*
D02*
G37*
G36*
X319994Y201892D02*
X319954Y201832D01*
X319918Y201763D01*
X319886Y201686D01*
X319860Y201600D01*
X319838Y201505D01*
X319822Y201402D01*
X319810Y201290D01*
X319800Y201041D01*
X318600D01*
X318598Y201170D01*
X318578Y201402D01*
X318562Y201505D01*
X318540Y201600D01*
X318514Y201686D01*
X318482Y201763D01*
X318446Y201832D01*
X318406Y201892D01*
X318360Y201943D01*
X320040D01*
X319994Y201892D01*
D02*
G37*
G36*
X402791Y200000D02*
X402781Y200095D01*
X402750Y200180D01*
X402700Y200255D01*
X402629Y200320D01*
X402538Y200375D01*
X402426Y200420D01*
X402295Y200455D01*
X402143Y200480D01*
X401971Y200495D01*
X401779Y200500D01*
Y201500D01*
X401971Y201505D01*
X402143Y201520D01*
X402295Y201545D01*
X402426Y201580D01*
X402538Y201625D01*
X402629Y201680D01*
X402700Y201745D01*
X402750Y201820D01*
X402781Y201905D01*
X402791Y202000D01*
Y200000D01*
D02*
G37*
G36*
X427217Y200037D02*
X427115Y200001D01*
X427025Y199940D01*
X426947Y199855D01*
X426881Y199746D01*
X426827Y199613D01*
X426785Y199455D01*
X426755Y199274D01*
X426737Y199067D01*
X426731Y198837D01*
X425531D01*
X425525Y199067D01*
X425507Y199274D01*
X425477Y199455D01*
X425435Y199613D01*
X425381Y199746D01*
X425315Y199855D01*
X425237Y199940D01*
X425147Y200001D01*
X425045Y200037D01*
X424931Y200049D01*
X427331D01*
X427217Y200037D01*
D02*
G37*
G36*
X418555D02*
X418453Y200001D01*
X418363Y199940D01*
X418285Y199855D01*
X418219Y199746D01*
X418165Y199613D01*
X418123Y199455D01*
X418093Y199274D01*
X418075Y199067D01*
X418069Y198837D01*
X416869D01*
X416863Y199067D01*
X416845Y199274D01*
X416815Y199455D01*
X416773Y199613D01*
X416719Y199746D01*
X416653Y199855D01*
X416575Y199940D01*
X416485Y200001D01*
X416383Y200037D01*
X416269Y200049D01*
X418669D01*
X418555Y200037D01*
D02*
G37*
G36*
X508372Y200886D02*
X508408Y200784D01*
X508468Y200694D01*
X508553Y200616D01*
X508663Y200550D01*
X508796Y200496D01*
X508953Y200454D01*
X509135Y200424D01*
X509341Y200406D01*
X509572Y200400D01*
Y199200D01*
X509341Y199194D01*
X509135Y199176D01*
X508953Y199146D01*
X508796Y199104D01*
X508663Y199050D01*
X508553Y198984D01*
X508468Y198906D01*
X508408Y198816D01*
X508372Y198714D01*
X508359Y198600D01*
Y201000D01*
X508372Y200886D01*
D02*
G37*
G36*
X416688Y196839D02*
X416597Y196746D01*
X416378Y196487D01*
X416323Y196407D01*
X416277Y196331D01*
X416239Y196258D01*
X416210Y196189D01*
X416189Y196123D01*
X416178Y196061D01*
X415149Y197389D01*
X415219Y197385D01*
X415292Y197391D01*
X415367Y197407D01*
X415445Y197434D01*
X415525Y197471D01*
X415608Y197519D01*
X415693Y197577D01*
X415781Y197645D01*
X415872Y197724D01*
X415965Y197813D01*
X416688Y196839D01*
D02*
G37*
G36*
X507720Y198050D02*
X507618Y198014D01*
X507527Y197954D01*
X507449Y197870D01*
X507383Y197762D01*
X507330Y197630D01*
X507288Y197474D01*
X507258Y197294D01*
X507239Y197090D01*
X507233Y196862D01*
X506034D01*
X506028Y197090D01*
X506009Y197294D01*
X505979Y197474D01*
X505937Y197630D01*
X505884Y197762D01*
X505818Y197870D01*
X505739Y197954D01*
X505650Y198014D01*
X505548Y198050D01*
X505434Y198062D01*
X507833D01*
X507720Y198050D01*
D02*
G37*
G36*
X500824Y198566D02*
X500805Y198512D01*
X500788Y198448D01*
X500774Y198374D01*
X500751Y198197D01*
X500743Y198062D01*
X501334D01*
X501220Y198050D01*
X501118Y198014D01*
X501027Y197954D01*
X500949Y197870D01*
X500883Y197762D01*
X500830Y197630D01*
X500787Y197474D01*
X500758Y197294D01*
X500739Y197090D01*
X500734Y196862D01*
X499534D01*
X499528Y197090D01*
X499509Y197294D01*
X499479Y197474D01*
X499438Y197630D01*
X499383Y197762D01*
X499318Y197870D01*
X499239Y197954D01*
X499150Y198014D01*
X499048Y198050D01*
X498934Y198062D01*
X499336D01*
X499289Y198106D01*
X499231Y198143D01*
X500845Y198610D01*
X500824Y198566D01*
D02*
G37*
G36*
X391297Y197727D02*
X391214Y197639D01*
X391140Y197550D01*
X391074Y197460D01*
X391017Y197370D01*
X390969Y197279D01*
X390930Y197187D01*
X390900Y197094D01*
X390879Y197001D01*
X390867Y196907D01*
X390863Y196812D01*
X389675Y198000D01*
X389770Y198003D01*
X389864Y198016D01*
X389957Y198037D01*
X390050Y198067D01*
X390142Y198106D01*
X390233Y198154D01*
X390323Y198211D01*
X390413Y198276D01*
X390502Y198351D01*
X390590Y198434D01*
X391297Y197727D01*
D02*
G37*
G36*
X426737Y197532D02*
X426755Y197327D01*
X426785Y197145D01*
X426827Y196987D01*
X426881Y196854D01*
X426947Y196745D01*
X427025Y196660D01*
X427115Y196599D01*
X427217Y196563D01*
X427331Y196551D01*
X424931D01*
X425045Y196563D01*
X425147Y196599D01*
X425237Y196660D01*
X425315Y196745D01*
X425381Y196854D01*
X425435Y196987D01*
X425477Y197145D01*
X425507Y197327D01*
X425525Y197532D01*
X425531Y197763D01*
X426731D01*
X426737Y197532D01*
D02*
G37*
G36*
X426343Y195378D02*
X426310Y195343D01*
X426280Y195306D01*
X426253Y195266D01*
X426228Y195224D01*
X426206Y195179D01*
X426186Y195132D01*
X426169Y195083D01*
X426159Y195045D01*
X426208Y194996D01*
X426152Y194987D01*
X426145Y194985D01*
X426144Y194978D01*
X426135Y194922D01*
X426086Y194972D01*
X426047Y194961D01*
X425998Y194945D01*
X425951Y194925D01*
X425907Y194903D01*
X425865Y194878D01*
X425825Y194851D01*
X425787Y194821D01*
X425752Y194788D01*
X425328Y195212D01*
X425361Y195247D01*
X425391Y195285D01*
X425418Y195325D01*
X425443Y195367D01*
X425465Y195411D01*
X425485Y195458D01*
X425501Y195507D01*
X425512Y195546D01*
X425463Y195595D01*
X425519Y195604D01*
X425526Y195605D01*
X425527Y195612D01*
X425536Y195668D01*
X425585Y195619D01*
X425624Y195629D01*
X425673Y195646D01*
X425719Y195666D01*
X425764Y195688D01*
X425806Y195712D01*
X425846Y195740D01*
X425883Y195770D01*
X425919Y195803D01*
X426343Y195378D01*
D02*
G37*
G36*
X507239Y195936D02*
X507258Y195730D01*
X507288Y195548D01*
X507330Y195391D01*
X507383Y195257D01*
X507449Y195148D01*
X507527Y195063D01*
X507618Y195003D01*
X507720Y194966D01*
X507833Y194954D01*
X505434D01*
X505548Y194966D01*
X505650Y195003D01*
X505739Y195063D01*
X505818Y195148D01*
X505884Y195257D01*
X505937Y195391D01*
X505979Y195548D01*
X506009Y195730D01*
X506028Y195936D01*
X506034Y196166D01*
X507233D01*
X507239Y195936D01*
D02*
G37*
G36*
X500739D02*
X500758Y195730D01*
X500787Y195548D01*
X500830Y195391D01*
X500883Y195257D01*
X500949Y195148D01*
X501027Y195063D01*
X501118Y195003D01*
X501220Y194966D01*
X501334Y194954D01*
X498934D01*
X499048Y194966D01*
X499150Y195003D01*
X499239Y195063D01*
X499318Y195148D01*
X499383Y195257D01*
X499438Y195391D01*
X499479Y195548D01*
X499509Y195730D01*
X499528Y195936D01*
X499534Y196166D01*
X500734D01*
X500739Y195936D01*
D02*
G37*
G36*
X415756Y195280D02*
X415705Y195231D01*
X415661Y195173D01*
X415621Y195107D01*
X415587Y195031D01*
X415557Y194947D01*
X415534Y194854D01*
X415515Y194752D01*
X415502Y194641D01*
X415494Y194520D01*
X415491Y194392D01*
X414291Y194501D01*
X414289Y194631D01*
X414272Y194864D01*
X414258Y194968D01*
X414239Y195063D01*
X414216Y195150D01*
X414188Y195229D01*
X414157Y195298D01*
X414121Y195359D01*
X414081Y195412D01*
X415756Y195280D01*
D02*
G37*
G36*
X425674Y193449D02*
X425565Y193498D01*
X425441Y193517D01*
X425305Y193506D01*
X425155Y193465D01*
X424992Y193394D01*
X424816Y193293D01*
X424626Y193162D01*
X424423Y193001D01*
X424207Y192810D01*
X423977Y192589D01*
X422735Y193043D01*
X422992Y193308D01*
X423391Y193774D01*
X423533Y193976D01*
X423638Y194156D01*
X423706Y194315D01*
X423735Y194453D01*
X423726Y194570D01*
X423680Y194666D01*
X423596Y194741D01*
X425674Y193449D01*
D02*
G37*
G36*
X420441Y193216D02*
X420303Y193075D01*
X420091Y192829D01*
X420016Y192726D01*
X419962Y192634D01*
X419929Y192556D01*
X419916Y192490D01*
X419925Y192437D01*
X419954Y192396D01*
X420004Y192368D01*
X418774Y192811D01*
X418837Y192795D01*
X418905Y192793D01*
X418978Y192804D01*
X419055Y192828D01*
X419138Y192865D01*
X419225Y192915D01*
X419317Y192979D01*
X419414Y193055D01*
X419516Y193144D01*
X419623Y193247D01*
X420441Y193216D01*
D02*
G37*
G36*
X506987Y191490D02*
X506876Y191540D01*
X506752Y191561D01*
X506615Y191551D01*
X506465Y191511D01*
X506302Y191441D01*
X506125Y191341D01*
X505936Y191211D01*
X505734Y191051D01*
X505519Y190862D01*
X505290Y190642D01*
X504047Y191095D01*
X504302Y191359D01*
X504699Y191824D01*
X504841Y192025D01*
X504945Y192206D01*
X505011Y192365D01*
X505039Y192503D01*
X505029Y192621D01*
X504981Y192717D01*
X504895Y192792D01*
X506987Y191490D01*
D02*
G37*
G36*
X500924Y191482D02*
X500884Y191457D01*
X500849Y191415D01*
X500818Y191357D01*
X500792Y191281D01*
X500771Y191190D01*
X500755Y191081D01*
X500743Y190955D01*
X500734Y190655D01*
X499534D01*
X499531Y190814D01*
X499512Y191081D01*
X499496Y191190D01*
X499475Y191281D01*
X499449Y191357D01*
X499418Y191415D01*
X499383Y191457D01*
X499343Y191482D01*
X499298Y191490D01*
X500969D01*
X500924Y191482D01*
D02*
G37*
G36*
X418603Y189703D02*
X418552Y189685D01*
X418507Y189654D01*
X418468Y189611D01*
X418435Y189556D01*
X418408Y189489D01*
X418387Y189409D01*
X418372Y189317D01*
X418363Y189213D01*
X418360Y189097D01*
X417760D01*
X417757Y189213D01*
X417748Y189317D01*
X417733Y189409D01*
X417712Y189489D01*
X417685Y189556D01*
X417652Y189611D01*
X417613Y189654D01*
X417568Y189685D01*
X417517Y189703D01*
X417460Y189709D01*
X418660D01*
X418603Y189703D01*
D02*
G37*
G36*
X428345Y189476D02*
X428089Y189211D01*
X427690Y188745D01*
X427547Y188544D01*
X427442Y188364D01*
X427375Y188205D01*
X427345Y188066D01*
X427354Y187950D01*
X427400Y187854D01*
X427485Y187779D01*
X426986Y188089D01*
X426968Y188069D01*
X426907Y187984D01*
X426856Y187902D01*
X426813Y187822D01*
X426781Y187745D01*
X426758Y187671D01*
X426744Y187600D01*
X426740Y187532D01*
X425552Y188720D01*
X425621Y188724D01*
X425692Y188737D01*
X425766Y188760D01*
X425843Y188793D01*
X425848Y188796D01*
X425406Y189070D01*
X425516Y189021D01*
X425639Y189002D01*
X425775Y189013D01*
X425925Y189054D01*
X426088Y189125D01*
X426264Y189226D01*
X426454Y189357D01*
X426657Y189519D01*
X426873Y189710D01*
X427103Y189931D01*
X428345Y189476D01*
D02*
G37*
G36*
X499550Y189221D02*
X499036Y188643D01*
X499001Y188587D01*
X498979Y188542D01*
X498972Y188509D01*
X496291Y188497D01*
X496459Y188506D01*
X496628Y188533D01*
X496797Y188576D01*
X496966Y188637D01*
X497135Y188714D01*
X497305Y188809D01*
X497475Y188920D01*
X497646Y189049D01*
X497817Y189195D01*
X497988Y189358D01*
X499685D01*
X499550Y189221D01*
D02*
G37*
G36*
X508433Y188401D02*
X508469Y188304D01*
X508529Y188219D01*
X508613Y188145D01*
X508721Y188082D01*
X508853Y188031D01*
X509009Y187991D01*
X509189Y187963D01*
X509393Y187946D01*
X509621Y187940D01*
Y186740D01*
X509393Y186734D01*
X509189Y186717D01*
X509009Y186689D01*
X508853Y186649D01*
X508721Y186598D01*
X508613Y186535D01*
X508529Y186461D01*
X508469Y186376D01*
X508433Y186279D01*
X508421Y186171D01*
Y188509D01*
X508433Y188401D01*
D02*
G37*
G36*
X512873Y186979D02*
X513051Y186828D01*
X513136Y186767D01*
X513218Y186715D01*
X513298Y186673D01*
X513374Y186641D01*
X513448Y186618D01*
X513519Y186604D01*
X513588Y186600D01*
X512400Y185412D01*
X512396Y185481D01*
X512382Y185552D01*
X512359Y185626D01*
X512327Y185703D01*
X512285Y185782D01*
X512233Y185864D01*
X512172Y185949D01*
X512101Y186037D01*
X511932Y186220D01*
X512780Y187068D01*
X512873Y186979D01*
D02*
G37*
G36*
X497179Y186174D02*
X497010Y186147D01*
X496841Y186104D01*
X496672Y186044D01*
X496502Y185966D01*
X496333Y185872D01*
X496162Y185760D01*
X495992Y185631D01*
X495821Y185485D01*
X495650Y185322D01*
X493953D01*
X494088Y185459D01*
X494601Y186038D01*
X494637Y186094D01*
X494658Y186138D01*
X494665Y186171D01*
X497347Y186183D01*
X497179Y186174D01*
D02*
G37*
G36*
X426335Y186611D02*
X426294Y186551D01*
X426258Y186483D01*
X426227Y186405D01*
X426200Y186319D01*
X426179Y186225D01*
X426162Y186122D01*
X426150Y186010D01*
X426148Y185969D01*
X426740D01*
X426626Y185957D01*
X426524Y185920D01*
X426434Y185860D01*
X426356Y185775D01*
X426290Y185666D01*
X426236Y185533D01*
X426194Y185375D01*
X426164Y185193D01*
X426146Y184987D01*
X426140Y184757D01*
X424940D01*
X424934Y184987D01*
X424916Y185193D01*
X424886Y185375D01*
X424844Y185533D01*
X424790Y185666D01*
X424724Y185775D01*
X424646Y185860D01*
X424556Y185920D01*
X424454Y185957D01*
X424340Y185969D01*
X424931D01*
X424919Y186122D01*
X424902Y186225D01*
X424880Y186319D01*
X424854Y186405D01*
X424823Y186483D01*
X424787Y186551D01*
X424746Y186611D01*
X424700Y186663D01*
X426380D01*
X426335Y186611D01*
D02*
G37*
G36*
X514394Y184492D02*
X514354Y184432D01*
X514318Y184363D01*
X514286Y184286D01*
X514260Y184200D01*
X514238Y184105D01*
X514222Y184002D01*
X514210Y183890D01*
X514200Y183641D01*
X513000D01*
X512998Y183770D01*
X512978Y184002D01*
X512962Y184105D01*
X512940Y184200D01*
X512914Y184286D01*
X512882Y184363D01*
X512846Y184432D01*
X512806Y184492D01*
X512760Y184543D01*
X514440D01*
X514394Y184492D01*
D02*
G37*
G36*
X426146Y184508D02*
X426164Y184302D01*
X426194Y184120D01*
X426236Y183962D01*
X426290Y183829D01*
X426356Y183720D01*
X426434Y183635D01*
X426524Y183574D01*
X426626Y183538D01*
X426740Y183526D01*
X424340D01*
X424454Y183538D01*
X424556Y183574D01*
X424646Y183635D01*
X424724Y183720D01*
X424790Y183829D01*
X424844Y183962D01*
X424886Y184120D01*
X424916Y184302D01*
X424934Y184508D01*
X424940Y184738D01*
X426140D01*
X426146Y184508D01*
D02*
G37*
G36*
X418363Y184022D02*
X418372Y183918D01*
X418387Y183826D01*
X418408Y183746D01*
X418435Y183679D01*
X418468Y183624D01*
X418507Y183581D01*
X418552Y183551D01*
X418603Y183532D01*
X418660Y183526D01*
X417460D01*
X417517Y183532D01*
X417568Y183551D01*
X417613Y183581D01*
X417652Y183624D01*
X417685Y183679D01*
X417712Y183746D01*
X417733Y183826D01*
X417748Y183918D01*
X417757Y184022D01*
X417760Y184138D01*
X418360D01*
X418363Y184022D01*
D02*
G37*
G36*
X502812Y185172D02*
X502848Y184968D01*
X502908Y184788D01*
X502992Y184632D01*
X503100Y184500D01*
X503232Y184392D01*
X503388Y184308D01*
X503545Y184256D01*
X503682Y184291D01*
X503814Y184342D01*
X503922Y184405D01*
X504006Y184479D01*
X504066Y184564D01*
X504102Y184661D01*
X504114Y184769D01*
Y182431D01*
X504102Y182539D01*
X504066Y182636D01*
X504006Y182721D01*
X503922Y182795D01*
X503814Y182858D01*
X503682Y182909D01*
X503545Y182944D01*
X503388Y182892D01*
X503232Y182808D01*
X503100Y182700D01*
X502992Y182568D01*
X502908Y182412D01*
X502848Y182232D01*
X502812Y182028D01*
X502800Y181800D01*
X501600Y183600D01*
X502800Y185400D01*
X502812Y185172D01*
D02*
G37*
G36*
X508433Y180921D02*
X508469Y180824D01*
X508529Y180739D01*
X508613Y180665D01*
X508721Y180602D01*
X508853Y180551D01*
X509009Y180511D01*
X509189Y180483D01*
X509393Y180465D01*
X509621Y180460D01*
Y179260D01*
X509393Y179254D01*
X509189Y179237D01*
X509009Y179209D01*
X508853Y179169D01*
X508721Y179118D01*
X508613Y179055D01*
X508529Y178981D01*
X508469Y178896D01*
X508433Y178799D01*
X508421Y178691D01*
Y181029D01*
X508433Y180921D01*
D02*
G37*
G36*
X513108Y180460D02*
X512947Y180287D01*
X512803Y180106D01*
X512676Y179919D01*
X512565Y179725D01*
X512472Y179524D01*
X512396Y179315D01*
X512336Y179100D01*
X512294Y178877D01*
X512271Y178673D01*
X512268Y178648D01*
X512268Y178639D01*
X512260Y178411D01*
X512260D01*
Y178411D01*
X511060Y178060D01*
X511048Y178288D01*
X511012Y178492D01*
X510952Y178672D01*
X510868Y178828D01*
X510760Y178960D01*
X510628Y179068D01*
X510472Y179152D01*
X510292Y179212D01*
X510088Y179248D01*
X509860Y179260D01*
X510211Y180460D01*
X510211D01*
Y180460D01*
X510448Y180468D01*
X510677Y180494D01*
X510900Y180536D01*
X511056Y180579D01*
X511115Y180596D01*
X511191Y180624D01*
X511323Y180672D01*
X511525Y180765D01*
X511719Y180876D01*
X511906Y181003D01*
X512087Y181147D01*
X512260Y181308D01*
X513108Y180460D01*
D02*
G37*
G36*
X505490Y175767D02*
X505967Y175357D01*
X506192Y175190D01*
X506409Y175049D01*
X506616Y174933D01*
X506815Y174843D01*
X507006Y174778D01*
X507187Y174740D01*
X507359Y174726D01*
X504328Y174738D01*
X504412Y174747D01*
X504469Y174772D01*
X504499Y174814D01*
X504503Y174874D01*
X504480Y174950D01*
X504430Y175043D01*
X504354Y175154D01*
X504251Y175281D01*
X503965Y175586D01*
X505238Y176011D01*
X505490Y175767D01*
D02*
G37*
G36*
X377268Y170620D02*
X377179Y170527D01*
X377028Y170349D01*
X376967Y170264D01*
X376915Y170182D01*
X376873Y170103D01*
X376841Y170026D01*
X376818Y169952D01*
X376804Y169881D01*
X376800Y169812D01*
X375612Y171000D01*
X375681Y171004D01*
X375752Y171018D01*
X375826Y171041D01*
X375903Y171073D01*
X375982Y171115D01*
X376064Y171167D01*
X376149Y171228D01*
X376237Y171299D01*
X376420Y171468D01*
X377268Y170620D01*
D02*
G37*
G36*
X507153Y171250D02*
X507051Y171214D01*
X506960Y171154D01*
X506882Y171070D01*
X506816Y170962D01*
X506763Y170830D01*
X506720Y170674D01*
X506694Y170512D01*
X506720Y170348D01*
X506763Y170191D01*
X506816Y170057D01*
X506882Y169948D01*
X506960Y169863D01*
X507051Y169803D01*
X507153Y169766D01*
X507267Y169754D01*
X504867D01*
X504981Y169766D01*
X505083Y169803D01*
X505172Y169863D01*
X505251Y169948D01*
X505316Y170057D01*
X505371Y170191D01*
X505412Y170348D01*
X505440Y170512D01*
X505412Y170674D01*
X505371Y170830D01*
X505316Y170962D01*
X505251Y171070D01*
X505172Y171154D01*
X505083Y171214D01*
X504981Y171250D01*
X504867Y171262D01*
X507267D01*
X507153Y171250D01*
D02*
G37*
G36*
X500653D02*
X500551Y171214D01*
X500460Y171154D01*
X500383Y171070D01*
X500316Y170962D01*
X500262Y170830D01*
X500220Y170674D01*
X500194Y170512D01*
X500220Y170348D01*
X500262Y170191D01*
X500316Y170057D01*
X500383Y169948D01*
X500460Y169863D01*
X500551Y169803D01*
X500653Y169766D01*
X500767Y169754D01*
X498366D01*
X498481Y169766D01*
X498583Y169803D01*
X498672Y169863D01*
X498750Y169948D01*
X498816Y170057D01*
X498871Y170191D01*
X498912Y170348D01*
X498940Y170512D01*
X498912Y170674D01*
X498871Y170830D01*
X498816Y170962D01*
X498750Y171070D01*
X498672Y171154D01*
X498583Y171214D01*
X498481Y171250D01*
X498366Y171262D01*
X500767D01*
X500653Y171250D01*
D02*
G37*
G36*
X352508Y170594D02*
X352568Y170554D01*
X352637Y170518D01*
X352714Y170486D01*
X352800Y170460D01*
X352895Y170438D01*
X352998Y170422D01*
X353110Y170410D01*
X353359Y170400D01*
Y169200D01*
X353230Y169198D01*
X352998Y169178D01*
X352895Y169162D01*
X352800Y169140D01*
X352714Y169114D01*
X352637Y169082D01*
X352568Y169046D01*
X352508Y169006D01*
X352457Y168960D01*
Y170640D01*
X352508Y170594D01*
D02*
G37*
G36*
X507153Y166278D02*
X507051Y166242D01*
X506960Y166182D01*
X506882Y166098D01*
X506816Y165990D01*
X506763Y165858D01*
X506720Y165702D01*
X506691Y165522D01*
X506672Y165318D01*
X506667Y165090D01*
X505467D01*
X505461Y165318D01*
X505442Y165522D01*
X505412Y165702D01*
X505371Y165858D01*
X505316Y165990D01*
X505251Y166098D01*
X505172Y166182D01*
X505083Y166242D01*
X504981Y166278D01*
X504867Y166290D01*
X507267D01*
X507153Y166278D01*
D02*
G37*
G36*
X500653D02*
X500551Y166242D01*
X500460Y166182D01*
X500383Y166098D01*
X500316Y165990D01*
X500262Y165858D01*
X500220Y165702D01*
X500190Y165522D01*
X500173Y165318D01*
X500167Y165090D01*
X498967D01*
X498960Y165318D01*
X498943Y165522D01*
X498912Y165702D01*
X498871Y165858D01*
X498816Y165990D01*
X498750Y166098D01*
X498672Y166182D01*
X498583Y166242D01*
X498481Y166278D01*
X498366Y166290D01*
X500767D01*
X500653Y166278D01*
D02*
G37*
G36*
X420415Y165220D02*
X420326Y165127D01*
X420175Y164949D01*
X420114Y164864D01*
X420062Y164782D01*
X420020Y164702D01*
X419988Y164626D01*
X419965Y164552D01*
X419951Y164481D01*
X419947Y164412D01*
X418759Y165600D01*
X418828Y165604D01*
X418899Y165618D01*
X418973Y165641D01*
X419050Y165673D01*
X419129Y165715D01*
X419211Y165767D01*
X419296Y165828D01*
X419384Y165899D01*
X419567Y166068D01*
X420415Y165220D01*
D02*
G37*
G36*
X506669Y163723D02*
X506692Y163493D01*
X506712Y163393D01*
X506738Y163301D01*
X506769Y163219D01*
X506807Y163147D01*
X506849Y163084D01*
X506898Y163030D01*
X506952Y162986D01*
X505296Y162704D01*
X505328Y162756D01*
X505357Y162816D01*
X505383Y162885D01*
X505405Y162963D01*
X505424Y163049D01*
X505439Y163144D01*
X505460Y163361D01*
X505467Y163613D01*
X506667Y163852D01*
X506669Y163723D01*
D02*
G37*
G36*
X419500Y159687D02*
X419681Y159543D01*
X419868Y159416D01*
X420062Y159306D01*
X420264Y159212D01*
X420472Y159136D01*
X420687Y159076D01*
X420910Y159034D01*
X421139Y159009D01*
X421376Y159000D01*
X419927Y157800D01*
X417279Y159000D01*
X417498Y159009D01*
X417677Y159034D01*
X417814Y159076D01*
X417911Y159136D01*
X417967Y159212D01*
X417981Y159306D01*
X417955Y159416D01*
X417888Y159543D01*
X417779Y159687D01*
X417630Y159848D01*
X419327D01*
X419500Y159687D01*
D02*
G37*
G36*
X495348Y157887D02*
X495240Y157743D01*
X495172Y157616D01*
X495146Y157506D01*
X495161Y157412D01*
X495216Y157336D01*
X495313Y157276D01*
X495450Y157234D01*
X495629Y157209D01*
X495849Y157200D01*
X493200Y156000D01*
X491751Y157200D01*
X491988Y157209D01*
X492217Y157234D01*
X492440Y157276D01*
X492655Y157336D01*
X492864Y157412D01*
X493065Y157506D01*
X493259Y157616D01*
X493446Y157743D01*
X493627Y157887D01*
X493800Y158048D01*
X495497D01*
X495348Y157887D01*
D02*
G37*
G36*
X377268Y155620D02*
X377179Y155527D01*
X377028Y155349D01*
X376967Y155264D01*
X376915Y155182D01*
X376873Y155103D01*
X376841Y155026D01*
X376818Y154952D01*
X376804Y154881D01*
X376800Y154812D01*
X375612Y156000D01*
X375681Y156004D01*
X375752Y156018D01*
X375826Y156041D01*
X375903Y156073D01*
X375982Y156115D01*
X376064Y156167D01*
X376149Y156228D01*
X376237Y156299D01*
X376420Y156468D01*
X377268Y155620D01*
D02*
G37*
D11*
X506650Y264376D02*
Y267126D01*
Y264376D02*
X509400D01*
X503900D02*
X506650D01*
Y261626D02*
Y264376D01*
X509400Y249242D02*
Y251424D01*
Y249242D02*
X513747D01*
X509400Y247061D02*
Y249242D01*
X505054D02*
X509400D01*
X493107Y279564D02*
X495485D01*
X493107D02*
Y283517D01*
Y275611D02*
Y279564D01*
X490729D02*
X493107D01*
X488779Y246654D02*
X493126D01*
X524400Y202800D02*
Y205000D01*
Y202800D02*
X526600D01*
X522200D02*
X524400D01*
Y200600D02*
Y202800D01*
X506634Y193228D02*
X509383D01*
X499800Y229550D02*
Y232300D01*
X503884Y199800D02*
X506634D01*
Y202550D01*
X503884Y193228D02*
X506634D01*
X499800Y229550D02*
X502550D01*
X497050D02*
X499800D01*
Y226800D02*
Y229550D01*
X481800Y285773D02*
X484550D01*
X481800D02*
Y288523D01*
Y283023D02*
Y285773D01*
X479050D02*
X481800D01*
X459000D02*
X461750D01*
X456890Y264370D02*
X461236D01*
X459000Y283023D02*
Y285773D01*
Y288523D01*
X456250Y285773D02*
X459000D01*
X446400Y272815D02*
Y275565D01*
Y272815D02*
X449150D01*
X443650D02*
X446400D01*
X443650Y269050D02*
X446400D01*
X452543Y264370D02*
X456890D01*
X446400Y269050D02*
X449150D01*
X484433Y246654D02*
X488779D01*
X472244Y229909D02*
Y233469D01*
Y226350D02*
Y229909D01*
X463976Y235221D02*
Y239567D01*
X456000Y232200D02*
X458750D01*
X456000D02*
Y234950D01*
X453600Y229400D02*
Y231600D01*
X451400D02*
X453600D01*
Y233800D01*
Y222000D02*
X455800D01*
X451400D02*
X453600D01*
Y224200D01*
X389736Y217800D02*
X395136Y212400D01*
X404517D01*
X475787Y234804D02*
X476181Y234410D01*
Y229909D02*
Y234410D01*
X475787Y234804D02*
Y239567D01*
X389663Y196800D02*
X393863Y201000D01*
X404517D01*
X473819Y234394D02*
Y239567D01*
Y234394D02*
X474213Y234000D01*
X470276Y229909D02*
Y234067D01*
X471850Y235642D01*
Y239567D01*
X474213Y229909D02*
Y234000D01*
D13*
X530645Y278740D02*
G03*
X530645Y278740I-8774J0D01*
G01*
X526500Y250200D02*
G03*
X525881Y251689I-2100J0D01*
G01*
X525964Y248799D02*
G03*
X526500Y250200I-1564J1401D01*
G01*
X522919Y251689D02*
G03*
X522835Y248799I1481J-1489D01*
G01*
X504541Y283417D02*
G03*
X505613Y284766I-1197J2053D01*
G01*
X504215Y283259D02*
G03*
X504541Y283417I-872J2211D01*
G01*
X504412Y287592D02*
G03*
X504215Y283259I-1068J-2123D01*
G01*
X498633Y285469D02*
G03*
X495188Y287592I-2376J0D01*
G01*
X495785Y283140D02*
G03*
X498633Y285469I472J2329D01*
G01*
X493987Y284766D02*
G03*
X494549Y283817I2270J703D01*
G01*
X496401Y272441D02*
G03*
X496401Y269312I-1401J-1564D01*
G01*
X501574Y249471D02*
G03*
X500726Y249822I-848J-848D01*
G01*
X501574Y249471D02*
G03*
X500726Y249822I-848J-848D01*
G01*
X496458D02*
G03*
X496700Y250800I-1858J978D01*
G01*
X504178Y243473D02*
G03*
X505026Y243121I848J848D01*
G01*
X504178Y243473D02*
G03*
X505026Y243121I848J848D01*
G01*
X493367Y246185D02*
G03*
X493426Y246654I-1832J469D01*
G01*
X497611Y247422D02*
G03*
X497250Y245858I1711J-1218D01*
G01*
X493426Y246654D02*
G03*
X493263Y247422I-1891J0D01*
G01*
X497250Y245858D02*
G03*
X496315Y246185I-935J-1173D01*
G01*
X497250Y245858D02*
G03*
X496315Y246185I-935J-1173D01*
G01*
X493026Y266339D02*
G03*
X491535Y267829I-1491J0D01*
G01*
X486024D02*
G03*
X484904Y265354I0J-1491D01*
G01*
X493026Y264370D02*
G03*
X492655Y265354I-1491J0D01*
G01*
D02*
G03*
X493026Y266339I-1119J984D01*
G01*
Y262402D02*
G03*
X492655Y263386I-1491J0D01*
G01*
X484904Y265354D02*
G03*
X484747Y263602I1119J-984D01*
G01*
X492655Y263386D02*
G03*
X493026Y264370I-1119J984D01*
G01*
Y256496D02*
G03*
X492655Y257480I-1491J0D01*
G01*
D02*
G03*
X493026Y258465I-1119J984D01*
G01*
X492655Y255512D02*
G03*
X493026Y256496I-1119J984D01*
G01*
Y260433D02*
G03*
X492655Y261417I-1491J0D01*
G01*
D02*
G03*
X493026Y262402I-1119J984D01*
G01*
X492655Y259449D02*
G03*
X493026Y260433I-1119J984D01*
G01*
Y254528D02*
G03*
X492655Y255512I-1491J0D01*
G01*
X496700Y250800D02*
G03*
X492955Y252106I-2100J0D01*
G01*
X492655Y253543D02*
G03*
X493026Y254528I-1119J984D01*
G01*
Y258465D02*
G03*
X492655Y259449I-1491J0D01*
G01*
X493026Y252559D02*
G03*
X492655Y253543I-1491J0D01*
G01*
X484904Y255512D02*
G03*
X484904Y253543I1119J-984D01*
G01*
X484747Y257265D02*
G03*
X484904Y255512I1277J-769D01*
G01*
Y253543D02*
G03*
X484904Y251575I1119J-984D01*
G01*
X492955Y252106D02*
G03*
X493026Y252559I-1420J453D01*
G01*
X484904Y251575D02*
G03*
X484904Y249606I1119J-984D01*
G01*
Y249606D02*
G03*
X484678Y247981I1119J-984D01*
G01*
Y245326D02*
G03*
X486024Y243195I1346J-641D01*
G01*
X525461Y225740D02*
G03*
X525900Y226800I-1061J1060D01*
G01*
X525461Y225739D02*
G03*
X525900Y226800I-1061J1061D01*
G01*
X522236Y223136D02*
G03*
X523297Y223576I0J1500D01*
G01*
X522236Y223136D02*
G03*
X523296Y223575I0J1500D01*
G01*
X526900Y202800D02*
G03*
X521925Y202447I-2500J0D01*
G01*
X524047Y200325D02*
G03*
X526900Y202800I353J2475D01*
G01*
X521400Y198300D02*
G03*
X522461Y198739I0J1500D01*
G01*
X521400Y198300D02*
G03*
X522460Y198739I0J1500D01*
G01*
X501300Y241200D02*
G03*
X500861Y242260I-1500J0D01*
G01*
X501300Y241200D02*
G03*
X500861Y242261I-1500J0D01*
G01*
X501796Y238700D02*
G03*
X501365Y239450I-1997J-651D01*
G01*
X498236D02*
G03*
X497803Y238700I1564J-1401D01*
G01*
X508354Y236560D02*
G03*
X506846Y236560I-754J-1960D01*
G01*
X508615Y231639D02*
G03*
X506585Y231639I-1015J-1839D01*
G01*
X489449Y236549D02*
G03*
X488389Y236110I0J-1500D01*
G01*
X489449Y236549D02*
G03*
X488388Y236109I0J-1500D01*
G01*
X485555Y235248D02*
G03*
X485161Y236261I-1500J0D01*
G01*
X485555Y235248D02*
G03*
X485161Y236261I-1500J0D01*
G01*
X486739Y234461D02*
G03*
X486300Y233400I1061J-1061D01*
G01*
X486739Y234460D02*
G03*
X486300Y233400I1061J-1060D01*
G01*
X501563Y190200D02*
G03*
X501628Y190529I-1429J455D01*
G01*
X501563Y190200D02*
G03*
X501628Y190529I-1429J455D01*
G01*
X488861Y225838D02*
G03*
X489300Y226899I-1061J1061D01*
G01*
X488861Y225839D02*
G03*
X489300Y226899I-1061J1060D01*
G01*
X485152Y274213D02*
G03*
X482677Y275332I-1491J0D01*
G01*
D02*
G03*
X480709Y275332I-984J-1119D01*
G01*
X482677Y267581D02*
G03*
X485152Y268701I984J1119D01*
G01*
X480709Y275332D02*
G03*
X478740Y275332I-984J-1119D01*
G01*
X478570Y278425D02*
G03*
X479150Y278104I848J848D01*
G01*
X478570Y278425D02*
G03*
X479150Y278104I848J848D01*
G01*
X477300Y277200D02*
G03*
X476042Y279124I-2100J0D01*
G01*
X470978Y278274D02*
G03*
X470730Y278634I-1096J-489D01*
G01*
X470978Y278274D02*
G03*
X470730Y278634I-1096J-489D01*
G01*
X476783Y275820D02*
G03*
X477300Y277200I-1583J1380D01*
G01*
X478740Y275332D02*
G03*
X477115Y275558I-984J-1119D01*
G01*
D02*
G03*
X476783Y275820I-1328J-1346D01*
G01*
X466929Y275332D02*
G03*
X464961Y275332I-984J-1119D01*
G01*
X468682Y275490D02*
G03*
X466929Y275332I-769J-1277D01*
G01*
X461650Y278104D02*
G03*
X462230Y278425I-268J1170D01*
G01*
X461650Y278104D02*
G03*
X462230Y278425I-268J1170D01*
G01*
X464961Y275332D02*
G03*
X462992Y275332I-984J-1119D01*
G01*
X460685Y268013D02*
G03*
X462992Y267581I1322J688D01*
G01*
Y275332D02*
G03*
X460517Y274213I-984J-1119D01*
G01*
X480709Y267581D02*
G03*
X482677Y267581I984J1119D01*
G01*
X479256Y267286D02*
G03*
X480709Y267581I469J1415D01*
G01*
X478817Y266068D02*
G03*
X479256Y267128I-1061J1060D01*
G01*
X474460Y267355D02*
G03*
X475364Y266858I1328J1346D01*
G01*
X478817Y266068D02*
G03*
X479256Y267128I-1061J1061D01*
G01*
X470866Y267581D02*
G03*
X472835Y267581I984J1119D01*
G01*
X468898D02*
G03*
X470866Y267581I984J1119D01*
G01*
X472835D02*
G03*
X474460Y267355I984J1119D01*
G01*
X464961Y267581D02*
G03*
X466929Y267581I984J1119D01*
G01*
X462992D02*
G03*
X464961Y267581I984J1119D01*
G01*
X466929D02*
G03*
X468898Y267581I984J1119D01*
G01*
X480185Y256058D02*
G03*
X483896Y257265I1615J1342D01*
G01*
X479972Y263602D02*
G03*
X479133Y263260I0J-1200D01*
G01*
X479972Y263602D02*
G03*
X479133Y263260I0J-1200D01*
G01*
X477488Y259200D02*
G03*
X480185Y256058I1082J-1800D01*
G01*
X478478Y263098D02*
G03*
X477488Y259200I92J-2098D01*
G01*
X470274Y264604D02*
G03*
X470848Y261498I-1074J-1804D01*
G01*
X473659Y261532D02*
G03*
X474719Y261970I0J1500D01*
G01*
X473659Y261532D02*
G03*
X474720Y261971I0J1500D01*
G01*
X461536Y264370D02*
G03*
X460991Y265698I-1891J0D01*
G01*
D02*
G03*
X461136Y266339I-1346J641D01*
G01*
X460991Y263042D02*
G03*
X461536Y264370I-1346J1328D01*
G01*
X461136Y262402D02*
G03*
X460991Y263042I-1491J0D01*
G01*
X460765Y261417D02*
G03*
X461136Y262402I-1119J984D01*
G01*
Y260433D02*
G03*
X460765Y261417I-1491J0D01*
G01*
Y259449D02*
G03*
X461136Y260433I-1119J984D01*
G01*
Y258465D02*
G03*
X460765Y259449I-1491J0D01*
G01*
Y255512D02*
G03*
X461136Y256496I-1119J984D01*
G01*
D02*
G03*
X460765Y257480I-1491J0D01*
G01*
Y251575D02*
G03*
X461136Y252559I-1119J984D01*
G01*
Y250590D02*
G03*
X460765Y251575I-1491J0D01*
G01*
Y249606D02*
G03*
X461136Y250590I-1119J984D01*
G01*
Y248622D02*
G03*
X460765Y249606I-1491J0D01*
G01*
X450746Y280375D02*
G03*
X449685Y280815I-1061J-1061D01*
G01*
X450745Y280376D02*
G03*
X449685Y280815I-1060J-1061D01*
G01*
X458935Y272983D02*
G03*
X457316Y273897I-1735J-1183D01*
G01*
X455103Y271684D02*
G03*
X458089Y269897I2097J116D01*
G01*
X461136Y266339D02*
G03*
X460333Y267661I-1491J0D01*
G01*
X454134Y267829D02*
G03*
X452788Y265698I0J-1491D01*
G01*
D02*
G03*
X452243Y264362I1346J-1328D01*
G01*
X449956Y266649D02*
G03*
X449450Y266950I-848J-848D01*
G01*
X449956Y266649D02*
G03*
X449450Y266950I-848J-848D01*
G01*
X450731Y262480D02*
G03*
X449303Y259533I469J-2047D01*
G01*
X460765Y257480D02*
G03*
X461136Y258465I-1119J984D01*
G01*
X460765Y253543D02*
G03*
X461136Y254528I-1119J984D01*
G01*
D02*
G03*
X460765Y255512I-1491J0D01*
G01*
X461136Y252559D02*
G03*
X460765Y253543I-1491J0D01*
G01*
X445309Y259900D02*
G03*
X445551Y259552I1091J500D01*
G01*
X445309Y259900D02*
G03*
X445551Y259552I1091J500D01*
G01*
X447401Y249961D02*
G03*
X447500Y250600I-2001J639D01*
G01*
X439204Y267349D02*
G03*
X437640Y267895I-1418J-1549D01*
G01*
Y263705D02*
G03*
X439204Y264251I145J2095D01*
G01*
X441832Y254133D02*
G03*
X443432Y251332I1968J-733D01*
G01*
D02*
G03*
X445032Y248533I1968J-733D01*
G01*
X443197Y258048D02*
G03*
X441832Y254133I-997J-1848D01*
G01*
X484678Y247981D02*
G03*
X484678Y245326I1346J-1328D01*
G01*
X482677Y243442D02*
G03*
X480709Y243442I-984J-1119D01*
G01*
X478740D02*
G03*
X476772Y243442I-984J-1119D01*
G01*
X474803D02*
G03*
X472835Y243442I-984J-1119D01*
G01*
X470866D02*
G03*
X468898Y243442I-984J-1119D01*
G01*
X468256Y243773D02*
G03*
X468300Y244200I-2056J427D01*
G01*
X468898Y243442D02*
G03*
X468256Y243773I-984J-1119D01*
G01*
X485152Y242323D02*
G03*
X482677Y243442I-1491J0D01*
G01*
X476772D02*
G03*
X474803Y243442I-984J-1119D01*
G01*
X472835D02*
G03*
X470866Y243442I-984J-1119D01*
G01*
X480709D02*
G03*
X478740Y243442I-984J-1119D01*
G01*
X472428Y234239D02*
G03*
X472566Y233769I1391J155D01*
G01*
X472428Y234239D02*
G03*
X472566Y233769I1391J155D01*
G01*
X466076Y246892D02*
G03*
X461878Y246985I-2100J0D01*
G01*
X465988Y246289D02*
G03*
X466076Y246892I-2011J603D01*
G01*
X468300Y244200D02*
G03*
X465988Y246289I-2100J0D01*
G01*
X464188Y244803D02*
G03*
X464100Y244209I2011J-603D01*
G01*
X464100Y244209D02*
G03*
X462649Y243669I-124J-1887D01*
G01*
X460923Y245885D02*
G03*
X461136Y246654I-1277J769D01*
G01*
D02*
G03*
X460765Y247638I-1491J0D01*
G01*
D02*
G03*
X461136Y248622I-1119J984D01*
G01*
X461075Y243485D02*
G03*
X460517Y242323I933J-1162D01*
G01*
X465304Y235465D02*
G03*
X465828Y235325I641J1346D01*
G01*
X462649Y235465D02*
G03*
X465304Y235465I1328J1346D01*
G01*
X460517Y236811D02*
G03*
X462649Y235465I1491J0D01*
G01*
X480605Y226450D02*
G03*
X481025Y225621I1482J231D01*
G01*
X480605Y226450D02*
G03*
X481026Y225621I1482J231D01*
G01*
X461029Y225600D02*
G03*
X461877Y225952I0J1200D01*
G01*
X461029Y225600D02*
G03*
X461877Y225952I0J1200D01*
G01*
X482107Y224539D02*
G03*
X483168Y224100I1061J1061D01*
G01*
X482108Y224539D02*
G03*
X483168Y224100I1060J1061D01*
G01*
X459646Y243195D02*
G03*
X459994Y243236I0J1491D01*
G01*
X452857Y245454D02*
G03*
X454134Y243195I1277J-769D01*
G01*
X452950Y234014D02*
G03*
X452900Y229200I650J-2414D01*
G01*
X446867Y245704D02*
G03*
X446708Y245108I1041J-596D01*
G01*
X445032Y248533D02*
G03*
X446867Y245704I1968J-733D01*
G01*
D02*
G03*
X446708Y245108I1041J-596D01*
G01*
X449956Y229603D02*
G03*
X450308Y230451I-848J848D01*
G01*
X449956Y229603D02*
G03*
X450308Y230451I-848J848D01*
G01*
X455100Y220000D02*
G03*
X456100Y222000I-1500J2000D01*
G01*
D02*
G03*
X452100Y220000I-2500J0D01*
G01*
X454661Y214520D02*
G03*
X455100Y215580I-1061J1060D01*
G01*
X454661Y214519D02*
G03*
X455100Y215580I-1061J1061D01*
G01*
X523282Y287400D02*
X533400D01*
X510936Y288000D02*
X533400D01*
X525338Y286800D02*
X533400D01*
X510936Y289800D02*
X533400D01*
X510936Y289941D02*
X533400Y289800D01*
X510936Y289200D02*
X533400D01*
X530232Y281400D02*
X533400D01*
X530017Y282000D02*
X533400D01*
X530523Y280200D02*
X533400D01*
X527341Y285600D02*
X533400D01*
X526490Y286200D02*
X533400D01*
X528019Y285000D02*
X533400D01*
X510936Y286200D02*
X517252D01*
X510936Y285600D02*
X516400D01*
X510936Y285000D02*
X515723D01*
X510936Y287400D02*
X520460D01*
X510936Y286800D02*
X518404D01*
X510936Y284766D02*
Y289941D01*
X529750Y282600D02*
X533400D01*
X529427Y283200D02*
X533400D01*
X530400Y280800D02*
X533400D01*
X528575Y284400D02*
X533400D01*
X529039Y283800D02*
X533400D01*
X530641Y279000D02*
X533400D01*
X530603Y279600D02*
X533400D01*
X530638Y278400D02*
X533400D01*
X530509Y277200D02*
X533400D01*
X530594Y277800D02*
X533400D01*
X530380Y276600D02*
X533400D01*
X529984Y275400D02*
X533400D01*
X530206Y276000D02*
X533400D01*
X529710Y274800D02*
X533400D01*
X529379Y274200D02*
X533400D01*
X528982Y273600D02*
X533400D01*
X527936Y272400D02*
X533400D01*
X528507Y273000D02*
X533400D01*
X527239Y271800D02*
X533400D01*
X525145Y270600D02*
X533400D01*
X526358Y271200D02*
X533400D01*
X527426Y265200D02*
X533400D01*
X522641Y270000D02*
X533400D01*
X527426Y251689D02*
Y265300D01*
X514996D02*
X527426D01*
X514996Y251689D02*
Y265300D01*
X510936Y288600D02*
X533400D01*
X508771Y283200D02*
X514315D01*
X508771Y282000D02*
X513725D01*
X505466Y284400D02*
X515166D01*
X505035Y283800D02*
X514703D01*
X508771Y282600D02*
X513991D01*
X508771Y281400D02*
X513510D01*
X508771Y276600D02*
X513362D01*
X508771Y276000D02*
X513536D01*
X507600Y274800D02*
X514031D01*
X507600Y275400D02*
X513758D01*
X507600Y274200D02*
X514363D01*
X508771Y280800D02*
X513342D01*
X508771Y279600D02*
X513139D01*
X508771Y275711D02*
Y283417D01*
X505613Y284766D02*
X510936D01*
X504541Y283417D02*
X508771D01*
Y280200D02*
X513219D01*
X508771Y278400D02*
X513103D01*
X508771Y279000D02*
X513101D01*
X508771Y277800D02*
X513147D01*
X508771Y277200D02*
X513233D01*
X507600Y275711D02*
X508771D01*
X509300Y269400D02*
X533400D01*
X509300Y270000D02*
X521101D01*
X509300Y268800D02*
X533400D01*
X509300Y271200D02*
X517384D01*
X509300Y271800D02*
X516503D01*
X509300Y270600D02*
X518597D01*
X509700Y266400D02*
X533400D01*
X509700Y267000D02*
X533400D01*
X509700Y265800D02*
X533400D01*
X506298Y268200D02*
X533400D01*
X505646Y267600D02*
X533400D01*
X509300Y272400D02*
X515806D01*
X509300Y273000D02*
X515235D01*
X509300Y268226D02*
Y273526D01*
X507600Y273600D02*
X514760D01*
X507600Y273526D02*
Y275711D01*
Y273526D02*
X509300D01*
X506344Y268226D02*
X509300D01*
X509700Y261326D02*
Y267426D01*
X505473D02*
X509700D01*
X505473D02*
X506053Y268007D01*
X527426Y262200D02*
X533400D01*
X527426Y262800D02*
X533400D01*
X527426Y261600D02*
X533400D01*
X527426Y264000D02*
X533400D01*
X527426Y264600D02*
X533400D01*
X527426Y263400D02*
X533400D01*
X527426Y258600D02*
X533400D01*
X527426Y259200D02*
X533400D01*
X527426Y258000D02*
X533400D01*
X527426Y260400D02*
X533400D01*
X527426Y261000D02*
X533400D01*
X527426Y259800D02*
X533400D01*
X527426Y255000D02*
X533400D01*
X527426Y255600D02*
X533400D01*
X527426Y254400D02*
X533400D01*
X527426Y256800D02*
X533400D01*
X527426Y257400D02*
X533400D01*
X527426Y256200D02*
X533400D01*
X527426Y253200D02*
X533400D01*
X527426Y253800D02*
X533400D01*
X527426Y252600D02*
X533400D01*
X527426Y252000D02*
X533400D01*
X514996Y251689D02*
X522919D01*
X526500Y250200D02*
X533400D01*
X526412Y250800D02*
X533400D01*
X526412Y249600D02*
X533400D01*
X526123Y249000D02*
X533400D01*
X526123Y251400D02*
X533400D01*
X525916Y248400D02*
X533400D01*
X525900Y245400D02*
X533400D01*
X525900Y246000D02*
X533400D01*
X525900Y244800D02*
X533400D01*
X525900Y247800D02*
X533400D01*
X525900Y246600D02*
X533400D01*
X525881Y251689D02*
X527426D01*
X514046Y250800D02*
X522388D01*
X514046Y248400D02*
X522888D01*
X525900Y244200D02*
X533400D01*
X525900Y247200D02*
X533400D01*
X525900Y243600D02*
X533400D01*
X514046Y247800D02*
X522900D01*
X514046Y247200D02*
X522900D01*
X509700Y262800D02*
X514996D01*
X509700Y263400D02*
X514996D01*
X509700Y262200D02*
X514996D01*
X509700Y264600D02*
X514996D01*
X509700Y265200D02*
X514996D01*
X509700Y264000D02*
X514996D01*
X493026Y260400D02*
X514996D01*
X509700Y261600D02*
X514996D01*
X492996Y256200D02*
X514996D01*
X492885Y259800D02*
X514996D01*
X492914Y261000D02*
X514996D01*
X492995Y256800D02*
X514996D01*
X492832Y259200D02*
X514996D01*
X503600Y261326D02*
X509700D01*
X493020Y258600D02*
X514996D01*
X492949Y255000D02*
X514996D01*
X492952Y258000D02*
X514996D01*
X493020Y254400D02*
X514996D01*
X492721Y257400D02*
X514996D01*
X492727Y255600D02*
X514996D01*
X514046Y251400D02*
X522677D01*
X514046Y250200D02*
X522300D01*
X514046Y249600D02*
X522388D01*
X514046Y249000D02*
X522677D01*
X496323Y252000D02*
X514996D01*
X504445Y246600D02*
X522900D01*
X513647Y244200D02*
X522900D01*
X513647Y244800D02*
X522900D01*
X513647Y243600D02*
X522900D01*
X513647Y246000D02*
X522900D01*
X513647Y245400D02*
X522900D01*
X504753Y251724D02*
X514046D01*
Y246761D02*
Y251724D01*
X492881Y253200D02*
X514996D01*
X492836Y253800D02*
X514996D01*
X495682Y252600D02*
X514996D01*
X505154Y246402D02*
X513647D01*
X504753Y246761D02*
X514046D01*
X504412Y287592D02*
Y289982D01*
X495188Y288000D02*
X504412D01*
X495785Y282600D02*
X504215D01*
X495785Y279000D02*
X504215D01*
X495785Y280200D02*
X504215D01*
X495785Y278400D02*
X504215D01*
X495785Y281400D02*
X504215D01*
X495785Y282000D02*
X504215D01*
X495785Y280800D02*
X504215D01*
X498226Y286800D02*
X501374D01*
X498518Y286200D02*
X501082D01*
X498630Y285600D02*
X500971D01*
X497642Y287400D02*
X501958D01*
X498379Y284400D02*
X501221D01*
X498586Y285000D02*
X501014D01*
X497948Y283800D02*
X501652D01*
X496962Y283200D02*
X502638D01*
X495785Y279600D02*
X504215D01*
Y275711D02*
X505200D01*
X495785Y277800D02*
X504215D01*
Y275711D02*
Y283259D01*
X495785Y276600D02*
X504215D01*
X495785Y277200D02*
X504215D01*
X495785Y276000D02*
X504215D01*
X504000Y273526D02*
X505200D01*
Y275711D01*
X503376Y270600D02*
X504000D01*
X495785Y275400D02*
X505200D01*
X503376Y273000D02*
X504000D01*
Y269373D02*
Y273526D01*
X503376Y272400D02*
X504000D01*
X503376Y268723D02*
Y273526D01*
X498076D02*
X503376D01*
X495785Y275311D02*
Y283140D01*
X498076Y272409D02*
Y273526D01*
X503376Y271200D02*
X504000D01*
X503376Y271800D02*
X504000D01*
X503376Y270000D02*
X504000D01*
X496617Y272400D02*
X497977D01*
X496865Y272376D02*
X497687D01*
X495188Y289800D02*
X504412D01*
X495188Y290040D02*
X504412Y289982D01*
X495188Y287592D02*
Y290040D01*
Y288600D02*
X504412D01*
X495188Y289200D02*
X504412D01*
X484850Y284400D02*
X494135D01*
X488664Y284766D02*
X493987D01*
X490429Y283817D02*
X494549D01*
X484450Y280800D02*
X490429D01*
X484450Y281400D02*
X490429D01*
X484450Y280200D02*
X490429D01*
X488664Y284766D02*
Y290081D01*
X484850Y288600D02*
X488664D01*
X484850Y282723D02*
Y288823D01*
Y287400D02*
X488664D01*
X484850Y288000D02*
X488664D01*
X484850Y286800D02*
X488664D01*
X484850Y283800D02*
X490429D01*
X484850Y285000D02*
X488664D01*
X484850Y283200D02*
X490429D01*
X484850Y286200D02*
X488664D01*
X484850Y285600D02*
X488664D01*
X490429Y275311D02*
X495785D01*
X485031Y274800D02*
X505200D01*
X485152Y273600D02*
X505200D01*
X485152Y274200D02*
X505200D01*
X485152Y273000D02*
X498076D01*
X485152Y272400D02*
X493555D01*
X484562Y275400D02*
X490429D01*
X484450Y279600D02*
X490429D01*
Y275311D02*
Y283817D01*
X484450Y278400D02*
X490429D01*
X484450Y279000D02*
X490429D01*
X484450Y277200D02*
X490429D01*
X485152Y271200D02*
X492925D01*
X485152Y270600D02*
X492918D01*
X485152Y270000D02*
X493091D01*
X485152Y271800D02*
X493114D01*
X485152Y268701D02*
Y274213D01*
X503376Y269400D02*
X504000D01*
X503376Y268723D02*
X503935Y269283D01*
X503600Y261326D02*
Y265554D01*
X503376Y261726D02*
Y265288D01*
X502879Y268226D02*
X503376Y268723D01*
X498076Y261726D02*
X503376D01*
X502045Y249000D02*
X504753D01*
X501421Y249600D02*
X504753D01*
X502645Y248400D02*
X504753D01*
X496700Y250800D02*
X504753D01*
X496613Y251400D02*
X504753D01*
X496613Y250200D02*
X504753D01*
X501901Y267249D02*
X502879Y268226D01*
X498076D02*
Y269344D01*
Y267026D02*
X501641D01*
X495315Y268800D02*
X498076D01*
X496856Y269376D02*
X497687D01*
X498076Y268226D02*
X502879D01*
X498076Y261726D02*
Y267026D01*
X496458Y249822D02*
X500726D01*
X504753Y246761D02*
Y251724D01*
X503845Y247200D02*
X504753D01*
X505154Y245891D02*
Y246402D01*
X501574Y249471D02*
X505154Y245891D01*
X503245Y247800D02*
X504753D01*
X501437Y246214D02*
X504178Y243473D01*
X503623Y243600D02*
X504051D01*
X502423Y244800D02*
X502851D01*
X503023Y244200D02*
X503451D01*
X493425Y246600D02*
X497259D01*
X493263Y247422D02*
X497611D01*
X493345Y247200D02*
X497472D01*
X501823Y245400D02*
X502251D01*
X499521Y243600D02*
X500229D01*
X493367Y246185D02*
X496315D01*
X493025Y266400D02*
X498076D01*
X492871Y267000D02*
X498076D01*
X492925Y265800D02*
X498076D01*
X485065Y268200D02*
X502852D01*
X492330Y267600D02*
X502252D01*
X492774Y265200D02*
X498076D01*
X492979Y264000D02*
X498076D01*
X493008Y264600D02*
X498076D01*
X493012Y262200D02*
X498076D01*
X492972Y262800D02*
X498076D01*
X492667Y263400D02*
X498076D01*
X492792Y261600D02*
X503600D01*
X485152Y268800D02*
X494685D01*
X486024Y267829D02*
X491535D01*
X485152Y269400D02*
X493506D01*
X484666Y267600D02*
X485229D01*
X493025Y252600D02*
X493518D01*
X488779Y243185D02*
X495694D01*
X486024Y243195D02*
X488611D01*
X525900Y234000D02*
X533400D01*
X525900Y234600D02*
X533400D01*
X525900Y233400D02*
X533400D01*
X525900Y235800D02*
X533400D01*
X525900Y236400D02*
X533400D01*
X525900Y235200D02*
X533400D01*
X525900Y230400D02*
X533400D01*
X525900Y231000D02*
X533400D01*
X525900Y229800D02*
X533400D01*
X525900Y232200D02*
X533400D01*
X525900Y232800D02*
X533400D01*
X525900Y231600D02*
X533400D01*
X525900Y240600D02*
X533400D01*
X525900Y241200D02*
X533400D01*
X525900Y240000D02*
X533400D01*
X525900Y242400D02*
X533400D01*
X525900Y243000D02*
X533400D01*
X525900Y241800D02*
X533400D01*
X525900Y237600D02*
X533400D01*
X525900Y238200D02*
X533400D01*
X525900Y237000D02*
X533400D01*
X525900Y239400D02*
X533400D01*
X525900Y238800D02*
X533400D01*
X525900Y228600D02*
X533400D01*
X525900Y229200D02*
X533400D01*
Y190800D02*
Y289800D01*
X525900Y226800D02*
X533400D01*
X525900Y227400D02*
X533400D01*
X525775Y226200D02*
X533400D01*
X524721Y225000D02*
X533400D01*
X525321Y225600D02*
X533400D01*
X524121Y224400D02*
X533400D01*
X523521Y223800D02*
X533400D01*
X522669Y223200D02*
X533400D01*
X525900Y228000D02*
X533400D01*
X525900Y226800D02*
Y248335D01*
X521615Y226136D02*
X522900Y227421D01*
Y248344D01*
X523298Y223576D02*
X525460Y225739D01*
X514034Y226136D02*
X521615D01*
X514034Y223136D02*
X522236D01*
X513647Y242400D02*
X522900D01*
X513647Y243000D02*
X522900D01*
X513647Y241200D02*
X522900D01*
X513647Y240600D02*
X522900D01*
X505423Y241800D02*
X522900D01*
X513647Y240000D02*
X522900D01*
X513647Y235800D02*
X522900D01*
X513647Y237600D02*
X522900D01*
X513647Y235200D02*
X522900D01*
X513647Y238800D02*
X522900D01*
X513647Y239400D02*
X522900D01*
X513647Y238200D02*
X522900D01*
X505742Y241481D02*
X513647D01*
Y242240D02*
Y246402D01*
Y237319D02*
Y241481D01*
X505154Y237319D02*
X513647D01*
X505154Y242240D02*
X513647D01*
X502450Y237000D02*
X522900D01*
X513647Y234000D02*
X522900D01*
X513647Y234600D02*
X522900D01*
X513647Y233400D02*
X522900D01*
X508354Y236560D02*
X513647D01*
Y236400D02*
X522900D01*
X513647Y231600D02*
X522900D01*
X513647Y232800D02*
X522900D01*
X513647Y231000D02*
X522900D01*
X513647Y230400D02*
X522900D01*
X502850Y232200D02*
X522900D01*
X513647Y229800D02*
X522900D01*
X513647Y228600D02*
X522900D01*
X513647Y229200D02*
X522900D01*
X513647Y228000D02*
X522900D01*
X502850Y227400D02*
X522879D01*
X513647Y222600D02*
X533400D01*
X508615Y231639D02*
X513647D01*
Y232398D02*
Y236560D01*
Y227476D02*
Y231639D01*
X505154Y227476D02*
X513647D01*
X505154Y232398D02*
X513647D01*
X502850Y226800D02*
X522279D01*
X513647Y226200D02*
X521679D01*
X513647Y226168D02*
Y226717D01*
Y222555D02*
Y223105D01*
X505154Y226717D02*
X512633D01*
X512763D02*
X513647D01*
X527426Y213000D02*
X533400D01*
X527426Y213600D02*
X533400D01*
X527426Y212400D02*
X533400D01*
X527426Y214800D02*
X533400D01*
X527426Y215400D02*
X533400D01*
X527426Y214200D02*
X533400D01*
X527426Y209400D02*
X533400D01*
X527426Y210000D02*
X533400D01*
X527426Y208800D02*
X533400D01*
X527426Y211200D02*
X533400D01*
X527426Y211800D02*
X533400D01*
X527426Y210600D02*
X533400D01*
X527426Y219600D02*
X533400D01*
X527426Y220200D02*
X533400D01*
X527426Y219000D02*
X533400D01*
X527426Y221400D02*
X533400D01*
X527426Y222000D02*
X533400D01*
X527426Y220800D02*
X533400D01*
X527426Y216600D02*
X533400D01*
X527426Y217200D02*
X533400D01*
X527426Y216000D02*
X533400D01*
X527426Y218400D02*
X533400D01*
X527426Y217800D02*
X533400D01*
X526900Y202800D02*
X533400D01*
X526827Y203400D02*
X533400D01*
X526827Y202200D02*
X533400D01*
X526135Y204600D02*
X533400D01*
X525100Y205200D02*
X533400D01*
X526593Y204000D02*
X533400D01*
X526135Y201000D02*
X533400D01*
X526593Y201600D02*
X533400D01*
X532800Y190200D02*
X533400Y190800D01*
X525100Y200400D02*
X533400D01*
X522300Y198600D02*
X533400D01*
X527426Y208579D02*
Y222190D01*
X523521Y199800D02*
X533400D01*
X522921Y199200D02*
X533400D01*
X522461Y198740D02*
X524047Y200325D01*
X514996Y222190D02*
X527426D01*
X494994Y222000D02*
X514996D01*
X494994Y221400D02*
X514996D01*
X494994Y219600D02*
X514996D01*
X494994Y220200D02*
X514996D01*
X494994Y219000D02*
X514996D01*
Y208579D02*
X527426D01*
X509684Y202800D02*
X521900D01*
X520779Y201300D02*
X521925Y202447D01*
X509684Y202200D02*
X521679D01*
X509684Y201600D02*
X521079D01*
X509684Y201300D02*
X520779D01*
X512763Y222555D02*
X513647D01*
X505154D02*
X512633D01*
X514996Y208579D02*
Y222190D01*
X494994Y218400D02*
X514996D01*
X494994Y220800D02*
X514996D01*
X494994Y217800D02*
X514996D01*
X494994Y215400D02*
X514996D01*
X494994Y216000D02*
X514996D01*
X503583Y202850D02*
X509684D01*
X494994Y217200D02*
X514996D01*
X494994Y216600D02*
X514996D01*
X509684Y195600D02*
X533400D01*
X509684Y196200D02*
X533400D01*
X509684Y195000D02*
X533400D01*
X509684Y197400D02*
X533400D01*
X509684Y198000D02*
X533400D01*
X509684Y196800D02*
X533400D01*
X509684Y191400D02*
X533400D01*
X509684Y192000D02*
X533400D01*
X509684Y190800D02*
X533400D01*
X509684Y194400D02*
X533400D01*
X509684Y193800D02*
X533400D01*
X509684Y198300D02*
X521400D01*
X509684Y201300D02*
Y202850D01*
X508134Y196750D02*
X509684D01*
Y198300D01*
X508134Y196278D02*
X509684D01*
Y193200D02*
X533400D01*
X509684Y190200D02*
Y196278D01*
Y190200D02*
X532800D01*
X509684Y192600D02*
X533400D01*
X504823Y242400D02*
X505154D01*
X504223Y243000D02*
X505154D01*
Y242240D02*
Y243121D01*
X501581Y245642D02*
X505742Y241481D01*
X501300Y241200D02*
X502629D01*
X499884Y243945D02*
X504725Y239104D01*
X501761Y238800D02*
X504983D01*
X501796Y238700D02*
X502450D01*
Y238200D02*
X505154D01*
X501300Y240000D02*
X503828D01*
X501300Y240600D02*
X503229D01*
X501407Y239400D02*
X504428D01*
X501175Y241800D02*
X502029D01*
X500721Y242400D02*
X501429D01*
X500121Y243000D02*
X500829D01*
X498991Y244130D02*
X500860Y242261D01*
X501300Y239905D02*
Y241200D01*
X498300Y239914D02*
Y240579D01*
X497150Y238700D02*
X497803D01*
X505154Y236560D02*
X506846D01*
X502450Y235200D02*
X505154D01*
X502450Y236400D02*
X505154D01*
X502450Y237600D02*
X505154D01*
X502450Y235800D02*
X505154D01*
Y231639D02*
X506585D01*
X502850Y231600D02*
X505154D01*
X502450Y234600D02*
X505154D01*
X502450Y234000D02*
X505154D01*
Y237319D02*
Y238566D01*
X502450Y233400D02*
Y238700D01*
X505154Y232398D02*
Y236560D01*
X498119Y233400D02*
X502450D01*
X497150D02*
X498034D01*
X502450D02*
X505154D01*
Y227476D02*
Y231639D01*
X502850Y231000D02*
X505154D01*
X502850Y226500D02*
Y232600D01*
X498119Y233400D02*
X502450D01*
X495694Y243185D02*
X498300Y240579D01*
X485152Y241800D02*
X497079D01*
X485161Y239400D02*
X498193D01*
X485152Y240600D02*
X498279D01*
X485152Y241200D02*
X497679D01*
X485152Y240000D02*
X498300D01*
X485161Y238800D02*
X497839D01*
X497150Y236581D02*
Y238700D01*
X489449Y236549D02*
X496761D01*
X485161Y237600D02*
X497150D01*
X485161Y238200D02*
X497150D01*
X485161Y237000D02*
X497150D01*
X485161Y236261D02*
Y239567D01*
X485150Y242400D02*
X496479D01*
X484989Y243000D02*
X495879D01*
X485152Y239735D02*
Y242323D01*
X485450Y235800D02*
X488079D01*
X485555Y235200D02*
X487479D01*
X485161Y236400D02*
X488798D01*
X496843Y233531D02*
X497150Y233525D01*
X490070Y233549D02*
X496764D01*
X497150Y233400D02*
X498034D01*
X489321Y232800D02*
X505154D01*
X489921Y233400D02*
X497150D01*
X489300Y232779D02*
X490070Y233549D01*
X496750Y232600D02*
X502850D01*
X489300Y226899D02*
Y232779D01*
X496750Y226500D02*
Y232600D01*
X489300Y232200D02*
X496750D01*
X489300Y231600D02*
X496750D01*
X486740Y234461D02*
X488387Y236109D01*
X485555Y234600D02*
X486879D01*
X485555Y234000D02*
X486425D01*
X485555Y229909D02*
Y235248D01*
Y232800D02*
X486300D01*
X485555Y233400D02*
X486300D01*
Y227520D02*
Y233400D01*
X485555Y232200D02*
X486300D01*
X485555Y231600D02*
X486300D01*
X502850Y228000D02*
X505154D01*
X502850Y228600D02*
X505154D01*
Y222555D02*
Y226717D01*
X502850Y229800D02*
X505154D01*
X502850Y230400D02*
X505154D01*
X502850Y229200D02*
X505154D01*
X505133Y196278D02*
Y196750D01*
X502783Y201000D02*
X503583D01*
X502783Y202200D02*
X503583D01*
Y196750D02*
X505133D01*
X502783Y201600D02*
X503583D01*
X502783Y197150D02*
Y202450D01*
X503583Y196750D02*
Y202850D01*
X502783Y199800D02*
X503583D01*
X502783Y200400D02*
X503583D01*
X502783Y199200D02*
X503583D01*
X502783Y198000D02*
X503583D01*
X502783Y198600D02*
X503583D01*
X502783Y197400D02*
X503583D01*
X501666Y197150D02*
X502783D01*
X501642Y196800D02*
X503583D01*
X508134Y196278D02*
Y196750D01*
X503583Y196278D02*
X505133D01*
X503583Y191936D02*
Y196278D01*
X502783Y195600D02*
X503583D01*
X501649Y196200D02*
X503583D01*
X502783Y195000D02*
X503583D01*
X502783Y193800D02*
X503583D01*
X502783Y194400D02*
X503583D01*
X502783Y193200D02*
X503583D01*
X502783Y192600D02*
X503583D01*
X502783Y192000D02*
X503583D01*
X502783Y191105D02*
Y195878D01*
Y191105D02*
X503334Y191655D01*
X501666Y195878D02*
X502783D01*
X501634Y196267D02*
Y196761D01*
X502257Y190578D02*
X502783Y191105D01*
X501879Y190200D02*
X502257Y190578D01*
X501640D02*
X502257D01*
X501563Y190200D02*
X501879D01*
X489300Y230400D02*
X496750D01*
X489300Y231000D02*
X496750D01*
X489300Y229800D02*
X496750D01*
X489300Y227400D02*
X496750D01*
X489300Y228000D02*
X496750D01*
Y226500D02*
X502850D01*
X489300Y229200D02*
X496750D01*
X489300Y228600D02*
X496750D01*
X485555Y230400D02*
X486300D01*
X485555Y231000D02*
X486300D01*
X485551Y229800D02*
X486300D01*
X485546Y228600D02*
X486300D01*
X485546Y229200D02*
X486300D01*
X485546Y227100D02*
Y229741D01*
X485880Y227100D02*
X486300Y227520D01*
X485546Y228000D02*
X486300D01*
X489297Y226800D02*
X496750D01*
X485546Y227400D02*
X486180D01*
X485546Y227100D02*
X485880D01*
X494994Y224400D02*
X505154D01*
X494994Y225000D02*
X505154D01*
X494994Y223200D02*
X505154D01*
X488623Y225600D02*
X505154D01*
X489127Y226200D02*
X505154D01*
X494994Y223800D02*
X505154D01*
X497483Y202450D02*
X502783D01*
X497483Y197150D02*
X498601D01*
X498633Y196267D02*
Y196761D01*
X494994Y222600D02*
X505154D01*
X497483Y195878D02*
X498601D01*
X494994Y214848D02*
Y225309D01*
X488332D02*
X494994D01*
X488332D02*
X488860Y225837D01*
X486108Y214848D02*
Y224100D01*
X497483Y190578D02*
X497936D01*
X497483D02*
Y195878D01*
X497557Y190200D02*
X497936Y190578D01*
X486108Y214848D02*
X494994D01*
X497483Y197150D02*
Y202450D01*
X478750Y288823D02*
X484850D01*
X473043Y286435D02*
X478750D01*
X478780Y282000D02*
X490429D01*
X479150Y281923D02*
X484450D01*
X479150Y281238D02*
Y281923D01*
X478780Y282600D02*
X490429D01*
X478780Y282723D02*
X484850D01*
X478780Y281679D02*
Y282723D01*
X478750Y286435D02*
Y288823D01*
X473043Y280373D02*
Y286435D01*
X469765Y279600D02*
X472303D01*
X468565Y280800D02*
X473043D01*
X469165Y280200D02*
X472897D01*
X467976Y281389D02*
X470730Y278634D01*
X477876Y279118D02*
X478570Y278425D01*
X476282Y279000D02*
X477994D01*
X476923Y278400D02*
X478595D01*
X476042Y279124D02*
X477833D01*
X470365Y279000D02*
X471703D01*
X484450Y277800D02*
X490429D01*
X484450Y276623D02*
Y281923D01*
X479150Y276623D02*
Y278104D01*
Y276623D02*
X484450D01*
X477300Y277200D02*
X479150D01*
X477212Y276600D02*
X490429D01*
X476923Y276000D02*
X490429D01*
X471002Y278299D02*
X472887Y280184D01*
X477212Y277800D02*
X479150D01*
X468682Y275490D02*
Y277289D01*
X462050Y288000D02*
X478750D01*
X462050Y288600D02*
X478750D01*
X462050Y287400D02*
X478750D01*
X437640Y289800D02*
X488664D01*
X438000Y290400D02*
X488664Y290081D01*
X437640Y289200D02*
X488664D01*
X467757Y283200D02*
X473043D01*
X467757Y285000D02*
X473043D01*
X467757Y282600D02*
X473043D01*
X462050Y286800D02*
X478750D01*
X467757Y286200D02*
X473043D01*
X467757Y285600D02*
X473043D01*
X467757Y284400D02*
X473043D01*
X462050Y286435D02*
Y288823D01*
X467757Y283800D02*
X473043D01*
X462050Y286435D02*
X467757D01*
X455950Y288823D02*
X462050D01*
X467757Y282000D02*
X473043D01*
X455950Y282723D02*
X462020D01*
X456350Y281923D02*
X461650D01*
X437640Y282600D02*
X462020D01*
X437640Y282000D02*
X462020D01*
X467969Y281400D02*
X473043D01*
X467757Y281679D02*
Y286435D01*
X466853Y279118D02*
X468682Y277289D01*
X462205Y278400D02*
X467571D01*
X462806Y279000D02*
X466971D01*
X461650Y277800D02*
X468171D01*
X461650Y277200D02*
X468682D01*
X454521Y276600D02*
X468682D01*
X455121Y276000D02*
X468682D01*
X463005Y279124D02*
X466810D01*
X462020Y281679D02*
Y282723D01*
X462230Y278425D02*
X462924Y279118D01*
X461650Y281238D02*
Y281923D01*
Y276623D02*
Y278104D01*
X456350Y276623D02*
X461650D01*
X479250Y267000D02*
X484688D01*
X478549Y265800D02*
X484634D01*
X479067Y266400D02*
X484534D01*
X477949Y265200D02*
X484786D01*
X477349Y264600D02*
X484551D01*
X473038Y264532D02*
X475364Y266858D01*
X476749Y264000D02*
X484580D01*
X470289Y264600D02*
X473106D01*
X461522D02*
X468118D01*
X470950Y264532D02*
X473038D01*
X461344Y265200D02*
X473706D01*
X461500Y264000D02*
X467477D01*
X483896Y257265D02*
X484747D01*
X479972Y263602D02*
X484747D01*
X483813Y256800D02*
X484564D01*
X483523Y256200D02*
X484563D01*
X482882Y255600D02*
X484832D01*
X479652D02*
X480718D01*
X465438Y248400D02*
X484550D01*
X476149Y263400D02*
X479306D01*
X475549Y262800D02*
X477488D01*
X474720Y261972D02*
X478816Y266067D01*
X474949Y262200D02*
X476847D01*
X474107Y261600D02*
X476558D01*
X471161Y261532D02*
X473659D01*
X470282Y261000D02*
X476470D01*
X461135Y266400D02*
X474906D01*
X461035Y265800D02*
X474306D01*
X461123Y262200D02*
X467188D01*
X460981Y267000D02*
X474962D01*
X460902Y261600D02*
X467477D01*
X461024Y261000D02*
X468118D01*
X461130Y258600D02*
X476847D01*
X461136Y260400D02*
X476558D01*
X461062Y258000D02*
X476558D01*
X460942Y259200D02*
X477488D01*
X460995Y259800D02*
X476847D01*
X460831Y257400D02*
X476470D01*
X461268Y263400D02*
X467188D01*
X461082Y262800D02*
X467100D01*
X461059Y255000D02*
X484610D01*
X461131Y254400D02*
X484539D01*
X461136Y252600D02*
X484534D01*
X460947Y253800D02*
X484723D01*
X460991Y253200D02*
X484678D01*
X461027Y252000D02*
X484642D01*
X461084Y250200D02*
X484585D01*
X461121Y250800D02*
X484548D01*
X461088Y249000D02*
X484582D01*
X460897Y251400D02*
X484772D01*
X460771Y249600D02*
X484899D01*
X461106Y256200D02*
X476847D01*
X461105Y256800D02*
X476558D01*
X460837Y255600D02*
X477488D01*
X461120Y248400D02*
X462514D01*
X460889Y247800D02*
X462083D01*
X456350Y276623D02*
Y281923D01*
X449050Y281400D02*
X456350D01*
X449895Y280800D02*
X456350D01*
X455721Y275400D02*
X461107D01*
X452721Y278400D02*
X456350D01*
X456321Y274800D02*
X460638D01*
X451521Y279600D02*
X456350D01*
X450921Y280200D02*
X456350D01*
X452121Y279000D02*
X456350D01*
X455950Y282723D02*
Y288823D01*
X453321Y277800D02*
X456350D01*
X449050Y280847D02*
Y281965D01*
Y276665D02*
Y277783D01*
X453921Y277200D02*
X456350D01*
X449450Y275400D02*
X451479D01*
X449450Y274200D02*
X452679D01*
X449050Y277200D02*
X449679D01*
X449450Y274800D02*
X452079D01*
X458923Y273000D02*
X460517D01*
X458282Y273600D02*
X460517D01*
Y272990D02*
Y274213D01*
X456921Y274200D02*
X460517D01*
X450747Y280375D02*
X456948Y274173D01*
X459192Y272957D02*
X460117D01*
X456914Y268484D02*
X458353Y269923D01*
X449450Y270000D02*
X456118D01*
X449450Y269400D02*
X457830D01*
X449450Y272400D02*
X454479D01*
X449450Y273000D02*
X453879D01*
X449450Y269765D02*
Y272100D01*
Y273600D02*
X453279D01*
X449450Y272100D02*
Y275865D01*
X449092Y277786D02*
X454820Y272058D01*
X449450Y270600D02*
X455477D01*
X449450Y271200D02*
X455188D01*
X449450Y266950D02*
Y269765D01*
Y271800D02*
X455036D01*
X449450Y269765D02*
Y272100D01*
X437640Y286200D02*
X455950D01*
X437640Y286800D02*
X455950D01*
X437640Y285600D02*
X455950D01*
X437640Y288000D02*
X455950D01*
X437640Y288600D02*
X455950D01*
X437640Y287400D02*
X455950D01*
X437640Y284400D02*
X455950D01*
X437640Y285000D02*
X455950D01*
X443750Y281965D02*
X449050D01*
X437640Y283200D02*
X455950D01*
X437640Y283800D02*
X455950D01*
X437640Y276600D02*
X450279D01*
X437640Y281400D02*
X443750D01*
X437640Y290040D02*
X438000Y290400D01*
X443750Y276665D02*
Y281965D01*
X437640Y280200D02*
X443750D01*
X437640Y280800D02*
X443750D01*
X437640Y279600D02*
X443750D01*
X437640Y277200D02*
X443750D01*
X437640Y277800D02*
X443750D01*
Y276665D02*
X449050D01*
X437640Y279000D02*
X443750D01*
X437640Y278400D02*
X443750D01*
X437640Y276000D02*
X450879D01*
X443350Y275865D02*
X449450D01*
X437640Y274800D02*
X443350D01*
X437640Y275400D02*
X443350D01*
X437640Y274200D02*
X443350D01*
X437640Y273600D02*
X443350D01*
X437640Y273000D02*
X443350D01*
Y269765D02*
Y272100D01*
Y275865D01*
Y269765D02*
Y272100D01*
X437640Y271800D02*
X443350D01*
X437640Y272400D02*
X443350D01*
X437640Y267895D02*
Y290040D01*
Y270600D02*
X443350D01*
X437640Y271200D02*
X443350D01*
Y267000D02*
Y269765D01*
X437640Y270000D02*
X443350D01*
X437640Y269400D02*
X443350D01*
X460333Y267661D02*
X460685Y268013D01*
X454134Y267829D02*
X455721D01*
X449450Y268800D02*
X457230D01*
X449450Y268200D02*
X456581D01*
X460440Y267600D02*
X461003D01*
X449450D02*
X453340D01*
X449450Y267000D02*
X452798D01*
X450805Y265800D02*
X452744D01*
X450205Y266400D02*
X452645D01*
X451405Y265200D02*
X452435D01*
X449956Y266649D02*
X452243Y264362D01*
X449050Y262800D02*
X450411D01*
X449050Y262200D02*
X450065D01*
X449050Y261600D02*
X449454D01*
X449050Y263400D02*
X449811D01*
X449050Y264161D02*
X450731Y262480D01*
X449050Y259900D02*
Y264161D01*
X448697Y259800D02*
X449198D01*
X448597Y259900D02*
X449050D01*
X448964Y259533D02*
X449303D01*
X449259Y248362D02*
X450288Y249391D01*
X449127Y248024D02*
X450493Y249391D01*
X448597Y259900D02*
X448964Y259533D01*
X445551Y259552D02*
X447407Y257696D01*
X445897Y252894D02*
X446330Y253328D01*
X444112Y257696D02*
X447407D01*
X447756Y251359D02*
X448862D01*
X447511Y250800D02*
X448303D01*
X447562Y250059D02*
X448862Y251359D01*
X445978Y253328D02*
X446330D01*
X439781Y264600D02*
X443750D01*
X439781D02*
X443750D01*
X438867Y264000D02*
X443750D01*
X437640Y262800D02*
X443750D01*
X437640Y263400D02*
X443750D01*
X437640Y262200D02*
X443750D01*
Y259900D02*
X445309D01*
X437640Y260400D02*
X443750D01*
X443316Y258000D02*
X447103D01*
X437640Y259200D02*
X445903D01*
X437640Y259800D02*
X445361D01*
X437640Y258600D02*
X446503D01*
X439781Y267000D02*
X443350D01*
X438867Y267600D02*
X443350D01*
X439781Y267000D02*
X443350D01*
X437640Y268200D02*
X443350D01*
X437640Y268800D02*
X443350D01*
X437640Y261600D02*
X443750D01*
Y259900D02*
Y264600D01*
X437640Y261000D02*
X443750D01*
X437640Y258000D02*
X441118D01*
X443402Y257950D02*
X443724Y257787D01*
X437640Y252000D02*
X442235D01*
X437640Y251400D02*
X443160D01*
X437896Y249000D02*
X444040D01*
X437748Y249600D02*
X443553D01*
X438022Y248400D02*
X444987D01*
X437640Y250800D02*
X443310D01*
X437640Y250200D02*
X443338D01*
X437640Y255600D02*
X440188D01*
X437640Y256200D02*
X440100D01*
X437640Y255000D02*
X440477D01*
X437640Y257400D02*
X440477D01*
X437640Y256800D02*
X440188D01*
X437640Y249912D02*
Y263705D01*
Y252600D02*
X441858D01*
X437640Y253200D02*
X441710D01*
X437640Y249912D02*
X437786Y249492D01*
X437640Y254400D02*
X441118D01*
X437640Y253800D02*
X441739D01*
X467923Y245400D02*
X484608D01*
X466054Y247200D02*
X484214D01*
X466056Y246600D02*
X484134D01*
X467282Y246000D02*
X484250D01*
X484430Y243600D02*
X485002D01*
X482461D02*
X482893D01*
X468300Y244200D02*
X484614D01*
X468213Y244800D02*
X484538D01*
X480493Y243600D02*
X480924D01*
X476556D02*
X476987D01*
X474587D02*
X475019D01*
X472619D02*
X473050D01*
X478524D02*
X478956D01*
X468682D02*
X469113D01*
X470650D02*
X471082D01*
X481618Y233701D02*
X482551Y234633D01*
X482555Y233368D02*
Y234629D01*
X481917Y234000D02*
X482555D01*
X481618Y233368D02*
Y233701D01*
Y233368D02*
X482555D01*
X481618Y233400D02*
X482555D01*
X471957Y233769D02*
X472428Y234239D01*
X471957Y233769D02*
X472566D01*
X468785Y232485D02*
Y232859D01*
Y226450D02*
Y232428D01*
X467526Y231600D02*
X468785D01*
X468126Y232200D02*
X468785D01*
X466926Y231000D02*
X468785D01*
X466326Y230400D02*
X468785D01*
X465870Y247800D02*
X484520D01*
X461032Y247200D02*
X461899D01*
X461135Y246600D02*
X461841D01*
X461272Y245885D02*
X461717Y246330D01*
X462981Y244200D02*
X463752D01*
X462617Y243836D02*
X463414Y244633D01*
X460985Y246000D02*
X461387D01*
X460923Y245885D02*
X461272D01*
X450308Y243000D02*
X460680D01*
X460517Y241100D02*
Y242323D01*
X458650Y241200D02*
X460517D01*
X458650Y236400D02*
X460575D01*
X450308Y242400D02*
X460519D01*
X450308Y241800D02*
X460517D01*
X464966Y235200D02*
X465703D01*
X459703Y229200D02*
X465828Y235325D01*
X459050Y234600D02*
X465103D01*
X461877Y225952D02*
X468785Y232859D01*
X465126Y229200D02*
X468785D01*
X465726Y229800D02*
X468785D01*
X464526Y228600D02*
X468785D01*
X463926Y228000D02*
X468785D01*
X463326Y227400D02*
X468785D01*
X459050Y235200D02*
X462987D01*
X459050Y234000D02*
X464503D01*
X450308Y235800D02*
X460913D01*
X459050Y233400D02*
X463903D01*
X459050Y231600D02*
X462103D01*
X459050Y231000D02*
X461503D01*
X459050Y230400D02*
X460903D01*
X459050Y232800D02*
X463303D01*
X459050Y232200D02*
X462703D01*
X479640Y226450D02*
X480596D01*
X478628D02*
X479640D01*
X474690D02*
X475703D01*
X478628D02*
X479640D01*
X476659D02*
X477672D01*
X476659D02*
X477672D01*
X478628D01*
X474135Y226200D02*
X480666D01*
X475703Y226450D02*
X476659D01*
X461029Y225600D02*
X481046D01*
X474690Y226450D02*
X475703D01*
X474135D02*
X474690D01*
X474135Y226050D02*
Y226450D01*
X468785D02*
X470354D01*
X462726Y226800D02*
X468785D01*
X470354Y226050D02*
Y226450D01*
Y226050D02*
X474135D01*
X462126Y226200D02*
X470354D01*
X459336Y225309D02*
X468223D01*
Y223800D02*
X486108D01*
X483168Y224100D02*
X486108D01*
X468223Y223200D02*
X486108D01*
X468223Y222000D02*
X486108D01*
X468223Y222600D02*
X486108D01*
X468223Y221400D02*
X486108D01*
X468223Y216600D02*
X486108D01*
X468223Y219600D02*
X486108D01*
X468223Y216000D02*
X486108D01*
X468223Y220800D02*
X486108D01*
X468223Y220200D02*
X486108D01*
X481027Y225620D02*
X482106Y224540D01*
X468223Y224400D02*
X482268D01*
X468223Y225000D02*
X481646D01*
X468223Y214848D02*
Y225309D01*
Y217200D02*
X486108D01*
X468223Y217800D02*
X486108D01*
X468223Y215400D02*
X486108D01*
X468223Y219000D02*
X486108D01*
X468223Y218400D02*
X486108D01*
X453142Y213000D02*
X514996D01*
X453742Y213600D02*
X514996D01*
X452542Y212400D02*
X514996D01*
X447742Y207600D02*
X533400D01*
X448342Y208200D02*
X533400D01*
X447142Y207000D02*
X533400D01*
X445942Y205800D02*
X533400D01*
X446542Y206400D02*
X533400D01*
X445342Y205200D02*
X523700D01*
X444742Y204600D02*
X522665D01*
X444142Y204000D02*
X522207D01*
X443542Y203400D02*
X521973D01*
X454881Y214800D02*
X514996D01*
X459336Y214848D02*
X468223D01*
X454342Y214200D02*
X514996D01*
X449348Y225600D02*
X461029D01*
X449348D02*
X461029D01*
X451942Y211800D02*
X514996D01*
X450742Y210600D02*
X514996D01*
X451342Y211200D02*
X514996D01*
X450142Y210000D02*
X514996D01*
X449542Y209400D02*
X514996D01*
X448942Y208800D02*
X514996D01*
X442942Y202800D02*
X503583D01*
X442342Y202200D02*
X497483D01*
X441742Y201600D02*
X497483D01*
X439942Y199800D02*
X497483D01*
X440542Y200400D02*
X497483D01*
X439342Y199200D02*
X497483D01*
X438142Y198000D02*
X497483D01*
X438742Y198600D02*
X497483D01*
X437640Y196800D02*
X498625D01*
X437640Y196200D02*
X498618D01*
X437640Y190200D02*
X497557D01*
X437640Y197400D02*
X497483D01*
X441142Y201000D02*
X497483D01*
X437640Y195600D02*
X497483D01*
X437640Y194400D02*
X497483D01*
X437640Y195000D02*
X497483D01*
X437640Y193800D02*
X497483D01*
X437640Y191400D02*
X497483D01*
X437640Y192000D02*
X497483D01*
X437640Y190800D02*
X497483D01*
X437640Y193200D02*
X497483D01*
X437640Y192600D02*
X497483D01*
X454134Y243195D02*
X459646D01*
X457771Y241350D02*
X458650D01*
X453350D02*
X457714D01*
X450308Y241200D02*
X453350D01*
X459038Y238067D02*
X460117D01*
X459032Y241067D02*
X460117D01*
X458650Y237000D02*
X460517D01*
X450308Y237600D02*
X453350D01*
X450308Y238200D02*
X453350D01*
X458650Y237600D02*
X460517D01*
X451751Y245454D02*
X452857D01*
X451697Y245400D02*
X452826D01*
X451097Y244800D02*
X452648D01*
X450497Y244200D02*
X452724D01*
X450308Y244011D02*
X451751Y245454D01*
X450308Y243600D02*
X453112D01*
X450308Y238800D02*
X453350D01*
X450308Y239400D02*
X453350D01*
X450308Y237000D02*
X453350D01*
X450308Y240600D02*
X453350D01*
X450308Y240000D02*
X453350D01*
X460517Y236811D02*
Y238034D01*
X458650Y236050D02*
Y238035D01*
X459050Y229200D02*
Y235250D01*
X453350Y236050D02*
X458650D01*
X453350D02*
Y241350D01*
X452950Y235250D02*
X459050D01*
X452950Y234014D02*
Y235250D01*
X450308Y230451D02*
Y244011D01*
Y234600D02*
X452950D01*
X450308Y235200D02*
X452950D01*
X450308Y234000D02*
X452900D01*
X450308Y232200D02*
X451173D01*
X450308Y231600D02*
X451100D01*
X450308Y231000D02*
X451173D01*
X450308Y233400D02*
X451865D01*
X450308Y232800D02*
X451407D01*
X438528Y245400D02*
X446744D01*
X438576Y244800D02*
X446708D01*
X438624Y244200D02*
X446708D01*
X438697Y243000D02*
X446708D01*
X438671Y243600D02*
X446708D01*
X438668Y242400D02*
X446708D01*
X438447Y239400D02*
X446708D01*
X438543Y240000D02*
X446708D01*
X438235Y238200D02*
X446708D01*
X438480Y246000D02*
X445918D01*
X438398Y246600D02*
X445277D01*
X438458Y246277D02*
X438700Y243234D01*
X438273Y247200D02*
X444987D01*
X438147Y247800D02*
X444900D01*
X437817Y249380D02*
X438442Y246392D01*
X438611Y241200D02*
X446708D01*
X438639Y241800D02*
X446708D01*
X438582Y240600D02*
X446708D01*
X438557Y240069D02*
X438702Y243118D01*
X438341Y238800D02*
X446708D01*
X438023Y237000D02*
X446708D01*
X438129Y237600D02*
X446708D01*
X450308Y236400D02*
X453350D01*
X437665Y235800D02*
X446708D01*
X437852Y236400D02*
X446708D01*
X437640Y235200D02*
X446708D01*
X450307Y230400D02*
X451407D01*
X437640Y234600D02*
X446708D01*
X437640Y234000D02*
X446708D01*
X438014Y236947D02*
X438544Y239953D01*
X437640Y235720D02*
X437987Y236834D01*
X446708Y231445D02*
Y245108D01*
X437640Y232800D02*
X446708D01*
X437640Y233400D02*
X446708D01*
X437640Y222378D02*
Y235720D01*
Y231000D02*
X446263D01*
X437640Y230400D02*
X445663D01*
X437640Y222378D02*
X446708Y231445D01*
X437640Y232200D02*
X446708D01*
X437640Y231600D02*
X446708D01*
X459050Y229800D02*
X460303D01*
X459050Y229200D02*
X459703D01*
X459050D02*
X459703D01*
X454300Y224400D02*
X459336D01*
X448748Y225000D02*
X459336D01*
X455335Y223800D02*
X459336D01*
X456100Y222000D02*
X459336D01*
X456027Y222600D02*
X459336D01*
X456027Y221400D02*
X459336D01*
X455793Y223200D02*
X459336D01*
X450116Y229800D02*
X451865D01*
X449554Y229200D02*
X449956Y229603D01*
X449554Y229200D02*
X452900D01*
X449554D02*
X452900D01*
X448148Y224400D02*
X452900D01*
X447548Y223800D02*
X451865D01*
X446948Y223200D02*
X451407D01*
X446348Y222600D02*
X451173D01*
X445748Y222000D02*
X451100D01*
X445148Y221400D02*
X451173D01*
X455335Y220200D02*
X459336D01*
X455793Y220800D02*
X459336D01*
Y214848D02*
Y225309D01*
X455100Y219000D02*
X459336D01*
X455100Y219600D02*
X459336D01*
X455100Y218400D02*
X459336D01*
X455100Y217200D02*
X459336D01*
X455100Y217800D02*
X459336D01*
X455100Y216600D02*
X459336D01*
X455100Y216000D02*
X459336D01*
X455089Y215400D02*
X459336D01*
X452100Y216201D02*
Y220000D01*
X455100Y215580D02*
Y220000D01*
X443948Y220200D02*
X451865D01*
X444548Y220800D02*
X451407D01*
X443348Y219600D02*
X452100D01*
X442748Y219000D02*
X452100D01*
X442148Y218400D02*
X452100D01*
X440948Y217200D02*
X452100D01*
X441548Y217800D02*
X452100D01*
X440348Y216600D02*
X452100D01*
X439748Y216000D02*
X451899D01*
X437640Y229800D02*
X445063D01*
X437640Y213893D02*
X449348Y225600D01*
X439148Y215400D02*
X451299D01*
X438548Y214800D02*
X450699D01*
X437948Y214200D02*
X450099D01*
X437640Y213600D02*
X449499D01*
X437640Y213000D02*
X448899D01*
X437640Y227400D02*
X442663D01*
X437640Y226800D02*
X442063D01*
X437640Y226200D02*
X441463D01*
X437640Y229200D02*
X444463D01*
X437640Y228600D02*
X443863D01*
X437640Y228000D02*
X443263D01*
X437640Y224400D02*
X439663D01*
X437640Y223800D02*
X439063D01*
X437640Y223200D02*
X438463D01*
X437640Y225600D02*
X440863D01*
X437640Y225000D02*
X440263D01*
X437640Y211800D02*
X447699D01*
X437640Y211200D02*
X447099D01*
X437640Y210600D02*
X446499D01*
X437640Y201741D02*
X452100Y216201D01*
X437640Y212400D02*
X448299D01*
X437640Y197499D02*
X454660Y214518D01*
X437640Y208800D02*
X444699D01*
X437640Y208200D02*
X444099D01*
X437640Y207600D02*
X443499D01*
X437640Y210000D02*
X445899D01*
X437640Y209400D02*
X445299D01*
X437640Y205800D02*
X441699D01*
X437640Y205200D02*
X441099D01*
X437640Y204600D02*
X440499D01*
X437640Y207000D02*
X442899D01*
X437640Y206400D02*
X442299D01*
X437640Y201741D02*
Y213893D01*
Y202800D02*
X438699D01*
X437640Y202200D02*
X438099D01*
X437640Y190200D02*
Y197499D01*
Y204000D02*
X439899D01*
X437640Y203400D02*
X439299D01*
X469882Y235653D02*
Y239567D01*
X461029Y226800D02*
X469882Y235653D01*
X460200Y228000D02*
X467913Y235713D01*
X448354Y228000D02*
X460200D01*
X421800Y204000D02*
X425400Y207600D01*
X448851Y226800D02*
X461029D01*
X429651Y207600D02*
X448851Y226800D01*
X425400Y207600D02*
X429651D01*
X411017Y201000D02*
X418817Y208800D01*
X429154D01*
X467913Y235713D02*
Y239567D01*
X465945D02*
Y243945D01*
X466200Y244200D01*
X429154Y208800D02*
X448354Y228000D01*
X447908Y245108D02*
X451422Y248622D01*
X447908Y230948D02*
Y245108D01*
X428160Y211200D02*
X447908Y230948D01*
X449108Y244508D02*
X451254Y246654D01*
X449108Y230451D02*
Y244508D01*
X428657Y210000D02*
X449108Y230451D01*
X412217Y211200D02*
X428160D01*
X411017Y212400D02*
X412217Y211200D01*
X414317Y210000D02*
X428657D01*
X411017Y206700D02*
X414317Y210000D01*
X451254Y246654D02*
X456890D01*
X451422Y248622D02*
X456890D01*
X421800Y195000D02*
Y204000D01*
X418060Y191260D02*
X421800Y195000D01*
X461769Y244685D02*
X463976Y246892D01*
X456890Y244685D02*
X461769D01*
X494390Y250590D02*
X494600Y250800D01*
X488779Y250590D02*
X494390D01*
X488779Y248622D02*
X500726D01*
X505026Y244321D01*
X499321Y246204D02*
X506126Y239400D01*
X509400D01*
X505026Y244321D02*
X509400D01*
X482865Y258465D02*
X488779D01*
X481800Y257400D02*
X482865Y258465D01*
X451200Y260400D02*
X451233Y260433D01*
X451200Y260400D02*
Y260433D01*
X451233D02*
X456890D01*
X446400Y260400D02*
X448467Y258333D01*
X456758D01*
X456890Y258465D01*
X445328Y254528D02*
X456890D01*
X444600Y253800D02*
X445328Y254528D01*
X447259Y252559D02*
X456890D01*
X445500Y250800D02*
X447259Y252559D01*
X449790Y250590D02*
X456890D01*
X447000Y247800D02*
X449790Y250590D01*
X442496Y256496D02*
X456890D01*
X442200Y256200D02*
X442496Y256496D01*
X478570Y257400D02*
X481603Y260433D01*
X488779D01*
X478570Y261000D02*
X479972Y262402D01*
X488779D01*
X327600Y238649D02*
X333178Y233071D01*
X346063D01*
X327600Y238649D02*
Y255950D01*
X418060Y182428D02*
Y191260D01*
X425540Y195000D02*
X426131Y195591D01*
X418060Y182428D02*
X418688Y181800D01*
X336650Y243071D02*
X346063D01*
X332400Y247321D02*
X336650Y243071D01*
X332400Y247321D02*
Y255950D01*
X500726Y264376D02*
X506650Y270301D01*
Y270876D01*
X506400Y271126D02*
X506650Y270876D01*
X506400Y271126D02*
Y279000D01*
X473819Y275819D02*
X475200Y277200D01*
X473819Y271457D02*
Y275819D01*
X461382Y279273D02*
X464888Y282780D01*
X459000Y279273D02*
X461382D01*
X475912Y281512D02*
Y282780D01*
X471850Y277450D02*
X475912Y281512D01*
X479418Y279273D02*
X481800D01*
X475912Y282780D02*
X479418Y279273D01*
X471850Y271457D02*
Y277450D01*
X469882Y271457D02*
Y277786D01*
X464888Y282780D02*
X469882Y277786D01*
X437786Y265800D02*
X449108D01*
X452506Y262402D01*
X456890D01*
X446400Y260400D02*
Y262550D01*
D18*
X425188Y181800D02*
D03*
X418688D02*
D03*
X506067Y168028D02*
D03*
X499567D02*
D03*
X506067Y173000D02*
D03*
X499567D02*
D03*
X506634Y193228D02*
D03*
X500134D02*
D03*
X506634Y199800D02*
D03*
X500134D02*
D03*
X404517Y201000D02*
D03*
X411017D02*
D03*
X404517Y212400D02*
D03*
X411017D02*
D03*
X404517Y206700D02*
D03*
X411017D02*
D03*
D23*
X499800Y229550D02*
D03*
Y236050D02*
D03*
X456000Y232200D02*
D03*
Y238700D02*
D03*
X446400Y272815D02*
D03*
Y279315D02*
D03*
X500726Y270876D02*
D03*
Y264376D02*
D03*
X459000Y279273D02*
D03*
Y285773D02*
D03*
X327600Y262450D02*
D03*
Y255950D02*
D03*
X446400Y262550D02*
D03*
Y269050D02*
D03*
X481800Y279273D02*
D03*
Y285773D02*
D03*
X506650Y270876D02*
D03*
Y264376D02*
D03*
X332400Y262450D02*
D03*
Y255950D02*
D03*
D43*
X474992Y266910D02*
X475787Y267705D01*
Y271457D01*
X455400Y231600D02*
X456000Y232200D01*
X453600Y231600D02*
X455400D01*
X453600Y215580D02*
Y222000D01*
X425540Y187520D02*
X453600Y215580D01*
X521400Y199800D02*
X524400Y202800D01*
X506634Y199800D02*
X521400D01*
X490800Y165746D02*
Y181321D01*
X496819Y187340D01*
X425188Y181800D02*
X425540Y182152D01*
Y187520D01*
X506067Y162201D02*
X506268Y162000D01*
X506067Y162201D02*
Y168028D01*
X502200Y183600D02*
Y188400D01*
Y178200D02*
Y183600D01*
X506268D01*
X506067Y168028D02*
Y173000D01*
X506634Y193228D02*
Y199800D01*
Y192833D02*
Y193228D01*
X506067Y173000D02*
Y174334D01*
X502200Y178200D02*
X506067Y174334D01*
X502200Y188400D02*
X506634Y192833D01*
X493200Y156600D02*
X507600D01*
X377400D02*
X493200D01*
X499567Y168028D02*
Y173000D01*
Y162967D02*
Y168028D01*
X493200Y156600D02*
X499567Y162967D01*
X511660Y179860D02*
X513600Y181800D01*
X511660Y179860D02*
X511660Y179860D01*
X511660Y160660D02*
Y179860D01*
X507600Y156600D02*
X511660Y160660D01*
X382200Y181200D02*
Y204600D01*
X370800Y169800D02*
X382200Y181200D01*
X351600Y169800D02*
X370800D01*
X430297Y265800D02*
Y283103D01*
X425447Y287953D02*
X430297Y283103D01*
X389353Y287953D02*
X425447D01*
X385200Y283800D02*
X389353Y287953D01*
X385200Y179400D02*
Y283800D01*
X375600Y169800D02*
X385200Y179400D01*
X499800Y238049D02*
Y241200D01*
X489449Y235049D02*
X499800D01*
X486501Y225600D02*
X487800Y226899D01*
Y233400D01*
X489449Y235049D01*
X495000Y270600D02*
X495276Y270876D01*
X469200Y263032D02*
X473659D01*
X500134Y193228D02*
Y199200D01*
X456000Y239567D02*
X462008D01*
X414891Y195891D02*
X417469Y198469D01*
X483168Y225600D02*
X486501D01*
X482087Y226681D02*
X483168Y225600D01*
X482087Y226681D02*
Y229909D01*
X343800Y158400D02*
X419927D01*
X319200Y183000D02*
X343800Y158400D01*
X319200Y183000D02*
Y202800D01*
X419927Y158400D02*
X483454D01*
X414891Y195891D02*
Y196106D01*
Y163436D02*
Y195891D01*
Y163436D02*
X419927Y158400D01*
X414891Y196106D02*
X414986Y196200D01*
X418747Y164400D02*
X421938Y167591D01*
X375600Y154800D02*
X377400Y156600D01*
X483454Y158400D02*
X490800Y165746D01*
X506268Y179860D02*
X511660D01*
X513600Y181800D02*
Y185400D01*
X511660Y187340D02*
X513600Y185400D01*
X506268Y187340D02*
X511660D01*
X500134Y190655D02*
Y193228D01*
X496819Y187340D02*
X500134Y190655D01*
X477756Y267128D02*
Y271457D01*
X473659Y263032D02*
X477756Y267128D01*
X469200Y262800D02*
Y263032D01*
X457200Y271800D02*
X457543Y271457D01*
X449685Y279315D02*
X457200Y271800D01*
X496315Y244685D02*
X499800Y241200D01*
X488779Y244685D02*
X496315D01*
X421938Y191398D02*
X425540Y195000D01*
X421938Y167591D02*
Y191398D01*
X426131Y195591D02*
Y201600D01*
X417469Y198469D02*
Y201600D01*
X524400Y226800D02*
Y250200D01*
X522236Y224636D02*
X524400Y226800D01*
X509400Y224636D02*
X522236D01*
X484055Y229909D02*
Y235248D01*
X483661Y235642D02*
X484055Y235248D01*
X483661Y235642D02*
Y239567D01*
X480118Y229909D02*
Y234322D01*
X481693Y235897D01*
Y239567D01*
X477756Y235248D02*
Y239567D01*
Y235248D02*
X478200Y234804D01*
Y229960D02*
Y234804D01*
X478150Y229909D02*
X478200Y229960D01*
X495000Y270600D02*
Y270876D01*
X495276D02*
X500726D01*
X456890Y266339D02*
X462008Y271457D01*
X457543D02*
X462008D01*
X446400Y279315D02*
X449685D01*
D45*
X397041Y281400D02*
D03*
X346063Y263071D02*
D03*
D46*
X397041Y271400D02*
D03*
X346063Y253071D02*
D03*
Y243071D02*
D03*
Y233071D02*
D03*
Y223071D02*
D03*
Y213071D02*
D03*
D47*
X453600Y231600D02*
D03*
Y222000D02*
D03*
X446400Y270600D02*
D03*
X524400Y202800D02*
D03*
X425540Y187520D02*
D03*
X506268Y162000D02*
D03*
X382200Y204600D02*
D03*
X351600Y169800D02*
D03*
X466200Y244200D02*
D03*
X513600Y185400D02*
D03*
X430297Y265800D02*
D03*
X375600Y169800D02*
D03*
X463976Y246892D02*
D03*
X507600Y229800D02*
D03*
Y234600D02*
D03*
X499800Y238049D02*
D03*
X418747Y164400D02*
D03*
X375600Y154800D02*
D03*
X499800Y199200D02*
D03*
X456000Y238609D02*
D03*
X494600Y250800D02*
D03*
X499321Y246204D02*
D03*
X451200Y260433D02*
D03*
X447000Y247800D02*
D03*
X445400Y250600D02*
D03*
X443800Y253400D02*
D03*
X442200Y256200D02*
D03*
X481800Y257400D02*
D03*
X478570D02*
D03*
Y261000D02*
D03*
X319200Y202800D02*
D03*
X414986Y196200D02*
D03*
X524400Y250200D02*
D03*
X330000Y263071D02*
D03*
X457200Y271800D02*
D03*
X469200Y262800D02*
D03*
X495000Y270876D02*
D03*
X506400Y279000D02*
D03*
X475200Y277200D02*
D03*
X437786Y265800D02*
D03*
X389663Y196800D02*
D03*
X389736Y217800D02*
D03*
X404583Y207200D02*
D03*
D48*
X324671Y160200D02*
D03*
X521800D02*
D03*
X324600Y278740D02*
D03*
X521871D02*
D03*
X362008Y197047D02*
D03*
X362205Y278740D02*
D03*
D49*
X521211Y258494D02*
D03*
Y215384D02*
D03*
D50*
X509400Y244321D02*
D03*
Y239400D02*
D03*
Y234479D02*
D03*
Y229557D02*
D03*
Y224636D02*
D03*
Y249242D02*
D03*
D51*
X456890Y266339D02*
D03*
Y264370D02*
D03*
Y262402D02*
D03*
Y260433D02*
D03*
Y258465D02*
D03*
Y256496D02*
D03*
Y254528D02*
D03*
Y252559D02*
D03*
Y250590D02*
D03*
Y248622D02*
D03*
Y246654D02*
D03*
Y244685D02*
D03*
X488779D02*
D03*
Y246654D02*
D03*
Y248622D02*
D03*
Y250590D02*
D03*
Y252559D02*
D03*
Y254528D02*
D03*
Y256496D02*
D03*
Y258465D02*
D03*
Y260433D02*
D03*
Y262402D02*
D03*
Y264370D02*
D03*
Y266339D02*
D03*
D52*
X462008Y239567D02*
D03*
X463976D02*
D03*
X465945D02*
D03*
X467913D02*
D03*
X469882D02*
D03*
X471850D02*
D03*
X473819D02*
D03*
X475787D02*
D03*
X477756D02*
D03*
X479724D02*
D03*
X481693D02*
D03*
X483661D02*
D03*
Y271457D02*
D03*
X481693D02*
D03*
X479724D02*
D03*
X477756D02*
D03*
X475787D02*
D03*
X473819D02*
D03*
X471850D02*
D03*
X469882D02*
D03*
X467913D02*
D03*
X465945D02*
D03*
X463976D02*
D03*
X462008D02*
D03*
D53*
X472244Y229909D02*
D03*
X474213D02*
D03*
X476181D02*
D03*
X478150D02*
D03*
X480118D02*
D03*
X482087D02*
D03*
X484055D02*
D03*
X470276D02*
D03*
D54*
X463779Y220079D02*
D03*
X490551Y220079D02*
D03*
D55*
X417469Y201600D02*
D03*
X426131D02*
D03*
D56*
X425540Y195000D02*
D03*
Y187520D02*
D03*
X418060Y191260D02*
D03*
D57*
X496819Y187340D02*
D03*
Y179860D02*
D03*
X506268D02*
D03*
Y183600D02*
D03*
Y187340D02*
D03*
D58*
X464888Y282780D02*
D03*
X475912D02*
D03*
D59*
X507674Y288225D02*
D03*
X491926D02*
D03*
D60*
X506493Y279564D02*
D03*
X493107D02*
D03*
M02*
