M48
;Layer_Color=9474304
;FILE_FORMAT=2:5
INCH,LZ
;TYPE=PLATED
T1F00S00C0.01200
T2F00S00C0.02953
T3F00S00C0.03543
T4F00S00C0.11811
%
T01
X03756Y01548
X0506268Y0162
X05136Y01854
X04998Y01992
X05244Y02028
X05076Y02298
Y02346
X04998Y0238049
X0499321Y0246204
X04946Y02508
X04818Y02574
X047857
Y0261
X04692Y02628
X04752Y02772
X0495Y0270876
X05064Y0279
X05244Y02502
X0463976Y0246892
X04662Y02442
X0456Y0238609
X04536Y02316
Y0222
X0447Y02478
X04454Y02506
X04438Y02534
X04422Y02562
X04512Y0260433
X04464Y02706
X04572Y02718
X0437786Y02658
X0430297
X042554Y018752
X0414986Y01962
X0404583Y02072
X03822Y02046
X0389663Y01968
X0389736Y02178
X03756Y01698
X03516
X03192Y02028
X033Y0263071
X0418747Y01644
T02
X0496257Y0285469
X0503343
T03
X0346063Y0213071
Y0223071
Y0233071
Y0243071
Y0253071
Y0263071
X0397041Y02714
Y02814
T04
X05218Y01602
X0521871Y027874
X0362205
X03246
X0324671Y01602
X0362008Y0197047
M30
